<svg id="Kiwi" enable-background="new 0 0 450 450" height="512" viewBox="0 0 450 450" width="512" xmlns="http://www.w3.org/2000/svg"><g><path d="m39.348 156.666c28.245-95.001 212.891-150.694 267.266-51.519 36.121 78.187-8.612 130.465-70.134 155.332-83.634 33.799-228.395 28.957-197.132-103.813" fill="#ab744d"/><path d="m276.276 71.858c6.5 4.763 13.941 10.542 19.33 17.232 100.426 124.665-130.49 240.962-233.045 165.073 134.463-13.838 204.731-103.953 213.715-182.305" fill="#915e3a"/><path d="m408.094 311.577c-86.05 168.049-328.554 65.903-249.018-109.994 70.526-155.969 298.248 13.853 249.018 109.994" fill="#ab744d"/><path d="m408.094 311.577c-59.224 115.66-280.985-1.363-234.942-127.374 9.843-26.954 32.747-41.05 63.504-44.974 91.209-11.638 208.092 100.762 171.438 172.348" fill="#7bab3c"/><path d="m310.417 223.088c18.621 14.224 25 37.162 14.25 51.234-10.752 14.074-34.558 13.95-53.179-.272-18.62-14.224-24.999-37.162-14.25-51.234 10.752-14.074 34.559-13.95 53.179.272" fill="#f1e981"/><path d="m179.671 90.981c5.952 11.431-7.507 30.22-30.059 41.964-22.554 11.745-45.662 12.001-51.614.57-5.952-11.429 7.504-30.217 30.059-41.962 22.553-11.744 45.661-12 51.614-.572" fill="#bd8964"/><path d="m228.646 183.274c2.179-2.249 7.562-.566 12.022 3.762 4.46 4.325 6.306 9.652 4.123 11.902-2.18 2.25-7.562.567-12.022-3.761-4.461-4.326-6.306-9.652-4.123-11.903m-.929 53.52c.239 3.124-4.589 6.039-10.782 6.51-6.197.471-11.411-1.677-11.646-4.799-.238-3.125 4.589-6.039 10.782-6.51 6.196-.473 11.41 1.677 11.646 4.799zm19.492 39.807c1.899 2.494-.569 7.562-5.512 11.327-4.942 3.767-10.486 4.799-12.385 2.306-1.899-2.494.57-7.562 5.512-11.327 4.944-3.768 10.486-4.8 12.385-2.306zm39.362 25.08c3.133 0 5.672 5.035 5.672 11.249 0 6.212-2.539 11.248-5.672 11.248s-5.672-5.036-5.672-11.248c0-6.214 2.539-11.249 5.672-11.249zm52.228-9.279c2.18-2.25 7.563-.567 12.023 3.761 4.46 4.325 6.306 9.652 4.124 11.902-2.18 2.25-7.563.567-12.023-3.761-4.461-4.326-6.306-9.653-4.124-11.902zm15.731-39.656c.631-3.069 6.073-4.541 12.16-3.293 6.087 1.252 10.508 4.752 9.877 7.821-.631 3.07-6.073 4.542-12.16 3.293-6.087-1.251-10.508-4.753-9.877-7.821zm-20.418-36.879c-1.074-2.945 2.785-7.058 8.62-9.186 5.836-2.133 11.438-1.476 12.513 1.466 1.074 2.946-2.786 7.058-8.62 9.187-5.837 2.132-11.439 1.476-12.513-1.467zm-37.081-21.016c-3.003-.895-3.997-6.446-2.224-12.398 1.775-5.955 5.647-10.056 8.648-9.161 3.005.895 3.997 6.446 2.225 12.398-1.777 5.955-5.647 10.056-8.649 9.161z" fill="#5e8031"/></g></svg>