<svg height="512" viewBox="0 0 48 48" width="512" xmlns="http://www.w3.org/2000/svg"><g id="Kurma"><path d="m43 40.2c-3 2-5 2-7 4.08-3.73 3.83-9.48.84-13 2-3 1-6 1-8-1s-5-2-7-3.07c-1.26-.65-1.45-.47-4-3.08-3.89-4-4.15-8.07 0-12.3 2.53-2.59 2.7-2.41 4-3.08 2-1 5-1 7-3.07s5-2.05 8-1c2.12.73 5 0 7 0s4.42.43 6 2c2 2 4.06 2.07 7 4.08a8.51 8.51 0 0 1 0 14.44z" fill="#a87e6b"/><path d="m47 33c0 2.24-1.19 4.63-2 5.2-3 2-5 2-7 4.08-3.73 3.83-9.48.84-13 2-3 1-6 1-8-1s-5-2-7-3.07c-1.26-.65-1.45-.47-4-3.08-4-4-3.81-8.12-.65-11.62 3.19-3.19 7-2.1 9.65-4.83 2-2.05 5-2.05 8-1 2.12.73 5 0 7 0s4.42.43 6 2c2 2 4.06 2.07 7 4.08a9 9 0 0 1 4 7.24z" fill="#be927c"/><path d="m37 33a2.16 2.16 0 0 1 -.15.76c-.95 2.4-6.34 4.24-12.85 4.24-7.18 0-13-2.24-13-5 0-1.72 2.15-2.66 2.15-2.76 7.16-4.17 23.85-2.11 23.85 2.76z" fill="#f6ccaf"/><path d="m37 33a2.16 2.16 0 0 1 -.15.76c-7.16 4.17-23.85 2.11-23.85-2.76a2.16 2.16 0 0 1 .15-.76c7.16-4.17 23.85-2.11 23.85 2.76z" fill="#ffdec7"/><path d="m41.83 11.35c-.67 3.57-2.1 5-2.06 7.83a7.24 7.24 0 0 1 -1.5 4.17 8.14 8.14 0 0 1 -2.27-1.63c-3.73-3.83-9.48-.84-13-2-3-1-6-1-8 1-2.76 2.83-6.08 1.38-10 5.12.82-3.35 3.25-5.34 3.21-8.46 0-2.87 2.09-5 4.94-6.38 3.37-1.66 5.29-7.8 10.64-7.75 3.94.06 8.87-4.57 14.64-.71a8.7 8.7 0 0 1 3.4 8.81z" fill="#a87e6b"/><path d="m41.83 11.35c-.67 3.57-2.1 5-2.06 7.83a5.89 5.89 0 0 1 -.52 2.43c-2.25-.74-2.84-4.61-11.56-3.78a11.46 11.46 0 0 1 -4.05 0c-3.58-1.23-7.41-1.19-10.07 1.52a8.39 8.39 0 0 1 -3.91 1.77 6.78 6.78 0 0 0 .58-2.71c0-2.87 2.09-5 4.94-6.38 3.37-1.66 5.29-7.8 10.64-7.75 3.87 0 7.41-3.56 12.64-1.71a8.7 8.7 0 0 1 3.37 8.78z" fill="#be927c"/><g fill="#a07765"><path d="m31.31 16a11.6 11.6 0 0 1 4.69-4.69 1 1 0 0 1 .9 1.79 9.58 9.58 0 0 0 -3.8 3.8 1 1 0 0 1 -1.79-.9z"/><path d="m18.36 16.57a1 1 0 0 1 -.42-1.91 12.12 12.12 0 0 0 5.18-5.19 1 1 0 0 1 1.79.89c-1.91 3.74-5.69 6.21-6.55 6.21z"/><path d="m29.51 8.1a14 14 0 0 1 4.49-3.65 1 1 0 0 1 1.33.5c.7 1.54-1.58 1.08-4.31 4.42a1 1 0 0 1 -1.51-1.27z"/></g></g></svg>