<svg id="Capa_1" enable-background="new 0 0 512 512" height="512" viewBox="0 0 512 512" width="512" xmlns="http://www.w3.org/2000/svg"><g><g><g><path d="m290.268 120.044v-96.504h-68.537v96.504c0 14.253-6.936 27.557-18.494 35.897-22.707 16.387-37.489 43.068-37.489 73.21v222.134c0 33.532 27.183 60.715 60.715 60.715h59.074c33.532 0 60.715-27.183 60.715-60.715v-222.133c0-30.142-14.782-56.823-37.489-73.21-11.558-8.342-18.495-21.645-18.495-35.898z" fill="#54a34a"/></g><g><path d="m308.762 155.941c-11.558-8.341-18.494-21.644-18.494-35.897v-96.504h-2.318c-16.212.003-5.246 114.279-3.4 129.481 2.535 20.872 10.42 40.628 16.172 60.726 5.837 20.393 6.413 41.693 5.495 62.829-1.948 44.861-14.633 89.03-32.996 129.819-15.533 34.503-35.621 81.258-75.143 93.236-2.121.643-4.255 1.099-6.392 1.41 9.852 6.899 21.836 10.959 34.776 10.959h59.074c33.532 0 60.715-27.183 60.715-60.715v-222.133c0-30.143-14.782-56.824-37.489-73.211z" fill="#2e8514"/></g><g><path d="m290.406 37.013h-68.811c-6.689 0-12.111-5.422-12.111-12.111-.001-13.753 11.148-24.902 24.901-24.902h43.23c13.753 0 24.902 11.149 24.902 24.902 0 6.689-5.423 12.111-12.111 12.111z" fill="#f5ab0e"/></g><g><path d="m293.697 5.907c1.8 3.444 2.832 7.354 2.832 11.509 0 6.689-5.422 12.111-12.111 12.111h-68.811c-2.054 0-3.959-.559-5.653-1.461 1.398 5.144 6.054 8.947 11.641 8.947h68.811c6.689 0 12.111-5.422 12.111-12.111 0-7.619-3.43-14.428-8.82-18.995z" fill="#f49200"/></g><g><path d="m296.458 457.09h-80.917c-11.673 0-21.136-9.463-21.136-21.136v-189.852c0-11.673 9.463-21.136 21.136-21.136h80.917c11.673 0 21.136 9.463 21.136 21.136v189.852c0 11.673-9.463 21.136-21.136 21.136z" fill="#f5d289"/></g><g><g><path d="m211.619 404.104c-.58 0-1.159-.223-1.6-.667-.877-.882-.872-2.309.01-3.188.289-.285 29.289-29.63 67.591-111.677.528-1.127 1.868-1.616 2.997-1.089 1.127.528 1.615 1.868 1.089 2.997-38.711 82.917-67.302 111.781-68.5 112.969-.441.437-1.015.655-1.587.655z" fill="#3f474a"/></g><g><path d="m290.669 292.226c-5.972 14.105-21.82 20.879-21.82 20.879s-6.165-16.094-.193-30.199 21.82-20.879 21.82-20.879 6.165 16.094.193 30.199z" fill="#54a34a"/></g><g><path d="m279.544 338.25c-11.068 1.579-21.273-5.778-21.273-5.778s7.741-9.917 18.809-11.496 21.273 5.778 21.273 5.778-7.741 9.918-18.809 11.496z" fill="#54a34a"/></g><g><path d="m240.668 319.031c5.574 9.692 17.655 13.199 17.655 13.199s3.044-12.206-2.53-21.898-17.655-13.199-17.655-13.199-3.044 12.206 2.53 21.898z" fill="#54a34a"/></g><g><path d="m262.343 368.096c-11.068 1.579-21.273-5.778-21.273-5.778s7.741-9.917 18.809-11.496 21.273 5.778 21.273 5.778-7.741 9.917-18.809 11.496z" fill="#54a34a"/></g><g><path d="m223.467 348.876c5.574 9.692 17.655 13.199 17.655 13.199s3.044-12.206-2.53-21.898-17.655-13.199-17.655-13.199-3.044 12.206 2.53 21.898z" fill="#54a34a"/></g></g></g><g><path d="m185.964 225.517c-.722 0-1.454-.12-2.174-.372-3.424-1.201-5.224-4.95-4.023-8.372.834-2.376 1.777-5.037 2.829-7.856 1.268-3.398 5.054-5.128 8.451-3.855 3.398 1.268 5.125 5.053 3.855 8.451-1.02 2.729-1.931 5.306-2.739 7.609-.951 2.703-3.487 4.395-6.199 4.395zm17.612-36.923c-1.414 0-2.84-.455-4.041-1.393-2.857-2.235-3.363-6.363-1.129-9.22 3.47-4.437 7.187-7.79 11.045-9.966 3.162-1.782 7.168-.662 8.948 2.495 1.782 3.161.664 7.166-2.495 8.948-2.346 1.321-4.75 3.547-7.149 6.615-1.296 1.655-3.228 2.521-5.179 2.521z" fill="#fff"/></g></g></svg>