<svg id="Capa_1" enable-background="new 0 0 512 512" viewBox="0 0 512 512" xmlns="http://www.w3.org/2000/svg"><g><path d="m97.98 63.287h-28.211v28.211c0 40.081 32.492 72.572 72.572 72.572l16.705 7.82 11.506-7.82v-28.211c0-40.081-32.492-72.572-72.572-72.572z" fill="#b0eeae"/><path d="m37.604 236.642v28.211h28.211c40.081 0 72.572-32.492 72.572-72.572l-9.135-28.211h-19.076c-40.081-.001-72.572 32.491-72.572 72.572z" fill="#b0eeae"/><path d="m256.325 164.07 8.549 114.233-8.549 124.468h-114.872l16.343-131.47 35.271-107.231z" fill="#f5f8f9"/><path d="m193.067 164.07-51.614 238.701h-94.2l81.999-238.701z" fill="#e3eaee"/><path d="m371.196 402.771h-114.871v-238.701h63.257l32.418 103.592z" fill="#e3eaee"/><path d="m465.396 402.771h-94.2l-51.614-238.701h63.815z" fill="#d9e1e8"/><path d="m0 388.713v19.685c0 22.265 18.05 40.315 40.315 40.315h216.01l8.549-30-8.549-30z" fill="#e7f2ff"/><path d="m256.325 388.713v60h215.36c22.265 0 40.315-18.05 40.315-40.315v-19.685z" fill="#d0e8ff"/></g><g/><g/><g/><g/><g/><g/><g/><g/><g/><g/><g/><g/><g/><g/><g/></svg>