<svg id="Capa_1" enable-background="new 0 0 512 512" height="512" viewBox="0 0 512 512" width="512" xmlns="http://www.w3.org/2000/svg"><path d="m478.451 302.134c-8.713-3.836-15.733-8.59-21.367-13.878-3.207 10.931-8.084 20.164-11.856 26.282-2.681 4.348-8.826 4.756-12.122.854-15.632-18.502-19.685-36.776-18.494-52.578-14.985 14.952-35.332 21.106-47.151 23.538-5.003 1.03-9.514-3.163-8.934-8.238 2.746-24.024 13.235-39.496 25.528-49.466-16.527 2.029-36.065-1.444-55.864-18.172-3.902-3.296-3.493-9.441.854-12.122 6.118-3.772 15.351-8.649 26.282-11.856-5.288-5.634-10.041-12.654-13.878-21.367-26.617-6.127-53.412-3.968-76.997 9.218 19.032 18.562 30.778 43.051 30.778 73.011 0 74.267-48.82 92.169-74.323 155.785-8.716 21.74-20.154 36.824-31.436 47.268 10.985 11.928 26.498 19.625 43.79 20.329 15.404.626 34.237-1.936 55.876-11.189 63.016-26.95 110.196-5.088 162.71-57.602 28.157-28.155 34.816-64.147 26.604-99.817z" fill="#ff636e"/><path d="m298.06 162.987c-11.649 1.71-22.956 5.408-33.608 11.363 19.032 18.562 30.778 43.051 30.778 73.011 0 74.267-48.82 92.169-74.323 155.785-8.716 21.74-20.154 36.824-31.436 47.268 7.546 8.194 17.229 14.391 28.157 17.696 14.176-14.528 25.61-32.472 34.026-53.464 8.356-20.845 19.822-36.083 31.961-52.217 20.896-27.772 44.58-59.25 44.58-115.068.001-31.873-10.482-60.741-30.135-84.374z" fill="#ff4654"/><path d="m399.422 383.466c-3.017-3.017-3.017-7.909 0-10.927l7.342-7.342c3.017-3.017 7.909-3.017 10.927 0 3.017 3.017 3.017 7.909 0 10.927l-7.342 7.342c-3.018 3.018-7.91 3.018-10.927 0z" fill="#ff4654"/><path d="m364.901 348.945c-3.017-3.017-3.017-7.909 0-10.927l7.342-7.342c3.017-3.017 7.909-3.017 10.927 0s3.017 7.909 0 10.927l-7.342 7.342c-3.018 3.018-7.91 3.018-10.927 0z" fill="#ff4654"/><path d="m330.38 314.425c-3.017-3.017-3.017-7.909 0-10.927l7.342-7.342c3.017-3.017 7.909-3.017 10.927 0s3.017 7.909 0 10.927l-7.342 7.342c-3.017 3.017-7.909 3.017-10.927 0z" fill="#ff4654"/><path d="m303.33 410.516c-3.017-3.017-3.017-7.909 0-10.927l7.342-7.342c3.017-3.017 7.909-3.017 10.927 0 3.017 3.017 3.017 7.909 0 10.927l-7.342 7.342c-3.017 3.017-7.909 3.017-10.927 0z" fill="#ff4654"/><path d="m268.81 375.995c-3.017-3.017-3.017-7.909 0-10.927l7.342-7.342c3.017-3.017 7.909-3.017 10.927 0 3.017 3.017 3.017 7.909 0 10.927l-7.342 7.342c-3.018 3.018-7.91 3.018-10.927 0z" fill="#ff4654"/><path d="m351.655 395.492c-3.017-3.017-3.017-7.909 0-10.927l7.342-7.342c3.017-3.017 7.909-3.017 10.927 0 3.017 3.017 3.017 7.909 0 10.927l-7.342 7.342c-3.018 3.017-7.91 3.017-10.927 0z" fill="#ff4654"/><path d="m317.134 360.971c-3.017-3.017-3.017-7.909 0-10.927l7.342-7.342c3.017-3.017 7.909-3.017 10.927 0 3.017 3.017 3.017 7.909 0 10.927l-7.342 7.342c-3.017 3.017-7.909 3.017-10.927 0z" fill="#ff4654"/><path d="m254.533 423.572c-3.017-3.017-3.017-7.909 0-10.927l7.342-7.342c3.017-3.017 7.909-3.017 10.927 0 3.017 3.017 3.017 7.909 0 10.927l-7.342 7.342c-3.017 3.017-7.909 3.017-10.927 0z" fill="#ff4654"/><path d="m245.52 157.968c-8.874 3.448-17.199 5.051-24.922 5.296-.001-.002-.002-.004-.003-.006 5.463 9.999 8.545 19.979 10.204 26.974 1.179 4.97-2.878 9.604-7.967 9.176-24.137-2.03-39.924-12.085-50.256-24.101-.023 21.169-10.059 39.908-16.697 49.985-2.809 4.266-8.964 4.49-12.142.492-15.046-18.929-18.569-37.287-16.927-53.029-10.251 13.121-26.523 24.48-52.351 26.653-5.09.428-9.146-4.206-7.967-9.176 1.659-6.994 4.74-16.975 10.204-26.974-.001.002-.002.004-.003.006-7.723-.244-16.048-1.848-24.922-5.296-31.029 19.417-51.771 49.575-51.771 89.394 0 74.267 48.819 92.169 74.323 155.785 8.757 21.844 20.263 36.972 31.598 47.422 24.081 22.199 61.367 22.199 85.449 0 11.334-10.449 22.84-25.578 31.598-47.422 25.503-63.615 74.323-81.518 74.323-155.785-.001-39.819-20.743-69.977-51.771-89.394z" fill="#ff7f87"/><g fill="#ff636e"><path d="m155.604 450.569c-11.336-10.449-22.842-25.578-31.598-47.422-25.504-63.615-74.322-81.518-74.322-155.785 0-21.593 6.11-40.339 16.642-56.078.032-.348.083-.699.167-1.053 1.659-6.993 4.739-16.971 10.2-26.968-7.723-.244-16.048-1.848-24.922-5.296-31.03 19.418-51.771 49.576-51.771 89.395 0 74.267 48.819 92.169 74.323 155.785 8.757 21.844 20.263 36.972 31.598 47.422 18.685 17.225 45.317 21.075 67.566 11.57-6.426-2.746-12.488-6.596-17.883-11.57z"/><path d="m51.869 271.361c-4.267 0-7.726-3.459-7.726-7.726v-10.383c0-4.267 3.459-7.726 7.726-7.726s7.726 3.459 7.726 7.726v10.383c0 4.267-3.459 7.726-7.726 7.726z"/><path d="m100.689 271.361c-4.267 0-7.726-3.459-7.726-7.726v-10.383c0-4.267 3.459-7.726 7.726-7.726s7.726 3.459 7.726 7.726v10.383c0 4.267-3.459 7.726-7.726 7.726z"/><path d="m247.148 271.361c-4.267 0-7.726-3.459-7.726-7.726v-10.383c0-4.267 3.459-7.726 7.726-7.726s7.726 3.459 7.726 7.726v10.383c0 4.267-3.459 7.726-7.726 7.726z"/><path d="m198.328 271.361c-4.267 0-7.726-3.459-7.726-7.726v-10.383c0-4.267 3.459-7.726 7.726-7.726s7.726 3.459 7.726 7.726v10.383c0 4.267-3.459 7.726-7.726 7.726z"/><path d="m149.509 271.361c-4.267 0-7.726-3.459-7.726-7.726v-10.383c0-4.267 3.459-7.726 7.726-7.726s7.726 3.459 7.726 7.726v10.383c0 4.267-3.459 7.726-7.726 7.726z"/><path d="m100.689 358.435c-4.267 0-7.726-3.459-7.726-7.726v-10.383c0-4.267 3.459-7.726 7.726-7.726s7.726 3.459 7.726 7.726v10.383c0 4.267-3.459 7.726-7.726 7.726z"/><path d="m198.328 358.435c-4.267 0-7.726-3.459-7.726-7.726v-10.383c0-4.267 3.459-7.726 7.726-7.726s7.726 3.459 7.726 7.726v10.383c0 4.267-3.459 7.726-7.726 7.726z"/><path d="m149.509 358.435c-4.267 0-7.726-3.459-7.726-7.726v-10.383c0-4.267 3.459-7.726 7.726-7.726s7.726 3.459 7.726 7.726v10.383c0 4.267-3.459 7.726-7.726 7.726z"/><path d="m75.416 313.641c-4.267 0-7.726-3.459-7.726-7.726v-10.383c0-4.267 3.459-7.726 7.726-7.726s7.726 3.459 7.726 7.726v10.383c0 4.267-3.459 7.726-7.726 7.726z"/><path d="m221.875 313.641c-4.267 0-7.726-3.459-7.726-7.726v-10.383c0-4.267 3.459-7.726 7.726-7.726s7.726 3.459 7.726 7.726v10.383c0 4.267-3.459 7.726-7.726 7.726z"/><path d="m173.055 313.641c-4.267 0-7.726-3.459-7.726-7.726v-10.383c0-4.267 3.459-7.726 7.726-7.726s7.726 3.459 7.726 7.726v10.383c.001 4.267-3.459 7.726-7.726 7.726z"/><path d="m124.235 313.641c-4.267 0-7.726-3.459-7.726-7.726v-10.383c0-4.267 3.459-7.726 7.726-7.726s7.726 3.459 7.726 7.726v10.383c.001 4.267-3.458 7.726-7.726 7.726z"/><path d="m173.055 402.172c-4.267 0-7.726-3.459-7.726-7.726v-10.383c0-4.267 3.459-7.726 7.726-7.726s7.726 3.459 7.726 7.726v10.383c.001 4.267-3.459 7.726-7.726 7.726z"/><path d="m124.235 402.172c-4.267 0-7.726-3.459-7.726-7.726v-10.383c0-4.267 3.459-7.726 7.726-7.726s7.726 3.459 7.726 7.726v10.383c.001 4.267-3.458 7.726-7.726 7.726z"/></g><path d="m137.03 126.522c3.031.562 5.391 2.903 6.002 5.832-.001.002-.003.004-.004.006.131-.181.263-.362.392-.537 2.829-3.849 8.459-4.05 11.652-.497-.12-.134-.25-.252-.376-.375.969-2.25 3.031-3.94 5.554-4.412.599-1.108 1.498-2.074 2.647-2.8 2.465-30.964 12.193-50.558 19.076-60.839 3.719-5.555 2.992-12.954-1.747-17.669-6.3-6.267-16.754-5.127-21.582 2.334-8.977 13.87-20.781 38.923-23.207 76.966.649.585 1.192 1.253 1.593 1.991z" fill="#bced6b"/><path d="m143.032 132.354-.004.005z" fill="#a2e82d"/><path d="m149.217 128.799c2.775-36.628 14.249-60.886 23.025-74.446 2.4-3.708 6.19-5.852 10.169-6.303-.595-1.01-1.321-1.961-2.185-2.82-6.3-6.267-16.754-5.127-21.582 2.334-8.977 13.87-20.781 38.923-23.207 76.967.648.585 1.192 1.254 1.593 1.992 3.031.562 5.391 2.903 6.002 5.831.13-.179.26-.358.388-.532 1.438-1.956 3.6-2.965 5.797-3.023z" fill="#a2e82d"/><path d="m134.363 123.1c-42.739-24.399-79.015 5.301-92.628 19.203-3.814 3.893-2.684 10.369 2.231 12.793 10.995 5.423 22 8.344 32.71 8.683h.016c.188 0 .362-.103.452-.268 12.942-23.69 32.561-36.006 58.312-36.606h.001c.474-.014.975.03 1.479.124.194.035.394-.043.511-.204s.131-.374.036-.549c-.719-1.323-1.798-2.421-3.12-3.176z" fill="#a2e82d"/><path d="m63.655 160.762c-4.915-2.424-6.045-8.9-2.231-12.793 10.758-10.986 35.672-31.832 66.742-28.053-40.022-18.355-73.481 9.163-86.431 22.387-3.813 3.893-2.684 10.369 2.231 12.793 8.27 4.078 16.545 6.741 24.696 7.955-1.668-.707-3.338-1.466-5.007-2.289z" fill="#98d829"/><path d="m255.556 142.303c-13.614-13.902-49.89-43.604-92.629-19.203-1.328.758-2.411 1.863-3.13 3.193-.095.175-.08.388.037.549s.316.237.511.202c.564-.106 1.038-.15 1.488-.139 25.751.601 45.37 12.917 58.312 36.606.091.165.264.268.452.268h.016c10.71-.339 21.715-3.26 32.71-8.683 4.895-2.414 6.06-8.886 2.233-12.793z" fill="#a2e82d"/><path d="m250.683 137.616c-8.488 4.045-17.045 6.506-25.522 7.322-.005.001-.011.001-.016.002-.188.012-.367-.079-.468-.238-9.886-15.617-22.554-25.708-37.82-30.183-7.658 1.179-15.672 3.867-23.93 8.581-1.328.758-2.411 1.863-3.13 3.193-.095.175-.08.388.037.549s.316.237.511.202c.564-.106 1.038-.15 1.488-.139 25.751.601 45.37 12.917 58.312 36.606.091.165.264.268.452.268h.016c10.71-.339 21.715-3.26 32.71-8.683 4.895-2.414 6.059-8.886 2.232-12.793-1.391-1.421-3.024-3.01-4.872-4.687z" fill="#98d829"/><path d="m231.299 190.113c-4.49-18.933-20.244-63.091-69.442-64.238-3.341-.085-6.327 1.835-7.635 4.872-.084.196-.039.424.114.573l.1.097c.086.082.173.164.253.254 11.544 12.843 17.388 27.524 17.37 43.636 0 .123.044.243.125.337 12.313 14.322 29.339 22.49 50.603 24.278.235.02.47.03.703.03 5.092-.002 9.019-4.74 7.809-9.839z" fill="#a2e82d"/><path d="m231.299 190.113c-.04-.169-.083-.345-.125-.518-16.37-2.197-30.05-8.4-40.79-18.51-3.116-2.933-4.989-6.925-5.356-11.188-1.029-11.951-5.414-23.053-13.085-33.128-3.197-.501-6.552-.812-10.086-.894-3.341-.085-6.327 1.835-7.635 4.872-.084.196-.039.424.114.573l.1.097c.086.082.173.164.253.254 11.544 12.842 17.388 27.524 17.37 43.635 0 .123.044.243.124.336 12.314 14.322 29.339 22.491 50.604 24.279.235.02.47.03.703.03 5.092-.001 9.019-4.739 7.809-9.838z" fill="#98d829"/><path d="m135.433 125.875c-49.197 1.147-64.952 45.305-69.442 64.238-1.208 5.092 2.709 9.837 7.809 9.837.233 0 .467-.01.703-.03 22.54-1.895 40.275-10.929 52.714-26.849.059-.076.097-.168.106-.264 1.803-17.275 9.766-31.37 16.128-40.152.086-.118.117-.266.087-.407-.792-3.783-4.182-6.464-8.105-6.373z" fill="#a2e82d"/><path d="m89.498 190.252c3.912-16.497 16.381-52.141 52.071-61.8-1.528-1.644-3.73-2.634-6.136-2.578-49.197 1.147-64.952 45.305-69.442 64.238-1.208 5.092 2.709 9.837 7.809 9.837.233 0 .467-.01.703-.03 5.822-.489 11.317-1.465 16.489-2.903-1.433-1.815-2.092-4.246-1.494-6.764z" fill="#98d829"/><path d="m155.456 130.981c-1.647-1.832-3.999-2.819-6.437-2.695-2.399.118-4.592 1.295-6.014 3.23-10.815 14.709-32.434 53.37.328 94.587 3.392 4.268 9.968 4.039 12.976-.529 10.703-16.249 32.044-57.995-.853-94.593z" fill="#a2e82d"/><path d="m161.669 138.861c-1.815-2.645-3.872-5.276-6.213-7.88-1.647-1.832-3.999-2.819-6.437-2.695-2.399.118-4.592 1.295-6.014 3.23-10.815 14.709-32.434 53.37.328 94.587 3.392 4.268 9.968 4.039 12.976-.529 1.423-2.16 3.034-4.775 4.68-7.764-20.467-32.438-9.306-62.345.68-78.949z" fill="#98d829"/><path d="m423.974 203.185c1.746 2.54 1.759 5.865.121 8.368-.002.001-.005.001-.007.001.221-.035.442-.07.657-.103 4.722-.721 8.845 3.118 8.591 7.888.01-.18.002-.355-.001-.531 2.276-.906 4.929-.642 7.047.807 1.207-.36 2.526-.408 3.851-.108 23.638-20.152 44.372-27.128 56.508-29.53 6.558-1.298 11.275-7.044 11.258-13.729-.023-8.886-8.222-15.472-16.911-13.611-16.155 3.46-42.217 12.828-70.833 38.014.045.871-.043 1.728-.281 2.534z" fill="#bced6b"/><path d="m424.094 211.552-.007.001z" fill="#a2e82d"/><path d="m430.981 213.412c27.863-23.938 53.128-32.977 68.923-36.36 4.319-.925 8.515.239 11.648 2.733.294-1.135.452-2.321.449-3.539-.023-8.886-8.222-15.472-16.911-13.611-16.155 3.46-42.217 12.828-70.834 38.014.045.872-.044 1.729-.282 2.535 1.746 2.54 1.759 5.865.121 8.368.219-.035.438-.069.65-.102 2.399-.366 4.641.449 6.236 1.962z" fill="#a2e82d"/><path d="m424.507 198.879c-12.969-47.474-59.62-52.123-79.076-51.919-5.449.056-9.23 5.434-7.469 10.624 3.94 11.609 9.656 21.456 16.99 29.269.003.004.007.008.011.012.133.133.328.183.509.13 25.903-7.6 48.484-2.435 67.118 15.349.345.325.668.71.958 1.133.112.162.309.248.505.217.197-.031.357-.172.414-.362.428-1.446.441-2.985.04-4.453z" fill="#a2e82d"/><path d="m347.878 175.512c-1.762-5.19 2.019-10.567 7.469-10.624 15.375-.161 47.732 2.715 67.03 27.357-15.321-41.279-58.438-45.48-76.946-45.286-5.449.056-9.23 5.434-7.469 10.624 2.964 8.731 6.932 16.466 11.838 23.088-.679-1.68-1.323-3.397-1.922-5.159z" fill="#98d829"/><path d="m496.625 298.154c.204-19.457-4.445-66.11-51.92-79.077-1.475-.403-3.022-.388-4.471.044-.191.057-.331.218-.362.414s.056.392.218.504c.473.324.84.628 1.151.954 17.784 18.633 22.948 41.215 15.349 67.118-.053.181-.003.376.13.509.004.004.008.008.012.011 7.812 7.334 17.66 13.049 29.269 16.99 5.168 1.755 10.567-1.999 10.624-7.467z" fill="#a2e82d"/><path d="m496.493 291.394c-8.862-3.142-16.653-7.452-23.224-12.869-.004-.003-.008-.007-.012-.01-.141-.124-.204-.316-.163-.5 4.052-18.033 2.23-34.126-5.4-48.085-6.249-4.581-13.816-8.347-22.989-10.853-1.475-.403-3.022-.388-4.471.044-.191.057-.331.218-.362.414s.056.392.218.504c.473.324.84.628 1.151.954 17.784 18.633 22.948 41.215 15.349 67.118-.053.181-.003.376.13.509.004.004.008.008.012.011 7.812 7.334 17.66 13.049 29.269 16.99 5.168 1.754 10.568-1.999 10.624-7.468.021-1.989-.011-4.266-.132-6.759z" fill="#98d829"/><path d="m445.667 314.808c10.212-16.562 30.297-58.927-3.68-94.526-2.302-2.422-5.771-3.177-8.843-1.954-.198.079-.327.272-.324.486l.002.139c.003.119.006.238 0 .358-.918 17.244-7.167 31.758-18.573 43.138-.087.087-.141.203-.15.326-1.42 18.834 4.842 36.649 18.614 52.949.152.181.311.353.476.518 3.6 3.601 9.728 3.027 12.478-1.434z" fill="#a2e82d"/><path d="m445.667 314.808c.091-.148.185-.302.278-.454-10.022-13.129-15.308-27.188-15.754-41.932-.129-4.277 1.369-8.424 4.124-11.699 7.723-9.178 12.472-20.129 14.173-32.677-1.906-2.614-4.059-5.207-6.499-7.764-2.302-2.422-5.771-3.177-8.843-1.954-.198.079-.327.272-.324.486l.002.139c.003.119.006.238 0 .358-.918 17.244-7.167 31.757-18.572 43.137-.087.087-.141.203-.15.325-1.42 18.835 4.842 36.65 18.614 52.95.152.181.311.353.476.518 3.597 3.602 9.725 3.028 12.475-1.433z" fill="#98d829"/><path d="m423.302 201.597c-35.599-33.977-77.964-13.892-94.526-3.68-4.455 2.746-5.041 8.871-1.434 12.478.165.165.337.324.518.476 17.278 14.598 36.207 20.751 56.259 18.289.096-.012.187-.05.261-.111 13.49-10.94 29.087-15.276 39.796-16.988.144-.023.27-.105.35-.227 2.116-3.234 1.614-7.527-1.224-10.237z" fill="#a2e82d"/><path d="m345.299 214.638c14.431-8.899 48.453-25.286 80.519-6.88.082-2.243-.775-4.5-2.516-6.162-35.599-33.977-77.964-13.892-94.526-3.68-4.455 2.746-5.04 8.871-1.434 12.478.165.165.337.324.518.476 4.463 3.771 9.038 6.966 13.712 9.607.271-2.296 1.524-4.481 3.727-5.839z" fill="#98d829"/><path d="m433.85 219.367c.131-2.461-.834-4.822-2.646-6.457-1.78-1.613-4.163-2.331-6.537-1.968-18.048 2.753-60.672 14.804-66.651 67.115-.619 5.417 4.192 9.905 9.549 8.801 19.058-3.923 63.667-18.351 66.285-67.491z" fill="#a2e82d"/><path d="m432.671 229.332c.587-3.154.993-6.469 1.179-9.965.131-2.461-.834-4.822-2.646-6.457-1.78-1.613-4.163-2.331-6.537-1.968-18.048 2.753-60.672 14.804-66.651 67.115-.619 5.417 4.192 9.905 9.549 8.801 2.533-.521 5.521-1.231 8.799-2.181 8.465-37.41 37.505-50.665 56.307-55.345z" fill="#98d829"/></svg>