<svg height="512" viewBox="0 0 512 512" width="512" xmlns="http://www.w3.org/2000/svg"><path d="m482.022 176.315a48.007 48.007 0 0 0 -27.722-43.515v.01c.052-.644.086-1.292.086-1.949a24 24 0 0 0 -24-24 24.292 24.292 0 0 0 -3.57.265 32 32 0 0 0 -36.549-37.661 31.992 31.992 0 0 0 -56.92-14.082 47.924 47.924 0 0 0 -45.356-15.988 31.991 31.991 0 0 0 -59.1-16.373 48.016 48.016 0 0 0 -56.151 33.972 32.043 32.043 0 0 0 -38.493 21.443 24 24 0 0 0 -37.675 10.041 32 32 0 0 0 -39.9 45.878 48.03 48.03 0 0 0 -18.248 65.962v4.737h437.226l-.051-4.737a47.781 47.781 0 0 0 6.423-24.003z" fill="#dce1eb"/><g fill="#afb4c8"><path d="m171.141 116.519a40.05 40.05 0 0 0 -52.041 22.174 8 8 0 1 0 14.843 5.973 24.029 24.029 0 0 1 31.225-13.3 8 8 0 1 0 5.973-14.843z"/><path d="m274.21 76.736a39.7 39.7 0 0 0 -30.911 2.72 8 8 0 0 0 7.474 14.144 24.008 24.008 0 0 1 34.886 17.235 8 8 0 0 0 7.878 6.664 8.127 8.127 0 0 0 1.347-.113 8 8 0 0 0 6.551-9.225 39.893 39.893 0 0 0 -27.225-31.425z"/><path d="m246.4 141.009h-.09a40.077 40.077 0 0 0 -30.4 14.545 8 8 0 1 0 12.342 10.181 24.076 24.076 0 0 1 18.228-8.726 8 8 0 0 0 -.085-16z"/><path d="m401.106 151.516a40.035 40.035 0 0 0 -52.424-21.282 8 8 0 0 0 6.232 14.737 24.034 24.034 0 0 1 31.456 12.777 8 8 0 1 0 14.736-6.232z"/></g><path d="m9.011 200.316v48c0 .01 13.594 162.9 141 223.746v25.7a6.241 6.241 0 0 0 6.241 6.238h201.518a6.241 6.241 0 0 0 6.241-6.241v-25.7c127.406-60.845 141-223.736 141-223.746v-48z" fill="#dcaa46"/><path d="m9.011 200.316h496v48h-496z" fill="#b4821e"/><path d="m150.011 472.062v25.7a6.241 6.241 0 0 0 6.241 6.238h201.518a6.241 6.241 0 0 0 6.241-6.241v-25.7l.127-.062h-214.254z" fill="#b4821e"/><path d="m170.512 500.62v3.38h187.258a6.241 6.241 0 0 0 6.241-6.241v-13.105s-131.322.028-177.6.05a15.912 15.912 0 0 0 -15.899 15.916z" fill="#c89632"/><path d="m67.649 253.782c13.992 108.985 91.484 190.462 216.926 190.462h122.96c87.134-72.051 97.475-195.919 97.476-195.928v-48h-437.976v48s.165 1.937.614 5.466z" fill="#f0be5a"/><path d="m67.035 200.316h437.976v48h-437.976z" fill="#c89632"/><g fill="#fadc64"><path d="m454.871 319.87a8 8 0 0 0 -10.426 4.393c-10.841 26.628-24.561 49.553-40.782 68.137a8 8 0 0 0 12.055 10.522c17.382-19.922 32.037-44.356 43.546-72.622a8 8 0 0 0 -4.393-10.43z"/><path d="m465.84 284.9a8 8 0 0 0 -9.861 5.548q-.588 2.1-1.226 4.267a8 8 0 1 0 15.346 4.531q.671-2.274 1.289-4.485a8 8 0 0 0 -5.548-9.861z"/></g></svg>