<svg id="圖層_1" height="512" viewBox="0 0 512 512" width="512" xmlns="http://www.w3.org/2000/svg"><path id="_x35_" d="m181.896 362.939c-23.338-13.001-24.122-43.549-23.021-65.154 1.505-28.687-9.633-53.546-16.186-80.749-6.306-26.055-8.463-58.564 14.914-75.752 16.57-12.188 37.531-12.814 57.567-16.492 18.975-3.488 101.771-4.326 123.219-4.111 24.977.31 50.966 10.493 73.311 20.868 32.604 15.129 64.994 60.762 75.727 80.673 14.959 27.68 26.628 75.512 11.524 105.415-21.276 41.975-76.068 54.69-119.33 61.167-27.013 4.02-75.132 2.846-101.784-.525-32.649-4.063-72.66-12.31-95.941-25.34z" fill="#633222"/><path id="_x34_" d="m304.134 244.549c-19.277-52.027-58.661-102.332-115.11-115.396-11.22 2.141-22.042 5.237-31.421 12.131-23.377 17.188-21.22 49.697-14.914 75.752 6.553 27.203 17.69 52.063 16.186 80.749-1.101 21.605-.316 52.153 23.021 65.154 21.302 11.919 56.563 19.81 87.439 24.17 44.628-26.463 51.478-97.528 34.799-142.56z" fill="#d77164"/><path id="_x33_" d="m311.37 120.751c-14.56.146-32.08.456-48.436.958 62.293 20.151 93.93 100.441 98.413 127.644 8.432 50.162-8.531 102.835-45.209 141.679 10.626.345 21.562.379 31.99.092 31.973-42.212 45.881-95.074 37.361-145.787-4.736-28.778-28.992-88.959-74.119-124.586zm147.671 139.955c-3.34-35.46-19.557-81.15-45.754-118.249-.537-.262-1.063-.658-1.588-.908-14.68-6.812-30.946-13.266-47.441-17.165 40.402 33.717 66.403 96.022 70.4 138.595 2.41 26.017-8.5 100.621-39.631 120.965-1.145.752-2.018 1.742-2.82 2.77 13.364-2.33 27.253-5.417 40.706-9.822 22.067-37.399 28.233-93.382 26.128-116.186zm-270.018-131.553c-3.308.636-6.564 1.401-9.784 2.271 52.584 15.518 89.622 63.346 108.071 113.125 16.273 43.936 9.873 112.348-31.883 140.243 4.667.797 9.373 1.673 13.907 2.317 44.628-26.463 51.478-97.528 34.799-142.561-19.277-52.027-58.66-102.331-115.11-115.395z" fill="#b14425"/><path id="_x32_" d="m266.578 386.534c-6.243 0-11.581-4.76-12.175-11.091l-.437-6.214c-.911-14.986-1.777-29.139-25.855-41.87-9.438-4.946-23.914-3.358-33.37.781l-2.036 1.05c-6.584 2.773-12.523 5.547-18.678 8.415-22.927 10.673-48.902 22.778-78.819 22.778-.031 0-.063 0-.082 0-25.646-.013-53.634-13.288-71.261-33.809-13.852-16.112-19.968-34.973-17.223-53.09 1.006-6.695 7.179-11.259 13.927-10.269 6.68 1.002 11.283 7.245 10.266 13.924-1.651 10.974 2.46 22.852 11.587 33.478 12.997 15.119 34.173 25.276 52.724 25.289h.063c24.483 0 46.86-10.42 68.479-20.495 6.496-3.026 12.77-5.942 18.798-8.44l1.821-.955c14.389-6.325 36.949-9.946 55.228-.298 36.26 19.158 37.892 45.991 38.853 62.027l.398 5.401c.62 6.732-4.313 12.707-11.043 13.339-.4.036-.779.049-1.165.049z" fill="#633222"/><path id="_x31_" d="m107.131 230.084c-28.917-7.6-90.83-2.865-97.528 41.358-5.68 37.572 37.442 72.808 76.396 72.833 33.901.013 65.506-17.976 90.071-32.699 17.299-10.354 18.108-8.668 16.735-15.18-11.605-6.673-25.109-15.277-38.201-25.603-18.785-14.844-26.197-35.137-47.473-40.709z" fill="#d77164"/></svg>