<svg id="Capa_1" enable-background="new 0 0 512 512" height="512" viewBox="0 0 512 512" width="512" xmlns="http://www.w3.org/2000/svg"><g><path d="m438.943 31.767c-9.568-9.569-25.168-9.28-34.376.636l-108.614 117.274 43.305-1.964 99.879-92.538 4.59-16.573c-1.147-2.473-2.74-4.792-4.784-6.835z" fill="#dbd8db"/><path d="m330.296 166.214 108.01-100.072c7.786-7.23 9.618-18.443 5.42-27.541l-97.314 90.167c-6.986 6.473-15.776 10.378-25.081 12.411-5.361 1.171-10.37 3.162-14.808 4.942-3.152 1.275-7.898 3.21-10.571 3.555l-18.12 19.565z" fill="#c9c5c9"/><path d="m327.217 180.441-26.779-14.782c-2.553.573-5.045.833-7.435.577-12.474-1.336-24.125-17.591-37.003-17.591-12.877 0-24.529 16.255-37.002 17.591-12.748 1.365-28.399-11.934-40.633-9.256-5.749 1.259-12.972 8.817-17.396 13.774l-26.736 11.771c-6.728-1.026-23.997-3.162-28.989-.823-11.286 5.289-13.102 24.509-23.53 30.934-10.471 6.453-31.284 1.185-40.785 8.691-.629.497-1.196 1.049-1.719 1.64l11.447 9.854h276.559v-52.38z" fill="#fcdbb2"/><path d="m462.452 256 16.516-16.516h.009c-1.462-7.096-2.907-14.206-7.895-18.147-9.501-7.507-30.314-2.24-40.786-8.694-10.428-6.426-12.245-25.647-23.532-30.937-11.202-5.25-29.991 4.3-41.937.26-11.808-3.993-18.754-22.263-31.19-24.985-9.965-2.181-22.115 6.219-33.199 8.679 3.138 4.68 7.937 12.525 12.482 22.736 7.236 16.256-4.974 34.573-22.767 34.573h-250.942c-3.716 4.098-4.887 10.249-6.178 16.516l16.515 16.515z" fill="#f5c89d"/><path d="m421.161 239.484h-404.645c-9.121 0-16.516 7.394-16.516 16.516v16.516c0 68.961 35.235 129.668 88.673 165.162l26.94 9.477v23.554l16.516 9.903h198.237l.186-32.066c63.631-32.981 107.125-99.412 107.125-176.031v-16.515c0-9.122-7.394-16.516-16.516-16.516z" fill="#eceaec"/><circle cx="144.516" cy="177.549" fill="#ff7e92" r="20.645"/><circle cx="268.387" cy="218.839" fill="#ff5f7a" r="20.645"/><circle cx="346.839" cy="189.936" fill="#ff5f7a" r="16.516"/><circle cx="217.176" cy="150.887" fill="#ff7e92" r="16.516"/><path d="m495.484 239.484h-74.323v16.516c0 76.618-43.495 143.049-107.125 176.031-7.133 3.697-15.053 5.647-23.087 5.647h-202.275c6.027 3.996 12.414 7.765 18.882 11.091 6.998 3.6 14.787 5.425 22.657 5.425h191.852c0 9.122-7.395 16.516-16.516 16.516h-189.936c0 9.121 7.395 16.516 16.516 16.516h247.742c9.122 0 16.516-7.395 16.516-16.516v-18.793c2.91-.89 5.769-1.96 8.487-3.369 63.631-32.982 107.126-99.413 107.126-176.032v-16.516c0-9.121-7.395-16.516-16.516-16.516z" fill="#dbd8db"/></g></svg>