<svg xmlns="http://www.w3.org/2000/svg" version="1.1" xmlns:xlink="http://www.w3.org/1999/xlink" width="512" height="512" x="0" y="0" viewBox="0 0 32 32" style="enable-background:new 0 0 512 512" xml:space="preserve" class=""><g transform="matrix(1.06,0,0,1.06,-0.9600000572204586,-0.9600000000000009)"><g fill="#ff6174"><path d="M31 7.28v3.49l-13.13 4.1c-1.22.38-2.52.38-3.74 0L1 10.77V7.28c0-.98.8-1.78 1.78-1.78h26.44c.98 0 1.78.8 1.78 1.78z" fill="#ff6174" opacity="1" data-original="#ff6174" class=""></path><path d="M31 12.86v11.86c0 .98-.8 1.78-1.78 1.78H2.78C1.8 26.5 1 25.7 1 24.72V12.86l12.53 3.92c.81.25 1.64.38 2.47.38s1.66-.13 2.47-.38z" fill="#ff6174" opacity="1" data-original="#ff6174" class=""></path></g></g></svg>