<svg id="Layer_1" enable-background="new 0 0 512 512" height="512" viewBox="0 0 512 512" width="512" xmlns="http://www.w3.org/2000/svg"><g><g><path d="m254.413 103.955c1.075-2.141 1.063-4.667-.033-6.798-1.097-2.128-3.145-3.609-5.512-3.978-.749-.117-18.644-2.801-44.514 2.598-23.654 4.937-58.921 17.892-92.604 51.575-2.199 2.199-2.848 5.529-1.578 8.367.385.86.914 1.62 1.553 2.258 1.469 1.469 3.513 2.288 5.677 2.167.08-.003 8.119-.237 21.399 4.857 12.375 4.747 31.927 15.205 54.793 38.071 1.703 1.703 4.119 2.485 6.497 2.1 2.377-.383 4.426-1.885 5.507-4.037z" fill="#b9cfdf"/><path d="m364.673 400.279c-2.199 2.199-5.522 2.807-8.364 1.534-.856-.375-1.605-.898-2.241-1.534-1.478-1.478-2.305-3.549-2.185-5.72 0-.014.205-7.416-4.277-19.747-.184-.523-.389-1.053-.594-1.598-4.758-12.38-15.215-31.943-38.086-54.815-1.704-1.704-2.489-4.115-2.1-6.497.382-2.376 1.888-4.419 4.037-5.508l87.308-43.856 9.877-4.956c2.135-1.075 4.659-1.068 6.794.035 2.128 1.096 3.606 3.139 3.981 5.508.113.75 2.8 18.651-2.588 44.527-4.928 23.665-17.88 58.945-51.562 92.627z" fill="#b9cfdf"/><path d="m416.235 307.654c-4.928 23.664-17.88 58.943-51.562 92.625-2.199 2.199-5.522 2.807-8.364 1.534-.856-.375-1.605-.898-2.241-1.534-1.478-1.478-2.305-3.549-2.185-5.72 0-.014.205-7.416-4.277-19.747 30.62-32.374 42.696-65.702 47.419-88.369 1.895-9.092 2.786-17.194 3.146-23.904l9.877-4.956c2.135-1.075 4.659-1.068 6.794.035 2.128 1.096 3.606 3.139 3.981 5.508.113.75 2.799 18.651-2.588 44.528z" fill="#90abbd"/></g><path d="m198.555 495.513-14.289 14.289c-2.934 2.934-7.678 2.927-10.605 0l-14.289-14.289c-1.845-1.845-3.62-3.747-5.303-5.698-27.736-31.978-33.993-76.795-17.074-114.811-40.335 17.951-88.319 9.813-120.509-22.377l-14.288-14.289c-2.927-2.927-2.934-7.671 0-10.605l14.289-14.289c28.181-28.181 69.463-38.525 107.72-26.994 19.252 5.805 37.832-3.146 43.219-20.807l57.734 57.72 21.21 21.21c-17.675 5.387-26.626 23.968-20.821 43.219 11.531 38.258 1.187 79.54-26.994 107.721z" fill="#b9cfdf"/><path d="m198.555 495.513-14.289 14.289c-2.934 2.934-7.678 2.927-10.605 0l-14.289-14.289c-1.845-1.845-3.62-3.747-5.303-5.698 2.856 1.626 6.547 1.216 8.986-1.223l14.289-14.289c28.181-28.181 38.525-69.464 26.994-107.72-5.805-19.252 3.146-37.832 20.821-43.22l21.21 21.21c-17.675 5.387-26.626 23.968-20.821 43.219 11.532 38.258 1.188 79.54-26.993 107.721z" fill="#90abbd"/><path d="m455.75 238.317c-50.367 50.367-141.663 85.584-209.38 106.256-32.544 8.958-60.626-3.302-73.847-26.378-8.152-14.218-10.655-32.544-5.097-52.552 20.666-67.71 55.868-158.978 106.192-209.331 20.086-20.086 43.863-34.997 70.708-44.379 2.722-.954 5.748-.262 7.784 1.775l146.18 146.181c2.036 2.036 2.729 5.062 1.775 7.784-9.382 26.845-24.293 50.622-44.315 70.644z" fill="#eef0f5"/><path d="m494.727 172.488c-9.707 2.312-19.471 3.493-29.15 3.57-34.106.311-67.045-12.931-91.875-37.761-31.872-31.872-44.655-77.106-34.191-121.026.587-2.482 2.404-4.497 4.829-5.338 57.316-19.987 113.82-10.188 138.537-4.023 7.558 1.888 12.146 3.436 12.875 3.684 2.185.757 3.896 2.467 4.652 4.652 1.061 3.097 25.77 76.562-.339 151.413-.842 2.425-2.857 4.242-5.338 4.829z" fill="#b9cfdf"/><g fill="#b9cfdf"><path d="m340.354 158.982c.104.03 10.516 3.304 13.457 13.457.365 1.258 1.029 2.348 1.895 3.212 1.87 1.87 4.674 2.692 7.394 1.905 3.978-1.152 6.269-5.311 5.117-9.29-5.259-18.162-22.941-23.474-23.691-23.691-3.978-1.152-8.137 1.14-9.289 5.118-1.152 3.977 1.139 8.136 5.117 9.289z"/><path d="m289.681 155.289c-.789 2.724.023 5.529 1.891 7.396.86.86 1.944 1.521 3.197 1.884.429.134 10.586 3.365 13.514 13.474 1.153 3.978 5.31 6.27 9.289 5.117 3.978-1.152 6.269-5.311 5.116-9.289-5.26-18.162-22.939-23.474-23.691-23.691-3.976-1.151-8.164 1.131-9.316 5.109z"/><path d="m329.602 195.211c-.789 2.724.023 5.529 1.891 7.396.86.86 1.944 1.521 3.197 1.884.429.134 10.587 3.365 13.514 13.474 1.152 3.978 5.31 6.27 9.289 5.116 3.978-1.152 6.269-5.311 5.116-9.289-5.259-18.161-22.939-23.474-23.691-23.691-3.976-1.151-8.164 1.132-9.316 5.11z"/><path d="m300.432 119.061c.104.03 10.517 3.305 13.457 13.457.365 1.258 1.029 2.348 1.895 3.212 1.87 1.87 4.674 2.692 7.394 1.905 3.978-1.152 6.269-5.311 5.117-9.29-5.259-18.162-22.94-23.473-23.691-23.691-3.978-1.152-8.137 1.14-9.289 5.118-1.152 3.976 1.14 8.136 5.117 9.289z"/><path d="m380.275 198.904c.105.03 10.517 3.304 13.457 13.457.365 1.258 1.029 2.348 1.895 3.212 1.87 1.87 4.674 2.692 7.394 1.905 3.978-1.152 6.269-5.311 5.117-9.29-5.259-18.162-22.94-23.473-23.691-23.691-3.978-1.152-8.137 1.14-9.289 5.118-1.152 3.977 1.14 8.135 5.117 9.289z"/><path d="m315.974 219.716c-5.26-18.161-22.941-23.474-23.691-23.691-3.978-1.152-8.137 1.139-9.289 5.116-1.153 3.979 1.138 8.136 5.116 9.29.104.03 10.516 3.308 13.457 13.457.365 1.258 1.03 2.347 1.895 3.212 1.87 1.87 4.674 2.693 7.395 1.904 3.978-1.152 6.269-5.311 5.117-9.288z"/><path d="m264.45 271.239c-5.259-18.161-22.94-23.473-23.691-23.691-3.978-1.152-8.166 1.13-9.318 5.108-.789 2.724.023 5.529 1.891 7.396.86.86 1.944 1.521 3.197 1.884.43.133 10.587 3.365 13.514 13.474 1.153 3.979 5.311 6.27 9.289 5.116 3.979-1.15 6.269-5.308 5.118-9.287z"/><path d="m265.33 234.61c3.978-1.152 6.268-5.311 5.116-9.289-5.26-18.162-22.94-23.474-23.691-23.691-3.978-1.152-8.166 1.13-9.318 5.108-.789 2.724.023 5.529 1.891 7.396.86.86 1.944 1.521 3.197 1.884.43.133 10.586 3.364 13.514 13.474 1.154 3.98 5.312 6.271 9.291 5.118z"/><path d="m310.368 265.243c-5.26-18.161-22.941-23.474-23.691-23.691-3.978-1.152-8.137 1.139-9.289 5.117-.788 2.721.034 5.524 1.904 7.395.865.865 1.954 1.53 3.212 1.895.105.03 10.516 3.308 13.457 13.457 1.152 3.979 5.31 6.27 9.289 5.117 3.98-1.154 6.271-5.313 5.118-9.29z"/><path d="m263.542 187.179c1.87 1.87 4.674 2.693 7.395 1.904 3.978-1.152 6.269-5.311 5.116-9.289-5.26-18.161-22.94-23.473-23.691-23.691-3.978-1.152-8.137 1.139-9.289 5.117-1.153 3.979 1.138 8.136 5.116 9.29.104.03 10.517 3.309 13.457 13.457.365 1.257 1.03 2.347 1.896 3.212z"/><path d="m355.895 259.637c-5.26-18.161-22.94-23.473-23.691-23.691-3.978-1.152-8.137 1.139-9.289 5.117-1.153 3.979 1.138 8.136 5.116 9.29.104.03 10.516 3.308 13.457 13.457.365 1.258 1.03 2.347 1.895 3.212 1.87 1.87 4.674 2.693 7.395 1.904 3.979-1.152 6.27-5.311 5.117-9.289z"/></g><circle cx="425.829" cy="72.823" fill="#415e6f" r="14.998"/><path d="m455.75 238.317c-50.367 50.367-141.663 85.584-209.38 106.256-32.544 8.958-60.626-3.302-73.847-26.378 14.232 8.152 32.586 10.683 52.637 5.168 67.717-20.673 159.013-55.889 209.38-106.256 20.022-20.023 34.933-43.799 44.315-70.644.014-.056.042-.113.056-.17.502-1.449.983-2.892 1.449-4.334l17.93 17.93c2.036 2.036 2.729 5.062 1.775 7.784-9.382 26.845-24.293 50.622-44.315 70.644z" fill="#dae1ea"/><path d="m494.727 172.488c-9.707 2.312-19.471 3.493-29.15 3.57 5.239-9.382 9.672-19.259 13.278-29.595.014-.056.042-.113.056-.17 19.916-57.261 10.124-113.687 3.966-138.383 7.558 1.888 12.146 3.436 12.875 3.684 2.185.757 3.896 2.467 4.652 4.652 1.061 3.097 25.77 76.562-.339 151.413-.842 2.425-2.857 4.242-5.338 4.829z" fill="#90abbd"/></g></svg>