<svg id="Layer_1" enable-background="new 0 0 3000 3000" height="512" viewBox="0 0 3000 3000" width="512" xmlns="http://www.w3.org/2000/svg"><path d="m2611 1526.4c0 755.2-453.5 1367.4-1013 1367.4-266.6 0-509.1-139-690-366.2-30.7-38.5-59.5-79.6-86.5-122.9-147.6-237.6-236.5-543.9-236.5-878.3 0-755.2 453.5-1367.4 1013-1367.4 112.2 0 220.2 24.6 321.1 70.2 69.7 31.4 136.1 72.8 198.2 123 295.7 238.7 493.7 675.2 493.7 1174.2z" fill="#ffb67a"/><ellipse cx="1251.5" cy="926" fill="#fca05e" rx="30.5" ry="62"/><ellipse cx="849.5" cy="1091" fill="#fca05e" rx="15.5" ry="22"/><ellipse cx="1015.5" cy="1140" fill="#fca05e" rx="15.5" ry="22"/><path d="m2611 1526.4c0 755.2-453.5 1367.4-1013 1367.4-266.6 0-509.1-139-690-366.2-30.7-38.5-59.5-79.6-86.5-122.9 1709.2 569 1364.8-1675.3 1295.7-2052.6 295.8 238.8 493.8 675.3 493.8 1174.3z" fill="#fea35d" opacity=".66"/><ellipse cx="943.5" cy="915" fill="#fca05e" rx="15.5" ry="22"/><path d="m826 1501.7c-137.8-126.6-10.6-734.5 302-1016.6 34.1-30.8 277.8-244.8 425-134 126.4 95.2 101.9 369.8 100 388.7-49.6 499.2-667.1 908.9-827 761.9z" fill="#ffc89e" opacity=".55"/><ellipse cx="1265" cy="677.5" fill="#ffd5be" opacity=".33" rx="260.9" ry="117" transform="matrix(.631 -.776 .776 .631 -58.755 1231.489)"/><g fill="#fca05e"><ellipse cx="1818.5" cy="515" rx="30.5" ry="62"/><ellipse cx="927.5" cy="1864" rx="30.5" ry="62"/><ellipse cx="1936.5" cy="2384" rx="30.5" ry="62"/><ellipse cx="2251.5" cy="1505" rx="30.5" ry="62"/><ellipse cx="1079.5" cy="1991" rx="15.5" ry="22"/><ellipse cx="949.5" cy="2087" rx="15.5" ry="22"/><ellipse cx="1997.5" cy="599" rx="15.5" ry="22"/><ellipse cx="1651.5" cy="1369" rx="15.5" ry="22"/><ellipse cx="1787.5" cy="1224" rx="15.5" ry="22"/><ellipse cx="1793.5" cy="1412" rx="15.5" ry="22"/><ellipse cx="1809.5" cy="2359" rx="15.5" ry="22"/><ellipse cx="2059.5" cy="2480" rx="15.5" ry="22"/><ellipse cx="2400.5" cy="1595" rx="15.5" ry="22"/></g></svg>