<svg id="Capa_1" enable-background="new 0 0 510.012 510.012" height="512" viewBox="0 0 510.012 510.012" width="512" xmlns="http://www.w3.org/2000/svg"><g><path d="m287.262 15.142h-32.25v32.25c0 15.088 3.827 29.299 10.563 41.712l79.438 26.921 5.35-34.982-5.35-44.161c-15.445-13.529-35.657-21.74-57.751-21.74z" fill="#4beb8b"/><path d="m351.94 43.654c-2.185-2.382-4.497-4.644-6.929-6.773v38.261l14.166-7.667z" fill="#00cbb0"/><path d="m358.387 135.642-13.375-19.617v-40.883c0-41.356 33.645-75 75-75v30c-24.814 0-45 20.187-45 45v59.293z" fill="#c6715a"/><path d="m324.41 104.465.004.002c-83.052-39.197-181.286-2.257-219.287 78.108-12.737 26.661-33.12 50.678-58.947 69.454-34.248 24.907-50.69 56.587-45.11 86.917 6.141 33.363 68.826 72.057 140.598 88.281l203.345-295.528 10-7.308-10-8.367c-6.584-4.324-13.458-8.189-20.603-11.559z" fill="#ffb44b"/><path d="m370.746 136.783c-7.939-7.789-16.55-14.725-25.734-20.759v76.873l35.1-46.928z" fill="#ff8656"/><path d="m179.722 296.831c.023 29.537-7.994 60.002-23.184 88.1-20.139 37.252-21.291 72.924-3.162 97.871 29.756 40.943 142.403 27.333 191.635 11.669l10-173.549-10-189.223c-92.26 0-165.365 75.091-165.289 165.132z" fill="#ffe271"/><path d="m345.012 131.699v362.771c42.291-13.465 78.767-34.883 105.892-62.251 35.475-35.795 55.255-81.06 58.786-134.535 6.027-91.293-73.186-165.829-164.678-165.985z" fill="#ffb44b"/><g><g><path d="m345.012 240.142h30v30h-30z" fill="#ff8656"/></g></g><g><g><path d="m405.012 240.142h30v30h-30z" fill="#ff8656"/></g></g><g><g><path d="m375.012 300.142h30v30h-30z" fill="#ff8656"/></g></g><path d="m247.029 451.646c-10.626 0-20.392-3.533-27.69-10.832-17.843-17.842-13.184-50.455 10.607-74.246 23.79-23.789 56.403-28.449 74.246-10.606 17.843 17.842 13.185 50.455-10.606 74.246-14.061 14.059-31.204 21.438-46.557 21.438z" fill="#ffb44b"/></g></svg>