<svg id="Layer_1" enable-background="new 0 0 512 512" viewBox="0 0 512 512" xmlns="http://www.w3.org/2000/svg"><g><path d="m84 370.4c-3.5-2.4-9.6-3.8-12.6-6.7-3.7-3.6-4.1-9-3.8-14.9 1.7.5 4.2 1.5 7.2 3.7 1.2 7.7 5.7 14 9.2 17.9z" fill="#44854d"/><path d="m74.9 352.5c-3.1-2.2-5.5-3.2-7.2-3.7.1-3.1 1-6.3 2.6-9 0 0 1.7 1.3 5 3.5-.8 3.3-.9 6.3-.4 9.2z" fill="#91c17f"/><path d="m76.6 339.3c-.6 1.4-1 2.7-1.3 4.1-3.3-2.2-5-3.5-5-3.5l2.2-3.6c1.2.9 2.6 1.9 4.1 3z" fill="#e7eda9"/><path d="m437.8 389.4c-10 11.2-27.9 19.1-42.4 24.7-21.8 8.8-43.1 14.7-63.8 18.2-8.9 1.5-17.7 2.6-26.3 3.3-1.4.1-2.8.2-4.2.3-.2 1.3-.5 2.6-.8 4-2.2 10.3-6.5 22.6-13.5 25.3-1.1.4-2.2.3-3.4-.3-5.2-2.8-10-14.1-13.5-24.7-.4-1.3-.9-2.6-1.2-3.9-1.4-.1-2.9-.1-4.3-.2-24.3-1.4-47.1-5.7-68.1-11.7-1.3-.4-2.6-.7-3.9-1.1-.4 1.1-.9 2.3-1.4 3.5-4.4 10-11.7 22.9-19.8 24.1-1.2.2-2.2-.2-3.2-1-5.4-4.7-7.6-21.5-8.3-34-.1-1.5-.2-2.9-.2-4.2-1.4-.6-2.8-1.1-4.1-1.7-29.8-12.6-54.1-27.4-71.3-39.5-3.5-3.9-8-10.2-9.2-17.8-.4-2.9-.4-5.9.4-9.2.3-1.3.8-2.7 1.3-4.1.5-1.2 1.1-2.4 1.8-3.7.3-.6.7-1.2 1.1-1.8.7-1 1.6-2.4 2.8-4.2 1.9-3 4.5-7.1 7.5-12.1 29.2-47.7 104.8-175.2 128.2-214.8 4.6-7.7 10.9-14.2 18.3-18.9 5.9-3.7 12.6-6.3 19.6-7.3 6.1-1 12.7-.9 19.8.8 10.3 2.5 17.5 5 22.6 7.1.6.6 1.3 1.2 1.9 1.8.1.1.3.3.4.4.2.2.4.4.6.6s.4.4.6.6c.1 0 .1.1.1.1.3.4.6.7 1 1.1.4.5.8.9 1.2 1.4 1 1.2 1.9 2.5 2.8 3.8.2.3.4.7.7 1 .2.4.5.7.7 1.1.1.2.2.3.3.5s.2.3.3.5c.2.3.4.6.5.9.3.5.5 1 .8 1.5l112.7 223.2 8.3 16.5 3.6 7.1 5.4 10.7 1.3 2.6c4.9 9.7 3.4 21.5-3.7 29.5z" fill="#ea6077"/><path d="m290.5 78.6c-1-.6-2-1.2-3.1-1.8 1.1.6 2.1 1.2 3.1 1.8z" fill="#cd3858"/><path d="m422.9 323c-9.4 9.2-21.8 18.6-33.6 25.4-5.6-26.7-50.1-116.3-82.3-174.5-10.4-18.9-20.5-36.4-29.1-50.4-17.7-26.5-20.1-37.5-41.6-39.6 3.7-8 12.6-6.3 19.6-7.3 12.1-2.9 37.4 5.9 46.3 9.7 9.2.7 113.9 227.6 120.7 236.7z" fill="#cd3858"/><path d="m440.2 357.2c-.5 7.7-3.6 28.7-22 29.2-22.5.7-30.6 14.9-43 26.4-6.5 6-18.9 10.8-32.8 12.7 12.8-8.9 33.6-25.8 43-46.5 15.3-7.1 28-15.2 38.1-23 4.1-3.1 7.8-6.3 11.3-9.4z" fill="#2a723a"/><path d="m434.8 346.5c-3.5 3.1-7.3 6.3-11.3 9.4-10.1 7.8-22.8 15.9-38.1 23-.2.5-.4 1-.7 1.4-.1.2-.2.5-.3.7s-.2.5-.4.7c-.2.4-.5.9-.7 1.3-.3.5-.6 1-.9 1.6-.2.4-.5.8-.7 1.2 0 .1-.1.1-.1.2-.1.2-.2.4-.4.6-.3.4-.5.8-.8 1.3-.2.3-.3.5-.5.8-.4.6-.8 1.2-1.2 1.9-.2.3-.4.5-.5.8-.4.6-.8 1.1-1.2 1.7-.2.3-.5.6-.7 1-.4.5-.8 1.1-1.3 1.6-.3.4-.6.8-.9 1.2-.1.1-.2.3-.3.4-.4.5-.9 1.1-1.3 1.6-1 1.1-1.9 2.2-2.9 3.3-.5.5-.9 1-1.4 1.5-.1.1-.1.1-.1.1-.5.5-.9.9-1.3 1.4-.5.5-1 1-1.5 1.5s-1 1-1.5 1.5c-1.8 1.8-3.7 3.5-5.6 5.1-.4.4-.8.7-1.2 1.1-.7.6-1.5 1.3-2.2 1.9-1.2 1-2.3 1.9-3.4 2.8-.6.4-1.1.9-1.7 1.3-.8.6-1.5 1.2-2.3 1.7-.7.5-1.3 1-2 1.4-.3.2-.6.5-1 .7-.7.5-1.3 1-2 1.4-2.3 1.6-4.4 3-6.1 4.1-.4.3-.8.5-1.2.8-.6.4-1.1.7-1.5.9-.1.1-.2.1-.3.2s-.2.1-.3.2-.2.1-.2.1c-.1.1-.2.1-.3.2s-.2.1-.3.2c-.1 0-.1.1-.1.1s-.1 0-.1.1c-.2.1-.3.2-.4.2-8.9 1.5-17.7 2.6-26.3 3.3-1.4.1-2.8.2-4.2.3-.2 1.3-.5 2.6-.8 4-2.2 10.3-6.5 22.6-13.5 25.3-1.1.4-2.2.3-3.4-.3-5.2-2.8-10-14.1-13.5-24.7-.4-1.3-.9-2.6-1.2-3.9-1.4-.1-2.9-.1-4.3-.2-24.3-1.4-47.1-5.7-68.1-11.7-1.3-.4-2.6-.7-3.9-1.1-.4 1.1-.9 2.3-1.4 3.5-4.4 10-11.7 22.9-19.8 24.1-1.2.2-2.2-.2-3.2-1-5.4-4.7-7.6-21.5-8.3-34-.1-1.5-.2-2.9-.2-4.2-1.4-.6-2.8-1.1-4.1-1.7-29.8-12.6-54.1-27.4-71.3-39.5-3.5-3.9-8-10.2-9.2-17.8-.4-2.9-.4-5.9.4-9.2.3-1.3.8-2.7 1.3-4.1.5-1.2 1.1-2.4 1.8-3.7.3-.6.7-1.2 1.1-1.8.7-1 1.6-2.4 2.8-4.2l120.7 48.8 149.6-2 37.6-19.6 40.9-17.9z" fill="#5f9c45"/><path d="m437.8 389.4c-10 11.2-27.9 19.1-42.4 24.7-21.8 8.8-43.1 14.7-63.8 18.2.2-.1 4.5-2.6 10.7-6.9 14-1.9 26.4-6.7 32.8-12.7 12.4-11.5 20.5-25.7 43-26.4 18.4-.5 21.5-21.6 22-29.2l1.3 2.6c5 9.9 3.5 21.7-3.6 29.7z" fill="#1c5128"/><path d="m342.4 425.5c-2.3 1.6-4.4 3-6.1 4.1-.4.3-.8.5-1.2.8-.6.4-1.1.7-1.5.9-.1.1-.2.1-.3.2-.3.2-.5.3-.8.5-.1.1-.2.1-.3.2-.3.2-.5.3-.6.3-8.9 1.5-17.7 2.6-26.3 3.3-1.4.1-2.8.2-4.2.3-.2 1.3-.5 2.6-.8 4-2.2 10.3-6.5 22.6-13.5 25.3-1.1.4-2.2.3-3.4-.3-5.2-2.8-10-14.1-13.5-24.7-.4-1.3-.9-2.6-1.2-3.9-1.4-.1-2.9-.1-4.3-.2-24.3-1.4-47.1-5.7-68.1-11.7-1.3-.4-2.6-.7-3.9-1.1-.4 1.1-.9 2.3-1.4 3.5-4.4 10-11.7 22.9-19.8 24.1-1.2.2-2.2-.2-3.2-1-5.4-4.7-7.6-21.5-8.3-34-.1-1.5-.2-2.9-.2-4.2-1.4-.6-2.8-1.1-4.1-1.7-29.8-12.6-54.1-27.4-71.3-39.5-3.5-3.9-8-10.2-9.2-17.8 2.6 1.9 5.6 4.7 8.9 8.7 10.6 13.1 17.1 3.8 34.2 16.2s10.8 19.5 36.9 21.8 30.4-.8 46.8 9.5c16.4 10.4 37.2 16 45.6 15.4s30.7-10.4 55.9-1.7c12.2 3.9 26.3 4.5 39.2 2.7z" fill="#256131"/><path d="m237.9 396.8h-.1c-90.6-10.1-146.6-42.9-162.9-53.7.3-1.3 1.1-2.5 1.7-3.8.5-1.2 1.1-2.4 1.8-3.7z" fill="#e7eda9"/><path d="m192.4 423.2c-.4 1.1-.9 2.3-1.4 3.5-4.4 10-11.7 22.9-19.8 24.1-1.2.2-2.2-.2-3.2-1-5.4-4.7-7.6-21.5-8.3-34-.1-1.5-.2-2.9-.2-4.2z" fill="#2a723a"/><path d="m301.2 436c-.2 1.3-.5 2.6-.8 4-2.2 10.3-6.5 22.6-13.5 25.3-1.1.4-2.2.3-3.4-.3-5.2-2.8-10-14.1-13.5-24.7-.4-1.3-.9-2.6-1.2-3.9z" fill="#2a723a"/><path d="m390.3 357.3c.1 7.5-1.8 14.8-4.9 21.6-34.9 18.4-99.8 26-147.5 17.8-80.3-10.1-134.7-38-163.9-58.6 4-8 10.6-11.6 15.8-20.6 57 45.5 218.6 84.4 299.5 30.9.6 3 1 5.9 1 8.9z" fill="#d8e299"/><path d="m434.8 346.5c-3.5 3.1-7.3 6.3-11.3 9.4-10.1 7.8-22.8 15.9-38.1 23 4.3-9.5 6.3-19.8 4-30.5 6.1-3.6 12-7.5 17.7-11.8 6-4.5 11.3-9.2 15.9-13.6z" fill="#c1d36e"/><path d="m289.3 374.7.3-.1c-.1.1-.2.1-.3.1z" fill="#dd3b5d"/><g fill="#cd3858"><ellipse cx="289.7" cy="155.9" rx="19.4" ry="34.5" transform="matrix(.944 -.329 .329 .944 -35.188 104.056)"/><ellipse cx="251.9" cy="120.1" rx="11.3" ry="17" transform="matrix(.944 -.329 .329 .944 -25.505 89.62)"/><ellipse cx="312.9" cy="181.5" rx="8.2" ry="9.8" transform="matrix(.944 -.329 .329 .944 -42.317 113.131)"/><ellipse cx="259.5" cy="145.3" rx="3.4" ry="4" transform="matrix(.944 -.329 .329 .944 -33.381 93.528)"/><ellipse cx="339.9" cy="246.6" rx="18.2" ry="26.8" transform="matrix(.944 -.329 .329 .944 -62.231 125.656)"/><ellipse cx="280.5" cy="210.4" rx="10.1" ry="14.9" transform="matrix(.944 -.329 .329 .944 -53.638 104.089)"/><ellipse cx="319.2" cy="277.7" rx="10.1" ry="14.9" transform="matrix(.944 -.329 .329 .944 -73.621 120.558)"/><ellipse cx="345.2" cy="299.8" rx="6.5" ry="9.6" transform="matrix(.944 -.329 .329 .944 -79.449 130.344)"/><ellipse cx="307.1" cy="216.5" rx="6.4" ry="9.5" transform="matrix(.944 -.329 .329 .944 -54.165 113.163)"/><ellipse cx="356" cy="281.6" rx="3.4" ry="4" transform="matrix(.944 -.329 .329 .944 -72.88 132.896)"/><ellipse cx="297.6" cy="232.3" rx="3.4" ry="4" transform="matrix(.944 -.329 .329 .944 -59.88 110.926)"/></g><path d="m236.3 83.9c-7.4 4.7-13.8 11.1-18.3 18.9-23.4 39.6-99 167.2-128.2 214.7-1.5-1.1-3-2.2-4.3-3.2l10.5-17.5 15.9-26.6 8.4-14 25.9-43.3 28.2-47.1 45.4-75.9c.3-.4 6.7-6 16.5-6z" fill="#f7b4c7"/><path d="m298.3 84.5c-16.7-7.7-44.5-13.4-62-.5-9.8-.1-16.2 5.5-16.6 5.9-.6-3.9 4-8.8 8.4-11.5 20.2-12.6 52.8-10.6 70.2 6.1z" fill="#f38aa6"/><path d="m445.1 358-60.9-120.5-70.5-139.4c-11.9-23.5-37.8-35.7-63.2-29.8-16 3.7-29.5 11.4-34.3 19.4l-83.9 140.4-65.6 109.7c-5.9 9.9-3.4 22.5 5.8 29.3 15.8 11.8 44.8 31.1 82.9 46.9.5 12.1 2.5 32.5 9.8 38.8 1.6 1.4 3.4 2.1 5.3 2.1.4 0 .8 0 1.1-.1 10.6-1.5 18.9-17 23.2-27 23.7 6.8 47.3 10.8 70.7 12.2 3.6 11.2 9.1 24.8 16 28.5 1.3.7 2.6 1 4 1 .9 0 1.9-.2 2.8-.5 9.4-3.6 14-18.6 16.2-29.3 31.3-2.3 62.2-9.5 92.4-21.8 14.9-5.8 33.3-14 43.9-25.8 8.3-9.2 10-22.9 4.3-34.1zm-7.3 31.4c-10 11.2-27.9 19.1-42.4 24.7-31.2 12.6-61.4 19.3-90.1 21.5-1.4.1-2.8.2-4.2.3-.2 1.3-.5 2.6-.8 4-2.2 10.3-6.5 22.6-13.5 25.3-1.1.4-2.2.3-3.4-.3-5.2-2.8-10-14.1-13.5-24.7-.4-1.3-.9-2.6-1.2-3.9-1.4-.1-2.9-.1-4.3-.2-24.3-1.4-47.1-5.7-68.1-11.7-1.3-.4-2.6-.7-3.9-1.1-.4 1.1-.9 2.3-1.4 3.5-4.4 10-11.7 22.9-19.8 24.1-1.2.2-2.2-.2-3.2-1-5.4-4.7-7.6-21.5-8.3-34-.1-1.5-.2-2.9-.2-4.2-1.4-.6-2.8-1.1-4.1-1.7-35.4-15-63.1-33.2-80.4-46-7.5-5.6-9.6-15.9-4.8-24l62.4-104.3 87.1-145.7c4.2-7.1 17-14.1 31.7-17.6 4-.9 7.9-1.4 11.8-1.4 19.4 0 37.7 10.9 46.8 29l70.8 140 60.6 119.9c5 9.7 3.5 21.5-3.6 29.5z" fill="#4e1827"/><path d="m85.5 314.3-8 13.3-3.7 6.2-1.4 2.4c1.3 1 2.1 3.7 3.6 4.7.5-1.2 1.8-4.1 2.5-5.3.3-.6.7-1.2 1.1-1.8.7-1 1.6-2.4 2.8-4.2 1.9-3 4.5-7.1 7.5-12.1-1.6-1.1-3-2.2-4.4-3.2z" fill="#e7eda9"/><g><ellipse cx="160.2" cy="316" fill="#f04a5d" rx="11.6" ry="14.7" transform="matrix(.228 -.974 .974 .228 -184.036 399.781)"/><ellipse cx="271.1" cy="331.7" fill="#f04a5d" rx="11.6" ry="14.7" transform="matrix(.228 -.974 .974 .228 -113.709 519.884)"/><path d="m181.5 286.7-.8-8.5-3.2 7.9c-3.2 7.7-10.3 13-18.6 13.8l-8.5.8 7.9 3.2c7.7 3.2 13 10.3 13.8 18.6l.8 8.5 3.2-7.9c3.2-7.7 10.3-13 18.6-13.8l8.5-.8-7.9-3.2c-7.7-3.2-13-10.4-13.8-18.6z" fill="#fdde4f"/><g><path d="m171.6 339.3-1.6-16.7c-.7-7.5-5.5-14-12.5-16.9l-15.5-6.4 16.7-1.6c7.5-.7 14-5.5 16.9-12.5l6.4-15.5 1.6 16.7c.7 7.5 5.5 14 12.5 16.9l15.5 6.4-16.7 1.6c-7.5.7-14 5.5-16.9 12.5zm-12.8-37.4.3.1c8.4 3.5 14.2 11.2 15 20.3v.3l.1-.3c3.5-8.4 11.2-14.2 20.3-15h.3l-.3-.1c-8.4-3.5-14.2-11.2-15-20.3v-.3l-.1.3c-3.5 8.4-11.2 14.2-20.3 15z" fill="#4e1827"/></g><path d="m279.5 298.1-.8-8.5-3.2 7.9c-3.2 7.7-10.3 13-18.6 13.8l-8.5.8 7.9 3.2c7.7 3.2 13 10.3 13.8 18.6l.8 8.5 3.2-7.9c3.2-7.7 10.3-13 18.6-13.8l8.5-.8-7.9-3.2c-7.7-3.2-13-10.3-13.8-18.6z" fill="#fdde4f"/><g><path d="m269.6 350.7-1.6-16.7c-.7-7.5-5.5-14-12.5-16.9l-15.5-6.4 16.7-1.6c7.5-.7 14-5.5 16.9-12.5l6.4-15.5 1.6 16.7c.7 7.5 5.5 14 12.5 16.9l15.5 6.4-16.7 1.6c-7.5.7-14 5.5-16.9 12.5zm-12.8-37.4.3.1c8.4 3.5 14.2 11.2 15 20.3v.3l.1-.3c3.5-8.4 11.2-14.2 20.3-15h.3l-.3-.1c-8.4-3.5-14.2-11.2-15-20.3v-.3l-.1.3c-3.5 8.4-11.2 14.2-20.3 15z" fill="#4e1827"/></g><ellipse cx="219.6" cy="338.6" fill="#4e1827" rx="7.1" ry="12.9" transform="matrix(.944 -.329 .329 .944 -99.229 91.169)"/><g><path d="m206.8 75.6c-.7 0-1.4-.4-1.8-1l-12.7-22.1c-.6-1-.2-2.2.8-2.8s2.2-.2 2.8.8l12.7 22.1c.6 1 .2 2.2-.8 2.8-.3.1-.6.2-1 .2z" fill="#4e1827"/></g><g><path d="m194.2 85.4c-.4 0-.7-.1-1-.3l-22.2-13.3c-1-.6-1.3-1.8-.7-2.8s1.8-1.3 2.8-.7l22.1 13.3c1 .6 1.3 1.8.7 2.8-.4.7-1.1 1-1.7 1z" fill="#4e1827"/></g><g><path d="m225.8 67.9c-1 0-1.9-.8-2-1.8l-2.8-23.4c-.1-1.1.7-2.1 1.8-2.2s2.1.7 2.2 1.8l2.7 23.4c.1 1.1-.7 2.1-1.8 2.2z" fill="#4e1827"/></g></g></g></svg>