<svg id="_21_Salmon" enable-background="new 0 0 512 512" viewBox="0 0 512 512" xmlns="http://www.w3.org/2000/svg" xmlns:xlink="http://www.w3.org/1999/xlink"><linearGradient id="SVGID_1_" gradientTransform="matrix(1 0 0 -1 0 514)" gradientUnits="userSpaceOnUse" x1="164.792" x2="369.778" y1="159.663" y2="159.663"><stop offset="0" stop-color="#7a6d79"/><stop offset=".2546" stop-color="#6c616c"/><stop offset=".6831" stop-color="#5b535b"/><stop offset="1" stop-color="#554e56"/></linearGradient><linearGradient id="lg1"><stop offset="0" stop-color="#593636" stop-opacity="0"/><stop offset=".2774" stop-color="#543333" stop-opacity=".101"/><stop offset=".5956" stop-color="#482d2e" stop-opacity=".396"/><stop offset=".9328" stop-color="#332224" stop-opacity=".883"/><stop offset="1" stop-color="#2f2022"/></linearGradient><linearGradient id="SVGID_00000016060758516798593420000010648164409459307395_" gradientTransform="matrix(1 0 0 -1 0 514)" gradientUnits="userSpaceOnUse" x1="176.659" x2="219.883" xlink:href="#lg1" y1="159.663" y2="159.663"/><linearGradient id="SVGID_00000008136882372929304930000008253631425429107632_" gradientTransform="matrix(1 0 0 -1 0 514)" gradientUnits="userSpaceOnUse" x1="381.798" x2="433.109" xlink:href="#lg1" y1="159.769" y2="159.769"/><linearGradient id="SVGID_00000013184098737845089460000015705857371868069269_" gradientTransform="matrix(1 0 0 -1 0 514)" gradientUnits="userSpaceOnUse" x1="375.212" x2="402.338" xlink:href="#lg1" y1="153.872" y2="137.766"/><linearGradient id="lg2"><stop offset="0" stop-color="#feca9c"/><stop offset="1" stop-color="#ff7920"/></linearGradient><linearGradient id="SVGID_00000103944688405350971220000008560756557320691329_" gradientTransform="matrix(1 0 0 -1 0 514)" gradientUnits="userSpaceOnUse" x1="211.257" x2="307.892" xlink:href="#lg2" y1="181.894" y2="135.271"/><linearGradient id="lg3"><stop offset="0" stop-color="#fd3e2b" stop-opacity="0"/><stop offset=".1937" stop-color="#fd3e2b" stop-opacity=".011"/><stop offset=".3278" stop-color="#fd3e2b" stop-opacity=".047"/><stop offset=".444" stop-color="#fd3e2b" stop-opacity=".108"/><stop offset=".55" stop-color="#fd3e2b" stop-opacity=".194"/><stop offset=".649" stop-color="#fd3e2b" stop-opacity=".306"/><stop offset=".7429" stop-color="#fd3e2b" stop-opacity=".443"/><stop offset=".8328" stop-color="#fd3e2b" stop-opacity=".606"/><stop offset=".9171" stop-color="#fd3e2b" stop-opacity=".789"/><stop offset=".9985" stop-color="#fd3e2b" stop-opacity=".996"/><stop offset="1" stop-color="#fd3e2b"/></linearGradient><linearGradient id="SVGID_00000165204892497139227900000017124694305191245219_" gradientTransform="matrix(1 0 0 -1 0 514)" gradientUnits="userSpaceOnUse" x1="259.897" x2="305.671" xlink:href="#lg3" y1="163.603" y2="174.623"/><linearGradient id="SVGID_00000126308374666153382690000015716555869383046581_" gradientTransform="matrix(1 0 0 -1 0 514)" gradientUnits="userSpaceOnUse" x1="256" x2="256" xlink:href="#lg3" y1="209.67" y2="111.306"/><linearGradient id="SVGID_00000091017175336742697540000006694065624114417824_" gradientTransform="matrix(1 0 0 -1 0 514)" gradientUnits="userSpaceOnUse" x1="124.123" x2="388.6" xlink:href="#lg2" y1="418.407" y2="157.321"/><linearGradient id="SVGID_00000051374059287480487400000001576784648355064223_" gradientTransform="matrix(1 0 0 -1 0 514)" gradientUnits="userSpaceOnUse" x1="289.471" x2="239.458" xlink:href="#lg3" y1="281.494" y2="275.56"/><linearGradient id="SVGID_00000062182187501893861170000004072694770211522487_" gradientTransform="matrix(1 0 0 -1 0 514)" gradientUnits="userSpaceOnUse" x1="364.643" x2="412.96" xlink:href="#lg3" y1="248.801" y2="225.914"/><linearGradient id="SVGID_00000154428292632278404770000015935131177269830546_" gradientTransform="matrix(1 0 0 -1 0 514)" gradientUnits="userSpaceOnUse" x1="353.504" x2="442.511" xlink:href="#lg3" y1="288.769" y2="298.942"/><linearGradient id="lg4"><stop offset="0" stop-color="#fff" stop-opacity="0"/><stop offset=".0925" stop-color="#fff" stop-opacity=".024"/><stop offset=".2178" stop-color="#fff" stop-opacity=".092"/><stop offset=".3619" stop-color="#fff" stop-opacity=".203"/><stop offset=".52" stop-color="#fff" stop-opacity=".359"/><stop offset=".6897" stop-color="#fff" stop-opacity=".559"/><stop offset=".8661" stop-color="#fff" stop-opacity=".798"/><stop offset="1" stop-color="#fff"/></linearGradient><linearGradient id="SVGID_00000176030026343910262560000015980606868060657326_" gradientTransform="matrix(1 0 0 -1 0 514)" gradientUnits="userSpaceOnUse" x1="358.264" x2="379.173" xlink:href="#lg4" y1="426.701" y2="476.432"/><linearGradient id="SVGID_00000035524766946507470810000001350032330151766948_" gradientTransform="matrix(1 0 0 -1 0 514)" gradientUnits="userSpaceOnUse" x1="346.934" x2="376.603" xlink:href="#lg4" y1="371.186" y2="427.133"/><linearGradient id="SVGID_00000071532378359024303550000008053289654839482024_" gradientTransform="matrix(1 0 0 -1 0 514)" gradientUnits="userSpaceOnUse" x1="399.845" x2="437.991" xlink:href="#lg4" y1="348.331" y2="364.437"/><linearGradient id="SVGID_00000057148721523710107310000001288167969370343310_" gradientTransform="matrix(1 0 0 -1 0 514)" gradientUnits="userSpaceOnUse" x1="375.654" x2="413.517" xlink:href="#lg4" y1="213.816" y2="184.43"/><linearGradient id="SVGID_00000027571374909793018400000001583827424637591216_" gradientTransform="matrix(1 0 0 -1 0 514)" gradientUnits="userSpaceOnUse" x1="322.684" x2="350.658" xlink:href="#lg4" y1="334.353" y2="386.061"/><linearGradient id="SVGID_00000013164884262077634000000008139990662164506288_" gradientTransform="matrix(1 0 0 -1 0 514)" gradientUnits="userSpaceOnUse" x1="353.59" x2="402.756" xlink:href="#lg4" y1="322.524" y2="342.021"/><linearGradient id="SVGID_00000061443623138572140670000016230137218823141510_" gradientTransform="matrix(1 0 0 -1 0 514)" gradientUnits="userSpaceOnUse" x1="346.417" x2="393.039" xlink:href="#lg4" y1="261.357" y2="239.318"/><linearGradient id="SVGID_00000078755887848373289750000011386799925131460273_" gradientTransform="matrix(1 0 0 -1 0 514)" gradientUnits="userSpaceOnUse" x1="342.28" x2="363.351" xlink:href="#lg4" y1="131.999" y2="115.645"/><linearGradient id="SVGID_00000006695256565198006180000017553106723101886622_" gradientTransform="matrix(1 0 0 -1 0 514)" gradientUnits="userSpaceOnUse" x1="296.369" x2="314.171" xlink:href="#lg4" y1="300.966" y2="331.058"/><linearGradient id="SVGID_00000124130490383082924260000005804053085589624233_" gradientTransform="matrix(1 0 0 -1 0 514)" gradientUnits="userSpaceOnUse" x1="313.666" x2="359.441" xlink:href="#lg4" y1="279.284" y2="276.458"/><linearGradient id="SVGID_00000085233299546087136900000003339751669865059975_" gradientTransform="matrix(1 0 0 -1 0 514)" gradientUnits="userSpaceOnUse" x1="308.084" x2="343.687" xlink:href="#lg4" y1="261.326" y2="238.722"/><linearGradient id="SVGID_00000173863010382702336740000009446521298377442179_" gradientTransform="matrix(-1 0 0 -1 562.513 514)" gradientUnits="userSpaceOnUse" x1="408.776" x2="429.686" xlink:href="#lg4" y1="426.701" y2="476.432"/><linearGradient id="SVGID_00000088123405980950725220000004002919346248544429_" gradientTransform="matrix(-1 0 0 -1 562.513 514)" gradientUnits="userSpaceOnUse" x1="397.446" x2="427.115" xlink:href="#lg4" y1="371.186" y2="427.133"/><linearGradient id="SVGID_00000026140154711900917000000001037756554150083503_" gradientTransform="matrix(-1 0 0 -1 562.513 514)" gradientUnits="userSpaceOnUse" x1="450.358" x2="488.503" xlink:href="#lg4" y1="348.331" y2="364.437"/><linearGradient id="SVGID_00000008110459025544794160000007593607203237530551_" gradientTransform="matrix(-1 0 0 -1 562.513 514)" gradientUnits="userSpaceOnUse" x1="426.166" x2="464.029" xlink:href="#lg4" y1="213.816" y2="184.43"/><linearGradient id="SVGID_00000000219539766800288030000015886056535980187038_" gradientTransform="matrix(-1 0 0 -1 562.513 514)" gradientUnits="userSpaceOnUse" x1="373.197" x2="401.17" xlink:href="#lg4" y1="334.353" y2="386.061"/><linearGradient id="SVGID_00000099635204016136383700000009677658629037490350_" gradientTransform="matrix(-1 0 0 -1 562.513 514)" gradientUnits="userSpaceOnUse" x1="404.103" x2="453.268" xlink:href="#lg4" y1="322.524" y2="342.021"/><linearGradient id="SVGID_00000097460062924294896390000004507235583359450761_" gradientTransform="matrix(-1 0 0 -1 562.513 514)" gradientUnits="userSpaceOnUse" x1="396.929" x2="443.552" xlink:href="#lg4" y1="261.357" y2="239.318"/><linearGradient id="SVGID_00000108278256356239532960000014324684805573497501_" gradientTransform="matrix(-1 0 0 -1 562.513 514)" gradientUnits="userSpaceOnUse" x1="392.792" x2="413.863" xlink:href="#lg4" y1="131.999" y2="115.645"/><linearGradient id="SVGID_00000078020674494242648420000009143321434090861738_" gradientTransform="matrix(-1 0 0 -1 562.513 514)" gradientUnits="userSpaceOnUse" x1="346.882" x2="364.683" xlink:href="#lg4" y1="300.966" y2="331.058"/><linearGradient id="SVGID_00000098221082590607136360000015471885676337948832_" gradientTransform="matrix(-1 0 0 -1 562.513 514)" gradientUnits="userSpaceOnUse" x1="364.178" x2="409.953" xlink:href="#lg4" y1="279.284" y2="276.458"/><linearGradient id="SVGID_00000063596005535456534960000017177805952283484339_" gradientTransform="matrix(-1 0 0 -1 562.513 514)" gradientUnits="userSpaceOnUse" x1="358.597" x2="394.199" xlink:href="#lg4" y1="261.326" y2="238.722"/><linearGradient id="SVGID_00000039835708576011610630000018223093160529637003_" gradientTransform="matrix(1 0 0 -1 0 514)" gradientUnits="userSpaceOnUse" x1="347.01" x2="347.01" xlink:href="#lg3" y1="151.18" y2="40.717"/><linearGradient id="SVGID_00000062904612023620677050000014592953974454646427_" gradientTransform="matrix(1 0 0 -1 0 514)" gradientUnits="userSpaceOnUse" x1="164.808" x2="164.808" xlink:href="#lg3" y1="151.18" y2="40.717"/><linearGradient id="lg5"><stop offset="0" stop-color="#fff"/><stop offset="1" stop-color="#ffeee6"/></linearGradient><linearGradient id="SVGID_00000092443830463509024570000000661845106517675139_" gradientTransform="matrix(1 0 0 -1 0 514)" gradientUnits="userSpaceOnUse" x1="243.537" x2="260.6" xlink:href="#lg5" y1="273.738" y2="256.675"/><linearGradient id="lg6"><stop offset="0" stop-color="#ffa78f" stop-opacity="0"/><stop offset=".1223" stop-color="#ffa78f" stop-opacity=".016"/><stop offset=".2474" stop-color="#ffa78f" stop-opacity=".064"/><stop offset=".3739" stop-color="#ffa78f" stop-opacity=".145"/><stop offset=".5013" stop-color="#ffa78f" stop-opacity=".257"/><stop offset=".6295" stop-color="#ffa78f" stop-opacity=".403"/><stop offset=".7584" stop-color="#ffa78f" stop-opacity=".581"/><stop offset=".8853" stop-color="#ffa78f" stop-opacity=".787"/><stop offset="1" stop-color="#ffa78f"/></linearGradient><linearGradient id="SVGID_00000090277212514887110000000007706927173467290027_" gradientTransform="matrix(1 0 0 -1 0 514)" gradientUnits="userSpaceOnUse" x1="259.222" x2="277.632" xlink:href="#lg6" y1="260.675" y2="257.246"/><linearGradient id="SVGID_00000002354389679727890960000007833899318364520350_" gradientTransform="matrix(1 0 0 -1 0 514)" gradientUnits="userSpaceOnUse" x1="256" x2="256" xlink:href="#lg6" y1="257.89" y2="239.603"/><linearGradient id="SVGID_00000052083708331512897010000004234804504226022282_" gradientTransform="matrix(1 0 0 -1 0 514)" gradientUnits="userSpaceOnUse" x1="264.655" x2="274.39" xlink:href="#lg4" y1="252.62" y2="242.885"/><linearGradient id="SVGID_00000051346167532022999540000004540902766487141003_" gradientTransform="matrix(1 0 0 -1 0 514)" gradientUnits="userSpaceOnUse" x1="221.007" x2="272.292" xlink:href="#lg5" y1="573.587" y2="475.68"/><g><path d="m432.595 196.674v101.158l-.012-.012c-.048 12.593-2.105 24.841-6.433 36.28-33.224 87.816-72.096 118.221-104.309 163.17-3.032 4.233-6.588 8.003-10.571 11.32-2.676 2.236-5.886 3.199-9.025 3.199-6.493 0-12.676-4.126-13.152-9.715-.036-.464-.048-.939 0-1.415v-48.278h13.877c1.772-9.798 1.7-20.702.119-31.464 20.857-14.769 34.46-39.086 34.46-66.578 0-45.043-36.506-81.549-81.549-81.549s-81.549 36.506-81.549 81.549c0 27.504 13.615 51.821 34.472 66.59-1.582 10.738-1.665 21.606.036 31.416h13.96v48.742c.012.143.012.285.012.416 0 .19 0 .381-.012.571-.488 8.419-13.865 13.615-22.201 6.754-4.102-3.389-7.777-7.254-10.88-11.582-32.058-44.758-70.716-74.759-103.833-161.945-2.057-5.411-3.615-10.999-4.709-16.731-1.082-5.732-1.689-11.582-1.855-17.527-.059-1.915-.048-3.841 0-5.779v-98.589z" fill="url(#SVGID_1_)"/><path d="m245.322 273.508v-76.833h-116.98v221.462c21.132 31.192 42.476 52.554 61.497 79.11 3.104 4.328 6.778 8.193 10.88 11.582 8.336 6.861 21.713 1.665 22.201-6.754.012-.19.012-.381.012-.571 0-.131 0-.273-.012-.416v-48.742h-13.96c-1.7-9.81-1.617-20.679-.036-31.416-20.857-14.769-34.472-39.086-34.472-66.59-.001-41.423 30.877-75.6 70.87-80.832z" fill="url(#SVGID_00000016060758516798593420000010648164409459307395_)"/><path d="m256 272.789c45.043 0 81.549 36.506 81.549 81.549 0 27.492-13.603 51.81-34.46 66.578 1.581 10.761 1.653 21.666-.119 31.464h-13.877v48.278c-.048.476-.036.951 0 1.415.476 5.589 6.659 9.715 13.152 9.715 3.139 0 6.35-.963 9.025-3.199 3.983-3.318 7.539-7.087 10.571-11.32 32.213-44.948 71.085-75.354 104.309-163.17 4.328-11.439 6.386-23.687 6.433-36.28l.012.012v-101.157h-176.595z" fill="url(#SVGID_00000008136882372929304930000008253631425429107632_)"/><path d="m256 272.789c45.043 0 81.549 36.506 81.549 81.549 0 27.492-13.603 51.81-34.46 66.578 1.581 10.761 1.653 21.666-.119 31.464h-13.877v48.278c-.048.476-.036.951 0 1.415.476 5.589 6.659 9.715 13.152 9.715 3.139 0 6.35-.963 9.025-3.199 3.983-3.318 7.539-7.087 10.571-11.32 32.213-44.948 71.085-75.354 104.309-163.17 4.328-11.439 6.386-23.687 6.433-36.28l.012.012v-101.157h-176.595z" fill="url(#SVGID_00000013184098737845089460000015705857371868069269_)"/><path d="m337.548 354.336c0-45.038-36.51-81.548-81.548-81.548s-81.548 36.51-81.548 81.548c0 27.493 13.619 51.789 34.464 66.561 4.383-29.875 20.274-58.679 41.078-60.646 1.974-.183 3.96-.279 5.957-.279 2.01 0 3.995.096 5.969.279 20.762 1.961 36.781 30.817 41.168 60.643 20.843-14.772 34.46-39.067 34.46-66.558z" fill="url(#SVGID_00000103944688405350971220000008560756557320691329_)"/><path d="m337.548 354.336c0-45.038-36.51-81.548-81.548-81.548s-81.548 36.51-81.548 81.548c0 27.493 13.619 51.789 34.464 66.561 4.383-29.875 20.274-58.679 41.078-60.646 1.974-.183 3.96-.279 5.957-.279 2.01 0 3.995.096 5.969.279 20.762 1.961 36.781 30.817 41.168 60.643 20.843-14.772 34.46-39.067 34.46-66.558z" fill="url(#SVGID_00000165204892497139227900000017124694305191245219_)"/><path d="m337.548 354.336c0-45.038-36.51-81.548-81.548-81.548s-81.548 36.51-81.548 81.548c0 27.493 13.619 51.789 34.464 66.561 4.383-29.875 20.274-58.679 41.078-60.646 1.974-.183 3.96-.279 5.957-.279 2.01 0 3.995.096 5.969.279 20.762 1.961 36.781 30.817 41.168 60.643 20.843-14.772 34.46-39.067 34.46-66.558z" fill="url(#SVGID_00000126308374666153382690000015716555869383046581_)"/><path d="m426.153 244.798c-33.224 108.494-72.096 146.058-104.309 201.602-3.026 5.218-6.588 9.878-10.572 13.98-9.492 9.775-25.721-.109-21.542-13.077 4.377-13.582 8.743-30.175 12.802-53.616 7.919-45.745-11.772-113.215-40.608-116.58-1.974-.226-3.96-.345-5.969-.345-1.998 0-3.984.119-5.957.345-29.014 3.389-48.48 71.275-40.489 117.294 4.048 23.259 8.397 39.706 12.749 53.168 4.192 12.966-11.978 22.82-21.531 13.102-4.111-4.182-7.781-8.951-10.887-14.306-32.058-55.294-70.716-92.37-103.833-200.08-29.251-95.153 41.941-235.528 148.045-242.508 7.206-.476 14.472-.725 21.808-.725 7.325 0 14.602.25 21.796.725 105.451 6.944 177.463 146.439 148.497 241.021z" fill="url(#SVGID_00000091017175336742697540000006694065624114417824_)"/><path d="m277.657 3.777c-7.149-.472-14.379-.721-21.657-.724v273.709c1.994.002 3.965.119 5.925.344 28.836 3.365 48.528 70.835 40.608 116.58-4.059 23.441-8.425 40.034-12.802 53.616-4.179 12.968 12.049 22.852 21.542 13.077 3.984-4.102 7.546-8.762 10.572-13.98 32.213-55.543 71.085-93.107 104.309-201.602 28.965-94.581-43.047-234.076-148.497-241.02z" fill="url(#SVGID_00000051374059287480487400000001576784648355064223_)"/><path d="m277.657 3.777c-7.149-.472-14.379-.721-21.657-.724v273.709c1.994.002 3.965.119 5.925.344 28.836 3.365 48.528 70.835 40.608 116.58-4.059 23.441-8.425 40.034-12.802 53.616-4.179 12.968 12.049 22.852 21.542 13.077 3.984-4.102 7.546-8.762 10.572-13.98 32.213-55.543 71.085-93.107 104.309-201.602 28.965-94.581-43.047-234.076-148.497-241.02z" fill="url(#SVGID_00000062182187501893861170000004072694770211522487_)"/><path d="m277.657 3.777c-7.149-.472-14.379-.721-21.657-.724v273.709c1.994.002 3.965.119 5.925.344 28.836 3.365 48.528 70.835 40.608 116.58-4.059 23.441-8.425 40.034-12.802 53.616-4.179 12.968 12.049 22.852 21.542 13.077 3.984-4.102 7.546-8.762 10.572-13.98 32.213-55.543 71.085-93.107 104.309-201.602 28.965-94.581-43.047-234.076-148.497-241.02z" fill="url(#SVGID_00000154428292632278404770000015935131177269830546_)"/><g><path d="m426.15 244.798c-33.224 108.494-72.096 146.058-104.309 201.602-3.02 5.22-6.588 9.882-10.571 13.984-9.489 9.774-25.72-.119-21.535-13.08 4.376-13.58 8.74-30.18 12.795-53.617 7.92-45.745-11.772-113.215-40.608-116.58-1.962-.226-3.924-.345-5.922-.345v-273.71s30.299 52.345 77.768 48.956c.165-.012.329-.023.493-.034 25.861-1.765 50.519 11.147 64.244 33.137 30.349 48.62 42.771 110.28 27.645 159.687z" fill="url(#SVGID_00000176030026343910262560000015980606868060657326_)"/><g><path d="m426.15 244.798c-33.224 108.494-72.096 146.058-104.309 201.602-3.02 5.22-6.588 9.882-10.571 13.984-9.489 9.774-25.72-.119-21.535-13.08 4.376-13.58 8.74-30.18 12.795-53.617 7.92-45.745-11.772-113.215-40.608-116.58-1.962-.226-3.924-.345-5.922-.345v-236.907s34.758 66.971 81.549 61.881c27.093-2.947 54.131 9.452 73.407 29.629 10.896 11.405 17.602 26.102 19.774 41.724 3.456 24.845 2.219 49.512-4.58 71.709z" fill="url(#SVGID_00000035524766946507470810000001350032330151766948_)"/><path d="m337.549 101.736c27.093-2.947 54.131 9.452 73.407 29.629 10.896 11.405 17.602 26.102 19.774 41.724 3.455 24.845 2.218 49.512-4.581 71.708" fill="url(#SVGID_00000071532378359024303550000008053289654839482024_)"/></g><path d="m256 201.761v75.002c1.994.002 3.965.119 5.925.344 27.417 3.2 46.565 64.35 41.576 109.679 15.639.447 29.649-2.877 42.139-8.733 20.244-9.491 36.328-25.989 46.304-45.999 11.722-23.513 23.272-51.54 34.209-87.256 4.163-13.593 6.23-28.116 6.422-43.037z" fill="url(#SVGID_00000057148721523710107310000001288167969370343310_)"/><g><path d="m326.661 150.9c-46.567-1.692-70.565-57.414-70.661-57.637v183.5c1.994.002 3.965.119 5.925.344 20.114 2.347 35.775 35.885 40.723 71.484 26.265-18.76 58.37-45.181 81.693-75.801 46.623-61.212-11.019-120.195-57.68-121.89z" fill="url(#SVGID_00000027571374909793018400000001583827424637591216_)"/><path d="m326.661 150.9c-46.567-1.692-70.565-57.414-70.661-57.637v183.5c1.994.002 3.965.119 5.925.344 20.114 2.347 35.775 35.885 40.723 71.484 26.265-18.76 58.37-45.181 81.693-75.801 46.623-61.212-11.019-120.195-57.68-121.89z" fill="url(#SVGID_00000013164884262077634000000008139990662164506288_)"/><path d="m326.661 150.9c-46.567-1.692-70.565-57.414-70.661-57.637v183.5c1.994.002 3.965.119 5.925.344 20.114 2.347 35.775 35.885 40.723 71.484 26.265-18.76 58.37-45.181 81.693-75.801 46.623-61.212-11.019-120.195-57.68-121.89z" fill="url(#SVGID_00000061443623138572140670000016230137218823141510_)"/></g><path d="m293.538 434.587c.128.006.256.013.385.018 20.969.952 40.841-9.44 52.485-26.904 13.527-20.286 27.608-41.139 41.519-67.795-.956-3.48-2.262-6.883-3.98-10.159-6.554-12.491-17.784-21.31-31.426-26.051h-51.634c-3.215.973-6.424 2.121-9.613 3.454 10.917 24.516 15.965 59.355 11.26 86.536-2.88 16.626-5.914 29.796-8.996 40.901z" fill="url(#SVGID_00000078755887848373289750000011386799925131460273_)"/><path d="m261.925 277.106c11.209 1.308 21.036 12.306 28.397 27.946 24.715-15.963 53.976-38.522 56.688-62.15 2.818-24.547-10.138-44.532-38.96-46.227-28.791-1.694-52.002-37.221-52.05-37.295v117.382c1.994.002 3.965.12 5.925.344z" fill="url(#SVGID_00000006695256565198006180000017553106723101886622_)"/><path d="m261.925 277.106c11.209 1.308 21.036 12.306 28.397 27.946 24.715-15.963 53.976-38.522 56.688-62.15 2.818-24.547-10.138-44.532-38.96-46.227-28.791-1.694-52.002-37.221-52.05-37.295v117.382c1.994.002 3.965.12 5.925.344z" fill="url(#SVGID_00000124130490383082924260000005804053085589624233_)"/><path d="m261.925 277.106c11.209 1.308 21.036 12.306 28.397 27.946 24.715-15.963 53.976-38.522 56.688-62.15 2.818-24.547-10.138-44.532-38.96-46.227-28.791-1.694-52.002-37.221-52.05-37.295v117.382c1.994.002 3.965.12 5.925.344z" fill="url(#SVGID_00000085233299546087136900000003339751669865059975_)"/></g><g><path d="m85.85 244.798c33.224 108.494 72.096 146.058 104.309 201.602 3.02 5.22 6.588 9.882 10.571 13.984 9.489 9.774 25.72-.119 21.535-13.08-4.376-13.58-8.74-30.18-12.795-53.617-7.92-45.745 11.772-113.215 40.608-116.58 1.962-.226 3.924-.345 5.922-.345v-273.71s-30.299 52.345-77.768 48.956c-.165-.012-.329-.023-.493-.034-25.861-1.765-50.519 11.147-64.244 33.137-30.349 48.62-42.771 110.28-27.645 159.687z" fill="url(#SVGID_00000173863010382702336740000009446521298377442179_)"/><g><path d="m85.85 244.798c33.224 108.494 72.096 146.058 104.309 201.602 3.02 5.22 6.588 9.882 10.571 13.984 9.489 9.774 25.72-.119 21.535-13.08-4.376-13.58-8.74-30.18-12.795-53.617-7.92-45.745 11.772-113.215 40.608-116.58 1.962-.226 3.924-.345 5.922-.345v-236.907s-34.758 66.971-81.549 61.881c-27.093-2.947-54.131 9.452-73.407 29.629-10.896 11.405-17.602 26.102-19.774 41.724-3.456 24.845-2.219 49.512 4.58 71.709z" fill="url(#SVGID_00000088123405980950725220000004002919346248544429_)"/><path d="m174.451 101.736c-27.093-2.947-54.131 9.452-73.407 29.629-10.896 11.405-17.602 26.102-19.774 41.724-3.455 24.845-2.218 49.512 4.581 71.708" fill="url(#SVGID_00000026140154711900917000000001037756554150083503_)"/></g><path d="m256 201.761v75.002c-1.994.002-3.965.119-5.925.344-27.417 3.2-46.565 64.35-41.576 109.679-15.639.447-29.649-2.877-42.139-8.733-20.244-9.491-36.328-25.989-46.304-45.999-11.722-23.513-23.272-51.54-34.209-87.256-4.163-13.593-6.23-28.116-6.422-43.037z" fill="url(#SVGID_00000008110459025544794160000007593607203237530551_)"/><g><path d="m185.339 150.9c46.567-1.692 70.565-57.414 70.661-57.637v183.5c-1.994.002-3.965.119-5.925.344-20.114 2.347-35.775 35.885-40.723 71.484-26.265-18.76-58.37-45.181-81.693-75.801-46.623-61.212 11.019-120.195 57.68-121.89z" fill="url(#SVGID_00000000219539766800288030000015886056535980187038_)"/><path d="m185.339 150.9c46.567-1.692 70.565-57.414 70.661-57.637v183.5c-1.994.002-3.965.119-5.925.344-20.114 2.347-35.775 35.885-40.723 71.484-26.265-18.76-58.37-45.181-81.693-75.801-46.623-61.212 11.019-120.195 57.68-121.89z" fill="url(#SVGID_00000099635204016136383700000009677658629037490350_)"/><path d="m185.339 150.9c46.567-1.692 70.565-57.414 70.661-57.637v183.5c-1.994.002-3.965.119-5.925.344-20.114 2.347-35.775 35.885-40.723 71.484-26.265-18.76-58.37-45.181-81.693-75.801-46.623-61.212 11.019-120.195 57.68-121.89z" fill="url(#SVGID_00000097460062924294896390000004507235583359450761_)"/></g><path d="m218.462 434.587c-.128.006-.256.013-.385.018-20.969.952-40.841-9.44-52.485-26.904-13.527-20.286-27.608-41.139-41.519-67.795.956-3.48 2.262-6.883 3.981-10.159 6.554-12.491 17.784-21.31 31.426-26.051h51.634c3.215.973 6.424 2.121 9.613 3.454-10.917 24.516-15.965 59.355-11.26 86.536 2.879 16.626 5.913 29.796 8.995 40.901z" fill="url(#SVGID_00000108278256356239532960000014324684805573497501_)"/><path d="m250.075 277.106c-11.209 1.308-21.036 12.306-28.397 27.946-24.715-15.963-53.976-38.522-56.688-62.15-2.818-24.547 10.138-44.532 38.96-46.227 28.791-1.694 52.002-37.221 52.05-37.295v.223 117.159c-1.994.002-3.965.12-5.925.344z" fill="url(#SVGID_00000078020674494242648420000009143321434090861738_)"/><path d="m250.075 277.106c-11.209 1.308-21.036 12.306-28.397 27.946-24.715-15.963-53.976-38.522-56.688-62.15-2.818-24.547 10.138-44.532 38.96-46.227 28.791-1.694 52.002-37.221 52.05-37.295v.223 117.159c-1.994.002-3.965.12-5.925.344z" fill="url(#SVGID_00000098221082590607136360000015471885676337948832_)"/><path d="m250.075 277.106c-11.209 1.308-21.036 12.306-28.397 27.946-24.715-15.963-53.976-38.522-56.688-62.15-2.818-24.547 10.138-44.532 38.96-46.227 28.791-1.694 52.002-37.221 52.05-37.295v.223 117.159c-1.994.002-3.965.12-5.925.344z" fill="url(#SVGID_00000063596005535456534960000017177805952283484339_)"/></g><g><path d="m289.671 303.696c12.019 24.609 17.793 61.509 12.862 89.991-4.059 23.441-8.425 40.034-12.802 53.616-4.179 12.968 12.049 22.852 21.542 13.077 3.984-4.102 7.546-8.762 10.572-13.98 25.563-44.077 55.32-76.839 83.119-142.704z" fill="url(#SVGID_00000039835708576011610630000018223093160529637003_)"/><path d="m106.678 303.696c27.812 66.036 57.587 98.556 83.163 142.668 3.105 5.355 6.775 10.124 10.887 14.306 9.553 9.718 25.723-.136 21.531-13.102-4.353-13.462-8.701-29.909-12.749-53.168-4.986-28.715.719-65.943 12.763-90.704z" fill="url(#SVGID_00000062904612023620677050000014592953974454646427_)"/></g><g><circle cx="256" cy="252.725" fill="url(#SVGID_00000092443830463509024570000000661845106517675139_)" r="23.838"/><path d="m256 228.887c-1.661 0-3.281.171-4.846.494v46.689c1.565.323 3.185.494 4.846.494 13.166 0 23.838-10.673 23.838-23.838s-10.672-23.839-23.838-23.839z" fill="url(#SVGID_00000090277212514887110000000007706927173467290027_)"/><path d="m232.162 252.725c0 13.166 10.673 23.838 23.838 23.838 13.166 0 23.838-10.673 23.838-23.838 0-1.751-.194-3.455-.552-5.099h-46.572c-.358 1.644-.552 3.348-.552 5.099z" fill="url(#SVGID_00000002354389679727890960000007833899318364520350_)"/><path d="m268.063 232.166-32.622 32.622c4.142 7.044 11.796 11.776 20.559 11.776 13.166 0 23.839-10.673 23.839-23.838 0-8.764-4.732-16.418-11.776-20.56z" fill="url(#SVGID_00000052083708331512897010000004234804504226022282_)"/></g><path d="m212.003 7.218c38.57 0 43.997 32.637 43.997 32.637s5.428-32.637 43.997-32.637c-28.542-9.624-59.452-9.624-87.994 0z" fill="url(#SVGID_00000051346167532022999540000004540902766487141003_)"/></g></svg>