<svg height="512" viewBox="0 0 48 48" width="512" xmlns="http://www.w3.org/2000/svg"><path d="m36.5 35.5c8.7-8.7 8.7-22.8 0-31.5l-31.4 31.5c8.7 8.7 22.7 8.7 31.4 0z" fill="#ffecb3"/><g><path d="m28 27c4.7-4.7 5.5-11.9 1.4-15.7l-17.2 17.1c3.9 4.1 11 3.3 15.8-1.4z" fill="#ffb300"/></g><path d="m35.1 34.1c-7.9 7.9-20.7 7.9-28.6 0l-1.4 1.4c8.7 8.7 22.8 8.7 31.5 0s8.7-22.8 0-31.5l-1.4 1.4c7.8 8 7.8 20.8-.1 28.7z" fill="#4caf50"/><path d="m25.8 23.4c.4.4 1.4 2.9 1.4 2.9s-2.5-1-2.9-1.4-.4-1 0-1.4c.5-.5 1.1-.5 1.5-.1zm-9.3 5c-.4.4-.4 1 0 1.4s2.1.7 2.1.7-.3-1.8-.7-2.1-1-.4-1.4 0zm12.9-12.9c-.4.4-.4 1 0 1.4s2.1.7 2.1.7-.3-1.8-.7-2.1c-.4-.4-1-.4-1.4 0zm-2.9 5.7c-.4.4-.4 1 0 1.4s2.9 1.4 2.9 1.4-1-2.5-1.4-2.9c-.4-.3-1.1-.3-1.5.1zm-4.3 4.3c-.4.4-.4 1 0 1.4s2.9 1.4 2.9 1.4-1-2.5-1.4-2.9c-.4-.3-1.1-.3-1.5.1zm-2.8 1.5c-.4.4-.4 1 0 1.4s2.9 1.4 2.9 1.4-1-2.5-1.4-2.9c-.5-.3-1.1-.3-1.5.1zm8.6-8.6c-.4.4-.4 1 0 1.4s2.9 1.4 2.9 1.4-1-2.5-1.4-2.9c-.5-.3-1.2-.3-1.5.1zm-7.2 1.4c-.4.4-.4 1 0 1.4s2.9 1.4 2.9 1.4-1-2.5-1.4-2.9c-.5-.3-1.1-.3-1.5.1zm-2.1 2.1c-.4.4-.4 1 0 1.4s2.9 1.4 2.9 1.4-1-2.5-1.4-2.9c-.5-.2-1.2-.2-1.5.1zm4.2-4.2c-.4.4-.4 1 0 1.4s2.9 1.4 2.9 1.4-1-2.5-1.4-2.9c-.4-.3-1.1-.3-1.5.1zm2.2-2.2c-.4.4-.4 1 0 1.4s2.1.7 2.1.7-.3-1.8-.7-2.1c-.4-.4-1-.4-1.4 0zm1.4-1.4c.4.4 2.1.7 2.1.7s-.3-1.8-.6-2.2zm-10 10c-.4.4-.4 1 0 1.4s2.1.7 2.1.7-.3-1.8-.7-2.1c-.4-.4-1-.4-1.4 0zm-2.9 2.9c.4.4 2.1.7 2.1.7s-.3-1.8-.7-2.1z" fill="#f57f17"/></svg>