<svg id="Flat" viewBox="0 0 64 64" xmlns="http://www.w3.org/2000/svg"><path d="m56.494 1.5-20.682 20.678 6.01 6.01 20.683-20.682a4.25 4.25 0 0 0 0-6.011 4.25 4.25 0 0 0 -6.011.005z" fill="#facdae"/><path d="m53.713 22.287a6.761 6.761 0 0 0 -6.713-6.037c-.159 0-.318.006-.476.017a6.751 6.751 0 0 0 -9.23-4.451 6.744 6.744 0 0 0 -10.588 0 6.751 6.751 0 0 0 -9.23 4.451c-.158-.011-.316-.017-.476-.017a6.761 6.761 0 0 0 -6.713 6.037 6.75 6.75 0 0 0 .713 13.463h42a6.75 6.75 0 0 0 .713-13.463z" fill="#e9f5ff"/><path d="m48.117 56.039a22.9 22.9 0 0 0 13.633-20.9v-3.139h-59.5v3.134a22.9 22.9 0 0 0 13.633 20.905z" fill="#6ec7f9"/><g fill="#8fd2ff"><path d="m15.883 56.039-1.566 5.48a1.75 1.75 0 0 0 1.683 2.231h32a1.75 1.75 0 0 0 1.683-2.231l-1.566-5.48z"/><path d="m62 33.75h-60a1.75 1.75 0 0 1 0-3.5h60a1.75 1.75 0 0 1 0 3.5z"/></g></svg>