<svg height="512" viewBox="0 0 58 44" width="512" xmlns="http://www.w3.org/2000/svg"><g id="Page-1" fill="none" fill-rule="evenodd"><g id="058---Protein-Measuring-Cup" fill-rule="nonzero"><path id="Shape" d="m38.08 21h1.17l-3.88 15.53c-.3415318 1.3989947-1.1147306 2.6550054-2.21 3.59-2.02 1.73-5.98 3.88-13.16 3.88s-11.14-2.15-13.16-3.88c-1.09526944-.9349946-1.86846824-2.1910053-2.21-3.59l-4.32-17.3z" fill="#3b97d3"/><path id="Shape" d="m58 18c0 1.6568542-1.3431458 3-3 3h-19.92c1.0833584-.6349687 1.7971672-1.7502949 1.92-3-.1251998-1.2488834-.8383791-2.3632261-1.92-3h19.92c1.6568542 0 3 1.3431458 3 3z" fill="#285680"/><path id="Shape" d="m31.15 12.18c2.4688518.4889501 4.8212206 1.4461911 6.93 2.82 1.0816209.6367739 1.7948002 1.7511166 1.92 3-.1228328 1.2497051-.8366416 2.3650313-1.92 3-.7090328.5005399-1.4660925.929317-2.26 1.28z" fill="#2980ba"/><path id="Shape" d="m7.64 12.5c-.06.23.42.46.36.69-.54286282 1.7413707-1.30212935 3.4077256-2.26 4.96-.68 1.21-1.92 2.41-2.6 3.61-1.17040862-.5484968-2.15432219-1.4281086-2.83-2.53l-.01-.03c-.19507795-.3700422-.29799008-.7816908-.3-1.2 0-2.23 2.99-4.22 7.64-5.5z" fill="#2980ba"/><path id="Shape" d="m14.17 40.34c-.0839614-.0000153-.1675979-.0104278-.249-.031-1.8836302-.4235695-3.6450828-1.2733361-5.149-2.484-.61319495-.528649-1.04397403-1.2372823-1.231-2.025l-2.041-8.174c-.10249865-.3519028-.00426664-.731682.25600495-.9897522.26027158-.2580703.64087145-.353073.99189094-.2475891.3510195.1054839.61620403.3945496.69110411.7533413l2.043 8.176c.08757076.3811844.2929496.7251152.587.983 1.2730509 1.0128906 2.7610432 1.7209697 4.35 2.07.4885053.1245516.8079117.5932558.7451628 1.0934689-.0627489.500213-.4880294.8755005-.9921628.8755311z" fill="#fff"/><path id="Shape" d="m35.82 22.28c-3.65 1.66-9.38 2.72-15.82 2.72-7.09 0-13.31-1.29-16.86-3.24.68-1.2 1.38-2.4 2.06-3.61.95787065-1.5522744 1.71713718-3.2186293 2.26-4.96l.18-.69c.27-1.04.49-2.1.78-3.15.21955263-1.13704399.74113359-2.19402262 1.51-3.06 1.49-1.48 3.27-2.59 4.71-4.12 1.49-1.57 3.65-2.25 5.6-1.01 1.06.67 1.76 1.81 2.97 2.24 1.3012651.33660999 2.5473546.85862048 3.7 1.55.8623517.70270995 1.4413228 1.69370959 1.63 2.79.1751403 1.20097327.6806163 2.3296388 1.46 3.26.37.41.76.8 1.15 1.18.68.69 1.37 1.34 2.04 2.01.5318126.5284814.9087744 1.1924875 1.09 1.92z" fill="#f3d55b"/><g fill="#f0c419"><circle id="Oval" cx="14" cy="9" r="1"/><circle id="Oval" cx="12" cy="13" r="1"/><circle id="Oval" cx="18" cy="5" r="1"/><circle id="Oval" cx="24" cy="8" r="1"/><circle id="Oval" cx="25" cy="12" r="1"/><circle id="Oval" cx="29" cy="16" r="1"/><circle id="Oval" cx="27" cy="20" r="1"/><circle id="Oval" cx="19" cy="21" r="1"/><circle id="Oval" cx="19" cy="13" r="1"/><circle id="Oval" cx="23" cy="17" r="1"/><circle id="Oval" cx="10" cy="20" r="1"/><circle id="Oval" cx="15" cy="17" r="1"/></g></g></g></svg>