<svg xmlns="http://www.w3.org/2000/svg" version="1.1" xmlns:xlink="http://www.w3.org/1999/xlink" width="512" height="512" x="0" y="0" viewBox="0 0 256 256" style="enable-background:new 0 0 512 512" xml:space="preserve" class=""><g transform="matrix(1.850000000000001,0,0,1.850000000000001,-110.10256423950219,-51.06155920028692)"><path fill="#6d2e03" d="M157.889 137.715H98.11c-19.196 0-32.822-18.706-26.935-36.977l9.933-30.829h93.784l9.933 30.829c5.886 18.271-7.74 36.977-26.936 36.977z" opacity="1" data-original="#6d2e03" class=""></path><path fill="#e6e7e8" d="M199.31 188.18v29.7c0 5.53-4.48 10-10 10H66.69c-5.52 0-10-4.47-10-10v-29.7c0-22.09 17.91-40 40-40h62.62c22.09 0 40 17.91 40 40z" opacity="1" data-original="#e6e7e8" class=""></path><path fill="#d1d3d4" d="M166.474 148.823c7.893 7.307 12.834 17.756 12.834 29.359v29.7c0 5.523-4.477 10-10 10H56.692c0 5.523 4.477 10 10 10h122.616c5.523 0 10-4.477 10-10v-29.7c0-19.644-14.162-35.981-32.834-39.359z" opacity="1" data-original="#d1d3d4"></path><path fill="#fcc4ae" d="M116.508 126.744v28.443c0 2.2.632 4.355 1.82 6.207 4.522 7.048 14.823 7.048 19.345 0a11.496 11.496 0 0 0 1.82-6.207v-28.442h-22.985z" opacity="1" data-original="#fcc4ae" class=""></path><path fill="#f2ad97" d="M116.508 135.638A36.16 36.16 0 0 0 128 137.51c4.019 0 7.881-.664 11.493-1.873v-8.893h-22.985z" opacity="1" data-original="#f2ad97"></path><path fill="#ffd2c0" d="M164.22 77.49v18.8c0 14.1-8.06 26.32-19.83 32.31-1.56.79-3.18 1.47-4.85 2.04-1.36.45-2.76.83-4.18 1.12a36.458 36.458 0 0 1-14.72 0c-1.42-.29-2.82-.67-4.18-1.12-1.67-.57-3.29-1.25-4.85-2.04-11.77-5.99-19.83-18.21-19.83-32.31v-18.8c0-20 16.22-36.22 36.22-36.22 10 0 19.06 4.05 25.61 10.61s10.61 15.61 10.61 25.61z" opacity="1" data-original="#ffd2c0" class=""></path><path fill="#e59076" d="M134.44 109.715c.996 0 1.751.93 1.521 1.9a8.187 8.187 0 0 1-15.922 0c-.23-.969.524-1.9 1.521-1.9z" opacity="1" data-original="#e59076" class=""></path><path fill="#f2ad97" d="M91.78 77.489v9.666c14.114-9.422 23.143-25.497 23.087-43.122l-.002-.308c-13.51 5.26-23.085 18.394-23.085 33.764z" opacity="1" data-original="#f2ad97"></path><path fill="#fcc4ae" d="M150.988 49.501a36.072 36.072 0 0 1 8.231 22.988V91.29c0 20.003-16.216 36.219-36.219 36.219a36.07 36.07 0 0 1-22.988-8.231c6.643 8.078 16.713 13.231 27.988 13.231 20.003 0 36.219-16.216 36.219-36.219V77.489c0-11.275-5.153-21.345-13.231-27.988z" opacity="1" data-original="#fcc4ae" class=""></path><path fill="#ffd2c0" d="M91.781 96.291V84.972c-6.443 0-11.667 5.223-11.667 11.667 0 6.443 5.223 11.667 11.667 11.667.679 0 1.341-.07 1.988-.181a36.166 36.166 0 0 1-1.988-11.834zM164.219 84.972v11.319c0 4.145-.706 8.124-1.988 11.833a11.73 11.73 0 0 0 1.988.181c6.443 0 11.667-5.223 11.667-11.667 0-6.443-5.224-11.666-11.667-11.666z" opacity="1" data-original="#ffd2c0" class=""></path><path fill="#fcc4ae" d="M171.408 87.45a11.617 11.617 0 0 1 2.478 7.189c0 6.245-4.907 11.343-11.075 11.652a36.481 36.481 0 0 1-.58 1.833 11.73 11.73 0 0 0 1.988.182c6.443 0 11.667-5.223 11.667-11.667 0-3.732-1.752-7.054-4.478-9.189z" opacity="1" data-original="#fcc4ae" class=""></path><path fill="#7c3108" d="M114.867 34.034c.061 19.232-10.695 36.619-27.07 45.529-3.464 1.885-7.717-.828-7.37-4.757 1.177-13.345 7.108-25.559 16.431-34.162a47.313 47.313 0 0 1 17.86-10.424c.096 1.26.149 2.528.149 3.814z" opacity="1" data-original="#7c3108" class=""></path><path fill="#8c3f0a" d="M172.631 76.39c-30.362 15.674-68.533-2.216-75.774-35.746 5.009-4.639 10.994-8.222 17.746-10.387 28.227-9.163 56.357 12.318 60.643 41.029a4.948 4.948 0 0 1-2.615 5.104z" opacity="1" data-original="#8c3f0a" class=""></path><path fill="#7c3108" d="M175.245 71.286c-4.286-28.71-32.416-50.192-60.643-41.029-6.752 2.165-12.737 5.748-17.746 10.387.186.863.394 1.716.62 2.558a47.227 47.227 0 0 1 7.125-2.945c27.671-8.983 55.249 11.484 60.362 39.341a51.683 51.683 0 0 0 7.666-3.208 4.944 4.944 0 0 0 2.616-5.104z" opacity="1" data-original="#7c3108" class=""></path><path fill="#6d2e03" d="M175.245 71.286c-4.286-28.71-32.416-50.192-60.643-41.029-6.752 2.165-12.737 5.748-17.746 10.387.06.276.121.551.185.825a47.148 47.148 0 0 1 12.561-6.212c28.227-9.163 56.357 12.318 60.643 41.029.063.42.068.839.024 1.249.792-.36 1.58-.741 2.362-1.145a4.946 4.946 0 0 0 2.614-5.104z" opacity="1" data-original="#6d2e03" class=""></path><circle cx="110.979" cy="91.546" r="4.388" fill="#995222" opacity="1" data-original="#995222"></circle><circle cx="145.021" cy="91.546" r="4.388" fill="#995222" opacity="1" data-original="#995222"></circle><path fill="#f2ad97" d="M91.781 96.291v-6.356a6.704 6.704 0 0 0 0 13.408c.236 0 .458-.046.688-.069a36.358 36.358 0 0 1-.688-6.983zM164.225 96.291v-6.356a6.705 6.705 0 0 1 0 13.408c-.236 0-.458-.046-.688-.069.442-2.262.688-4.593.688-6.983z" opacity="1" data-original="#f2ad97"></path><path fill="#995222" d="M148.979 78.13c-7.46 0-14.67-1.63-21.41-4.85a49.977 49.977 0 0 1-16.88-13.13c-.699-.85-.58-2.12.261-2.82.819-.68 2.14-.55 2.819.27 8.71 10.5 21.54 16.53 35.2 16.53 2.59 0 5.17-.22 7.68-.67a2.013 2.013 0 0 1 2.32 1.62 2 2 0 0 1-1.62 2.32c-2.729.49-5.549.73-8.37.73zM107.68 54.31c-.71 0-1.37-.39-1.729-1v-.01a1.994 1.994 0 0 1 .739-2.73c.931-.53 2.2-.18 2.73.74v.01c.26.46.33 1 .189 1.51-.14.52-.47.95-.939 1.21-.3.17-.64.27-.99.27z" opacity="1" data-original="#995222"></path><path fill="#478cf7" d="m153.85 148.18-14.321-6.46v6.211L128 165.897l-11.529-17.966.001-6.211-14.312 6.46L128 218.317h.001z" opacity="1" data-original="#478cf7"></path><path fill="#5e9cf7" d="m102.16 148.18 10.793 29.276a1.74 1.74 0 0 0 2.862.628L128 165.897l-11.529-17.967v-6.21zM153.85 148.18l-10.802 29.276a1.74 1.74 0 0 1-2.862.628L128 165.897l11.529-17.967v-6.21z" opacity="1" data-original="#5e9cf7" class=""></path><path fill="#d1d3d4" d="m128 218.32-34.15-36.99c-.66-.72-.61-1.84.13-2.48l6.13-5.41c1.14-1 .54-2.88-.96-3.04l-7.21-.77a1.741 1.741 0 0 1-1.45-2.32l6.94-19.13h4.73zM164.06 169.63l-7.21.77c-1.5.16-2.1 2.04-.96 3.04l6.13 5.41c.74.64.79 1.76.13 2.48L128 218.32l25.85-70.14h4.75l6.91 19.13c.38 1.06-.33 2.2-1.45 2.32z" opacity="1" data-original="#d1d3d4"></path><path fill="#8c3f0a" d="M199.231 189.912a1.753 1.753 0 0 1-1.753-1.744l-.027-4.933a16.83 16.83 0 0 1 3.016-9.734 1.754 1.754 0 0 1 2.882 1.998 13.345 13.345 0 0 0-2.392 7.715l.027 4.933a1.754 1.754 0 0 1-1.744 1.763z" opacity="1" data-original="#8c3f0a" class=""></path><path fill="#e63950" d="M209.531 184.305a15.94 15.94 0 0 0-10.3 3.854 15.929 15.929 0 0 0-10.34-3.742c-8.992.048-16.242 7.595-16.191 16.856.05 9.261 7.463 31.974 16.456 31.926 3.917-.021 16.723.021 20.64 0 8.992-.048 16.158-22.952 16.108-32.213-.052-9.262-7.381-16.727-16.373-16.681z" opacity="1" data-original="#e63950"></path><path fill="#d10028" d="M225.903 200.985c-.033-5.985-3.106-11.22-7.703-14.163a17.05 17.05 0 0 1 2.703 9.163c.05 9.262-7.115 32.165-16.108 32.213-3.917.021-16.723-.021-20.64 0-1.021.006-2.021-.282-2.993-.81 2.373 3.488 5.101 5.826 7.993 5.81 3.917-.021 16.723.021 20.64 0 8.992-.048 16.158-22.951 16.108-32.213z" opacity="1" data-original="#d10028"></path><path fill="#76a34f" d="M195.023 170.522c2.897 1.864 4.053 5.577 4.478 7.554a1.392 1.392 0 0 1-1.061 1.65c-1.975.433-5.833.921-8.731-.943s-4.053-5.577-4.478-7.554a1.392 1.392 0 0 1 1.061-1.65c1.976-.433 5.835-.921 8.731.943z" opacity="1" data-original="#76a34f"></path><path fill="#648940" d="M199.5 178.077c-.414-1.929-1.525-5.511-4.271-7.416 1.331 1.844 1.977 4.046 2.271 5.416a1.392 1.392 0 0 1-1.061 1.65c-1.975.433-5.833.921-8.731-.943a5.813 5.813 0 0 1-.208-.14c.591.819 1.317 1.567 2.208 2.14 2.898 1.864 6.756 1.376 8.731.943a1.392 1.392 0 0 0 1.061-1.65z" opacity="1" data-original="#648940"></path><path fill="#76a34f" d="M206.553 163.428c-4.301 2.767-5.833 8.471-6.317 11.015a1.396 1.396 0 0 0 1.042 1.619c2.516.614 8.341 1.585 12.643-1.181s5.833-8.471 6.317-11.012a1.394 1.394 0 0 0-1.042-1.619c-2.516-.616-8.342-1.587-12.643 1.178z" opacity="1" data-original="#76a34f"></path><path fill="#648940" d="M219.196 162.25a23.687 23.687 0 0 0-.99-.22c-.517 2.613-2.073 8.141-6.286 10.851-3.808 2.449-8.81 1.969-11.653 1.4l-.031.162a1.395 1.395 0 0 0 1.042 1.619c2.516.614 8.341 1.585 12.643-1.181s5.833-8.471 6.317-11.011a1.396 1.396 0 0 0-1.042-1.62z" opacity="1" data-original="#648940"></path><path fill="#ffa91a" d="M213.14 215.779h-42.987a3.418 3.418 0 0 1-3.418-3.418v-10.69a3.418 3.418 0 0 1 3.418-3.418h42.987a3.418 3.418 0 0 1 3.418 3.418v10.69a3.418 3.418 0 0 1-3.418 3.418z" opacity="1" data-original="#ffa91a" class=""></path><path fill="#f79219" d="M213.14 198.253h-1.582v9.108a3.418 3.418 0 0 1-3.418 3.418h-41.404v1.582a3.418 3.418 0 0 0 3.418 3.418h42.987a3.418 3.418 0 0 0 3.418-3.418v-10.69a3.42 3.42 0 0 0-3.419-3.418z" opacity="1" data-original="#f79219" class=""></path><path fill="#ffffff" d="M174.262 205.168a1.2 1.2 0 0 1-1.201-1.201v-5.713h2.403v5.713c0 .664-.538 1.201-1.202 1.201zM185.852 205.168a1.2 1.2 0 0 1-1.201-1.201v-5.713h2.403v5.713a1.202 1.202 0 0 1-1.202 1.201zM197.442 205.168a1.2 1.2 0 0 1-1.201-1.201v-5.713h2.403v5.713a1.202 1.202 0 0 1-1.202 1.201zM209.031 205.168a1.2 1.2 0 0 1-1.201-1.201v-5.713h2.403v5.713c0 .664-.538 1.201-1.202 1.201z" opacity="1" data-original="#ffffff"></path></g></svg>