<svg xmlns="http://www.w3.org/2000/svg" version="1.1" xmlns:xlink="http://www.w3.org/1999/xlink" width="512" height="512" x="0" y="0" viewBox="0 0 512 512" style="enable-background:new 0 0 512 512" xml:space="preserve" class=""><g><path fill="#efefef" d="M512 267.203c0 71.777-42.559 152.246-114.645 169.317-58.058 13.75-75.535 73.843-141.355 73.843-81.348 0-119.324-62.414-166.215-118.601C55.18 350.293 0 362.715 0 267.203c0-98.719 83.219-114.84 121.527-149.71C166.461 76.59 141.477 0 256 0c101.754 0 118.645 56.797 165.602 109.367C459.469 151.757 512 154.766 512 267.203zm0 0" opacity="1" data-original="#efefef" class=""></path><path fill="#e2e2e2" d="M421.602 109.367C374.645 56.797 357.754 0 256 0c-10.844 0-20.43.688-28.95 1.969 75.266 10.43 93.24 60.59 135.052 107.398 37.867 42.39 90.398 45.399 90.398 157.836 0 71.777-42.559 152.246-114.645 169.317-49.324 11.68-69.363 56.796-114.628 70.113 10.12 2.41 20.992 3.726 32.773 3.726 65.82 0 83.297-60.093 141.355-73.84C469.441 419.45 512 338.98 512 267.204c0-112.437-52.531-115.441-90.398-157.836zm0 0" opacity="1" data-original="#e2e2e2" class=""></path><path fill="#efefef" d="M403.277 268.313c0 54.703-44.343 99.046-99.047 99.046-54.699 0-99.046-44.343-99.046-99.046 0-54.7 44.347-99.047 99.046-99.047 54.704 0 99.047 44.347 99.047 99.047zm0 0" opacity="1" data-original="#fccf3f" class=""></path><path fill="#efefef" d="M350.293 180.613c7.242 13.762 11.348 29.434 11.348 46.063 0 54.703-44.344 99.047-99.047 99.047-16.63 0-32.297-4.106-46.059-11.348 16.578 31.504 49.625 52.984 87.7 52.984 54.699 0 99.046-44.343 99.046-99.046-.004-38.07-21.484-71.118-52.988-87.7zm0 0" opacity="1" data-original="#efa335" class=""></path><path fill="#ffffff" d="M260.54 230.828c-17.458 13.309-27.47 33.516-27.47 55.442a7.5 7.5 0 1 0 15 0c0-17.207 7.86-33.067 21.563-43.512a7.506 7.506 0 0 0 1.418-10.516 7.5 7.5 0 0 0-10.512-1.414zm0 0" opacity="1" data-original="#ffdd88" class=""></path></g></svg>