<svg id="Layer_1" enable-background="new 0 0 512 512" viewBox="0 0 512 512" xmlns="http://www.w3.org/2000/svg"><g><g><path d="m68.8 347.4c.3.9.7 1.8 1.2 2.6-.5-.8-.9-1.7-1.2-2.6z" fill="#ea6077"/><path d="m437.8 381.2c-27.2 25.2-71.9 35.9-106.1 43-10.3 1.8-20.3 2.9-30.5 3.6-7.7 38.6-21.6 38.6-32.4.3-26.9-1.2-52.6-6-76.3-13.1-19.2 44.6-32.1 30.2-33-11.6-34.9-17.5-108.9-41.7-77.1-82 32.5-52.4 108.6-181.3 135.6-226.8 4.6-7.7 10.9-14.2 18.3-18.9 17.5-12.8 45.3-7.2 62 .5 8.5-.4 118.3 230.2 124.5 238.5 4.8 9.5 12.5 24.7 17.3 34.2 6.2 10.2 5.7 23.6-2.3 32.3z" fill="#ea6077"/><path d="m290.5 70.4c-1-.6-2-1.2-3.1-1.8 1.1.6 2.1 1.2 3.1 1.8z" fill="#cd3858"/><path d="m422.9 314.8c-4.6 4.5-9.9 9.1-15.9 13.6-5.7 4.3-11.6 8.2-17.7 11.8-.1-.2-.1-.5-.2-.7-5.9-25.1-40.1-95.8-73-156.9-2.2-4.1-4.4-8.1-6.6-12.1-.9-1.6-1.7-3.1-2.5-4.6-10.4-18.9-20.5-36.3-29.1-50.4-11.1-18.2-20-30.7-24.4-33.7-6.4-4.4-12.3-5.9-17.2-5.9 3.7-8 12.6-6.3 19.6-7.3 6.1-1 12.7-.9 19.8.8 10.3 2.5 17.5 5 22.6 7.1.6.6 1.3 1.2 1.9 1.8.1.1.3.3.4.4.2.2.4.4.6.6s.4.4.6.6c.1 0 .1.1.1.1.3.4.6.7 1 1.1.4.5.8.9 1.2 1.4 1 1.2 1.9 2.5 2.8 3.8.2.3.4.7.7 1 .2.4.5.7.7 1.1.1.2.2.3.3.5s.2.3.3.5c.2.3.4.6.5.9.3.5.5 1 .8 1.5z" fill="#cd3858"/><path d="m440.2 349c-.5 7.7-3.6 28.7-22 29.2-22.5.7-30.6 14.9-43 26.4-6.5 6-18.9 10.8-32.8 12.7 12.8-8.9 33.6-25.8 43-46.5 15.3-7.1 28-15.2 38.1-23 4.1-3.1 7.8-6.3 11.3-9.4z" fill="#2a723a"/><path d="m71.2 351.8c.4.6.9 1.1 1.4 1.6-.6-.5-1-1-1.4-1.6z" fill="#5f9c45"/><path d="m434.8 338.3c-14.9 13.1-28.6 22.5-49.4 32.4-10.9 22.6-31.6 39.6-52.4 52.6-10.2 3.3-21.4 3.3-31.9 4.4-7.7 38.6-21.6 38.6-32.4.3-26.9-1.2-52.6-6-76.3-13.1-19.2 44.6-32.1 30.2-33-11.6-29.9-12.1-59.8-26.3-75.4-41.1-12.6-12-12.7-28.2-1.7-40.8 142.4 62.4 119.7 48.8 270.4 47.4 18.9-10.7 58.4-29.4 78.5-37.5z" fill="#5f9c45"/><path d="m437.8 381.2c-10 11.2-27.9 19.1-42.4 24.7-21.8 8.8-43.1 14.7-63.8 18.2.2-.1 4.5-2.6 10.7-6.9 14-1.9 26.4-6.7 32.8-12.7 12.4-11.5 20.5-25.7 43-26.4 18.4-.5 21.5-21.6 22-29.2l1.3 2.6c5 9.9 3.5 21.7-3.6 29.7z" fill="#1c5128"/><path d="m68.8 347.4c.3.9.7 1.8 1.2 2.6-.5-.8-.9-1.7-1.2-2.6z" fill="#256131"/><path d="m342.4 417.3c-2.3 1.6-4.4 3-6.1 4.1-.4.3-.8.5-1.2.8-.6.4-1.1.7-1.5.9-.1.1-.2.1-.3.2-.3.2-.5.3-.8.5-.1.1-.2.1-.3.2-.3.2-.5.3-.6.3-8.9 1.5-17.7 2.6-26.3 3.3-1.4.1-2.8.2-4.2.3-.2 1.3-.5 2.6-.8 4-2.2 10.3-6.5 22.6-13.5 25.3-1.1.4-2.2.3-3.4-.3-5.2-2.8-10-14.1-13.5-24.7-.4-1.3-.9-2.6-1.2-3.9-1.4-.1-2.9-.1-4.3-.2-24.3-1.4-47.1-5.7-68.1-11.7-1.3-.4-2.6-.7-3.9-1.1-.4 1.1-.9 2.3-1.4 3.5-4.4 10-11.7 22.9-19.8 24.1-1.2.2-2.2-.2-3.2-1-5.4-4.7-7.6-21.5-8.3-34-.1-1.5-.2-2.9-.2-4.2-1.4-.6-2.8-1.1-4.1-1.7-29.8-12.6-54.1-27.4-71.3-39.5-3.5-3.9-8-10.2-9.2-17.8 2.6 1.9 5.6 4.7 8.9 8.7 10.6 13.1 17.1 3.8 34.2 16.2s10.8 19.5 36.9 21.8 30.4-.8 46.8 9.5c16.4 10.4 37.2 16 45.6 15.4s30.7-10.4 55.9-1.7c12.2 3.9 26.3 4.4 39.2 2.7z" fill="#256131"/><path d="m237.9 388.6h-.1c-90.6-10.1-146.2-42.7-162.5-53.4.3-1.3.8-2.7 1.3-4.1.5-1.2 1.1-2.4 1.8-3.7z" fill="#e7eda9"/><g><path d="m434.8 338.3c-3.5 3.1-7.3 6.3-11.3 9.4-10.1 7.8-22.8 15.9-38.1 23 4.3-9.5 6.3-19.8 4-30.5 6.1-3.6 12-7.5 17.7-11.8 6-4.5 11.3-9.2 15.9-13.6z" fill="#c1d36e"/><path d="m390.3 349.1v.4 1.3.1c0 .4 0 .9-.1 1.3 0 .3 0 .6-.1 1v.1c0 .2 0 .4-.1.6 0 .4-.1.8-.1 1.1-.1.4-.1.8-.2 1.1 0 .1 0 .3-.1.4-.1.6-.2 1.1-.3 1.7-.1.3-.1.5-.2.8s-.1.5-.2.8v.1.2c-.1.2-.1.4-.2.6-.2.8-.4 1.6-.6 2.3-.2.6-.4 1.2-.6 1.8s-.4 1.2-.6 1.8c-.2.5-.4 1.1-.6 1.6-.3.9-.7 1.7-1.1 2.5-25.8 12-59.1 21.1-101 21.1-7.9 0-16-.3-24.5-1-7.6-.6-14.9-1.4-22-2.3h-.1c-80.4-10.1-132-36.9-161.2-57.5.5-1.2 1.1-2.4 1.8-3.7.3-.6.7-1.2 1.1-1.8.7-1 1.6-2.4 2.8-4.2 1.9-3 4.5-7.1 7.5-12.1 5.8 4.2 12.8 8.8 21 13.4 28.6 16.3 78 36.9 151.2 42.9 49.1 4 91.8-4.5 127.4-25.4.1.6.2 1.2.3 1.8 0 .2.1.3.1.5s.1.3.1.5v.2c0 .2.1.4.1.6.1.4.1.8.1 1.2.1.5.1 1.1.1 1.6v.7c0 .4 0 .8.1 1.1.2.3.2.6.2.8z" fill="#d8e299"/></g><path d="m192.4 415c-.4 1.1-.9 2.3-1.4 3.5-4.4 10-11.7 22.9-19.8 24.1-1.2.2-2.2-.2-3.2-1-5.4-4.7-7.6-21.5-8.3-34-.1-1.5-.2-2.9-.2-4.2z" fill="#2a723a"/><path d="m301.2 427.8c-.2 1.3-.5 2.6-.8 4-2.2 10.3-6.5 22.6-13.5 25.3-1.1.4-2.2.3-3.4-.3-5.2-2.8-10-14.1-13.5-24.7-.4-1.3-.9-2.6-1.2-3.9z" fill="#2a723a"/><path d="m289.4 366.5.3-.1c-.2.1-.3.1-.3.1z" fill="#dd3b5d"/><ellipse cx="289.7" cy="147.7" fill="#cd3858" rx="19.4" ry="34.5" transform="matrix(.944 -.329 .329 .944 -32.476 103.598)"/><ellipse cx="251.9" cy="111.9" fill="#cd3858" rx="11.3" ry="17" transform="matrix(.944 -.329 .329 .944 -22.798 89.16)"/><ellipse cx="312.9" cy="173.3" fill="#cd3858" rx="8.2" ry="9.8" transform="matrix(.944 -.329 .329 .944 -39.613 112.665)"/><ellipse cx="259.5" cy="137.1" fill="#cd3858" rx="3.4" ry="4" transform="matrix(.944 -.329 .329 .944 -30.671 93.066)"/><path d="m84 362.2c-3.5-2.4-9.6-3.8-12.6-6.7-3.7-3.6-4.1-9-3.8-14.9 1.7.5 4.2 1.5 7.2 3.7 1.2 7.7 5.7 13.9 9.2 17.9z" fill="#44854d"/><path d="m74.9 344.3c-3.1-2.2-5.5-3.2-7.2-3.7.1-3.1 1-6.3 2.6-9 0 0 1.7 1.3 5 3.5-.8 3.3-.9 6.3-.4 9.2z" fill="#91c17f"/><path d="m76.6 331.1c-.6 1.4-1 2.7-1.3 4.1-3.3-2.2-5-3.5-5-3.5l2.2-3.6c1.2.9 2.6 1.9 4.1 3z" fill="#e7eda9"/><path d="m85.5 306.1-8 13.3-3.7 6.2-1.4 2.4c1.3 1 2.8 2 4.2 3.1.5-1.2 1.1-2.4 1.8-3.7.3-.6.7-1.2 1.1-1.8.7-1 1.6-2.4 2.8-4.2 1.9-3 4.5-7.1 7.5-12.1-1.5-1.1-2.9-2.2-4.3-3.2z" fill="#e7eda9"/><path d="m236.3 75.7c-7.4 4.7-13.8 11.1-18.3 18.9-23.4 39.6-99 167.2-128.2 214.7-1.5-1.1-3-2.2-4.3-3.2l10.5-17.5 15.9-26.6 8.4-14 25.9-43.3 28.2-47.1 45.4-75.9c.3-.5 6.7-6 16.5-6z" fill="#f7b4c7"/><path d="m298.3 76.3c-16.7-7.7-44.5-13.4-62-.5-9.8-.1-16.2 5.5-16.6 5.9-.6-3.9 4-8.8 8.4-11.5 20.2-12.6 52.8-10.6 70.2 6.1z" fill="#f38aa6"/><g><path d="m445.1 349.8-131.4-259.9c-11.9-23.5-37.8-35.7-63.2-29.8-16 3.7-29.5 11.4-34.3 19.4l-149.5 250c-5.9 9.9-3.4 22.5 5.8 29.3 15.8 11.8 44.8 31.1 82.9 46.9.5 12.1 2.5 32.5 9.8 38.8 1.6 1.4 3.4 2.1 5.3 2.1.4 0 .8 0 1.1-.1 10.6-1.5 18.9-17 23.2-27 23.7 6.8 47.3 10.8 70.7 12.2 3.6 11.2 9.1 24.8 16 28.5 1.3.7 2.6 1 4 1 .9 0 1.9-.2 2.8-.5 9.4-3.6 14-18.6 16.2-29.3 31.3-2.3 62.2-9.5 92.4-21.8 14.9-5.8 33.3-14 43.9-25.8 8.3-9.1 10-22.8 4.3-34zm-7.3 31.4c-10 11.2-27.9 19.1-42.4 24.7-31.2 12.6-61.4 19.3-90.1 21.5-1.4.1-2.8.2-4.2.3-.2 1.3-.5 2.6-.8 4-2.2 10.3-6.5 22.6-13.5 25.3-1.1.4-2.2.3-3.4-.3-5.2-2.8-10-14.1-13.5-24.7-.4-1.3-.9-2.6-1.2-3.9-1.4-.1-2.9-.1-4.3-.2-24.3-1.4-47.1-5.7-68.1-11.7-1.3-.4-2.6-.7-3.9-1.1-.4 1.1-.9 2.3-1.4 3.5-4.4 10-11.7 22.9-19.8 24.1-1.2.2-2.2-.2-3.2-1-5.4-4.7-7.6-21.5-8.3-34-.1-1.5-.2-2.9-.2-4.2-1.4-.6-2.8-1.1-4.1-1.7-35.4-15-63.1-33.2-80.4-46-7.5-5.6-9.6-15.9-4.8-24l149.5-250c4.2-7.1 17-14.1 31.7-17.6 4-.9 7.9-1.4 11.8-1.4 19.4 0 37.7 10.9 46.8 29l131.4 259.9c5 9.7 3.5 21.5-3.6 29.5z" fill="#4e1827"/></g><ellipse cx="166.6" cy="303" fill="#f04a5d" rx="11.6" ry="14.7" transform="matrix(.228 -.974 .974 .228 -166.428 396.069)"/><ellipse cx="277.6" cy="318.6" fill="#f04a5d" rx="11.6" ry="14.7" transform="matrix(.228 -.974 .974 .228 -96.01 516.144)"/><ellipse cx="177.9" cy="291.6" fill="#4e1827" rx="7.4" ry="14.9"/><ellipse cx="268.3" cy="303" fill="#4e1827" rx="7.4" ry="14.9"/><g fill="#cd3858"><ellipse cx="338.2" cy="238.4" rx="18.2" ry="26.8" transform="matrix(.944 -.329 .329 .944 -59.632 124.625)"/><ellipse cx="278.8" cy="202.2" rx="10.1" ry="14.9" transform="matrix(.944 -.329 .329 .944 -51.028 103.048)"/><ellipse cx="317.4" cy="269.5" rx="10.1" ry="14.9" transform="matrix(.944 -.329 .329 .944 -71.034 119.514)"/><ellipse cx="343.4" cy="291.6" rx="6.5" ry="9.6" transform="matrix(.944 -.329 .329 .944 -76.859 129.304)"/><ellipse cx="305.3" cy="208.3" rx="6.4" ry="9.5" transform="matrix(.944 -.329 .329 .944 -51.562 112.114)"/><ellipse cx="354.2" cy="273.4" rx="3.4" ry="4" transform="matrix(.944 -.329 .329 .944 -70.27 131.838)"/><ellipse cx="295.9" cy="224.1" rx="3.4" ry="4" transform="matrix(.944 -.329 .329 .944 -57.279 109.902)"/></g><g><g><path d="m199.5 321c-.6 0-1.2-.3-1.6-.8-.7-.9-.5-2.2.4-2.8 4.9-3.8 7.6-8 8-12.5.6-7-4.5-12.5-4.5-12.6-.8-.8-.7-2.1.1-2.9s2.1-.7 2.9.1c.3.3 6.3 6.9 5.6 15.7-.5 5.7-3.7 10.9-9.6 15.4-.4.3-.9.4-1.3.4z" fill="#4e1827"/></g><g><path d="m243 326.7c-.6 0-1.2-.3-1.6-.8-4.5-5.9-6.3-11.7-5.3-17.3 1.6-8.7 9.2-13.5 9.5-13.7.9-.6 2.2-.3 2.8.6s.3 2.2-.6 2.8c-.1.1-6.5 4.2-7.7 11-.8 4.5.7 9.2 4.5 14.1.7.9.5 2.2-.4 2.8-.3.4-.8.5-1.2.5z" fill="#4e1827"/></g><g><path d="m238 311.8c-.3 0-.6-.1-.8-.2-12.8-5.8-28.5-3.8-28.7-3.7-1.1.2-2.1-.6-2.3-1.7-.1-1.1.6-2.1 1.7-2.3.7-.1 17-2.2 30.9 4.1 1 .5 1.5 1.7 1 2.7-.3.7-1 1.1-1.8 1.1z" fill="#4e1827"/></g></g></g><g><path d="m114.1 50.7c-25.4 0-46 15.4-46 34.3s20.6 34.3 46 34.3 46-15.4 46-34.3-20.7-34.3-46-34.3z" fill="#fff"/></g><g><path d="m149.2 121.9c-7.7 0-14.1 4.5-14.1 9.9s6.5 9.9 14.1 9.9c7.7 0 14.1-4.5 14.1-9.9 0-5.3-6.5-9.9-14.1-9.9z" fill="#fff"/></g><g><path d="m114.6 62.8c2.9 0 5.4.5 7.5 1.4s3.8 2.2 5 3.9 1.8 3.7 1.8 6.1c0 2.5-.6 4.6-1.7 6.3s-2.6 2.9-4.4 3.8c-1.9.9-3.9 1.4-6.2 1.7v7h-5.4v-9.8c3.2-.5 5.6-1.1 7.4-1.8s3-1.6 3.7-2.6 1.1-2.3 1.1-3.9c0-1.5-.3-2.8-1-3.9s-1.7-1.9-3-2.5-3.1-.8-5.2-.8c-2.9 0-5.2.8-7 2.4s-2.9 3.8-3.2 6.5l-4.6-2.7c.5-2.2 1.4-4.2 2.8-5.8 1.4-1.7 3.1-3 5.2-3.9 2-1 4.4-1.4 7.2-1.4zm-.8 35.9c1.3 0 2.3.4 3.1 1.2s1.2 1.8 1.2 3.1-.4 2.3-1.2 3.1-1.8 1.2-3.1 1.2-2.3-.4-3.1-1.2-1.2-1.8-1.2-3.1.4-2.3 1.2-3.1 1.8-1.2 3.1-1.2z" fill="#cd3858"/></g></g></svg>