<?xml version="1.0" encoding="iso-8859-1"?>
<!-- Generator: Adobe Illustrator 19.0.0, SVG Export Plug-In . SVG Version: 6.00 Build 0)  -->
<svg version="1.1" id="Layer_1" xmlns="http://www.w3.org/2000/svg" xmlns:xlink="http://www.w3.org/1999/xlink" x="0px" y="0px"
	 viewBox="0 0 512.002 512.002" style="enable-background:new 0 0 512.002 512.002;" xml:space="preserve">
<path style="fill:#C5875E;" d="M321.695,378.282c-0.666,1.031-1.332,2.061-2.001,3.089c-15.029,23.118-31.033,45.811-50.593,65.246
	c-31.31,31.113-69.251,49.986-114.025,47.237c-81.615-5.011-143.715-75.235-138.704-156.851c0.721-11.741,2.885-23.22,6.355-34.448
	c57.484-9.125,114.411-24.438,165.736-51.731c48.4-25.739,91.516-62.917,119.471-109.807c22.5-7.85,44.468-17.364,64.822-29.857
	c8.112-4.979,16.607-10.279,23.707-16.663c9.373-8.428,14.222-21.53,20.207-32.756l28.181-41.773
	c0.394-0.585,0.831-1.141,1.303-1.665c5.278-5.834,10.554-11.667,15.832-17.499c1.49-1.647,4.226-0.589,4.22,1.632
	c-0.017,6.595-0.033,13.19-0.05,19.785c8.129-6.2,16.698-11.822,25.623-16.811c1.975-1.104,4.239,0.866,3.452,2.987
	c-4.214,11.362-9.773,22.17-15.378,32.909c-2.788,5.344-5.49,10.732-8.119,16.155c-26.232,54.128-42.787,111.677-67.1,166.828
	c-19.664,44.604-42.263,87.916-67.615,129.552C331.21,363.381,327.752,368.897,321.695,378.282z"/>
<path style="fill:#FF8B7A;" d="M22.873,302.555c28.025-55.137,207.859-151.374,285.061-161.538
	C307.934,141.018,229.765,302.346,22.873,302.555z"/>
<path style="fill:#421E12;" d="M479.853,41.307c5.605-10.739,11.164-21.547,15.378-32.909c0.786-2.122-1.478-4.091-3.453-2.987
	c-8.925,4.988-17.494,10.611-25.623,16.811c0.017-6.595,0.033-13.191,0.05-19.786c0.005-2.221-2.731-3.279-4.22-1.632
	c-5.278,5.833-10.554,11.665-15.832,17.499c-0.474,0.523-0.909,1.079-1.303,1.665l-28.181,41.773
	c-1.479,2.773-2.889,5.661-4.314,8.565c9.183,12.864,40.823,19.655,44.567,20.26c4.644-11.141,9.526-22.195,14.813-33.105
	C474.363,52.038,477.065,46.649,479.853,41.307z"/>
<path style="opacity:0.36;enable-background:new    ;" d="M446.742,27.261c-0.569-0.644-2.124-2.901-3.625-4.724l-4.676,6.932
	c-0.153,0.608-0.272,1.228-0.373,1.846c-1.261,7.75-1.356,15.69-0.28,23.468c0.115,0.83,0.316,1.768,1.042,2.184
	c0.813,0.464,1.826,0.027,2.653-0.41c2.543-1.341,5.106-2.696,7.304-4.548c2.198-1.851,4.03-4.266,4.673-7.067
	c0.74-3.224-0.156-6.613-1.516-9.628C450.627,32.39,448.866,29.665,446.742,27.261z"/>
<path style="fill:#421E12;" d="M417.815,75.856c-2.627-13.912-1.812-42.04,5.838-53.953c2.545-3.963,7.005-8.024,11.376-6.268
	c3.034,1.219,4.384,4.697,5.306,7.834c2.44,8.297,5.32,25.562,6.364,34.148L417.815,75.856z"/>
<path style="fill:#DCDCDC;" d="M167.051,438.478h-9.153c-6.738,0-12.199,5.461-12.199,12.199v52.253h33.551v-52.253
	C179.25,443.94,173.788,438.478,167.051,438.478z"/>
<path style="fill:#FFAEA2;" d="M104.104,266.79c-3.993,0-7.38-3.068-7.706-7.117c-0.344-4.261,2.831-7.994,7.092-8.337
	c15.83-1.278,85.402-30.396,122.11-62.855c3.202-2.833,8.094-2.531,10.925,0.67c2.832,3.203,2.531,8.094-0.671,10.926
	c-38.209,33.788-110.404,65.017-131.118,66.689C104.522,266.782,104.312,266.79,104.104,266.79z"/>
<path style="fill:#B36945;" d="M162.891,410.931c-10.11,0-19.792-1.217-28.656-3.348c-4.156-0.999-6.715-5.178-5.716-9.334
	c1-4.157,5.183-6.712,9.334-5.716c7.964,1.913,29.118,5.663,53.459-0.861c23.876-6.4,43.932-20.62,59.614-42.263
	c2.508-3.461,7.348-4.235,10.809-1.727c3.462,2.509,4.235,7.347,1.727,10.809C235.375,397.257,196.766,410.931,162.891,410.931z"/>
<g>
	<path style="fill:#DCDCDC;" d="M488.173,512.002H26.994c-4.274,0-7.74-3.464-7.74-7.74c0-4.276,3.465-7.74,7.74-7.74h461.179
		c4.274,0,7.74,3.464,7.74,7.74C495.913,508.537,492.448,512.002,488.173,512.002z"/>
	<path style="fill:#DCDCDC;" d="M470.933,510.278c-4.274,0-7.74-3.464-7.74-7.74V124.974c0-4.275,3.465-7.74,7.74-7.74
		s7.74,3.464,7.74,7.74v377.563C478.673,506.813,475.207,510.278,470.933,510.278z"/>
	<path style="fill:#DCDCDC;" d="M467.054,178.833c-1.98,0-3.962-0.755-5.473-2.266l-89.219-89.219
		c-3.023-3.024-3.023-7.924,0-10.946c3.023-3.022,7.924-3.022,10.945,0l89.219,89.219c3.023,3.024,3.023,7.924,0,10.946
		C471.015,178.077,469.035,178.833,467.054,178.833z"/>
</g>
<path style="fill:#B36945;" d="M364.656,212.012c-0.093,0-0.187-0.002-0.28-0.005c-4.272-0.151-7.612-3.738-7.46-8.01l0.525-14.787
	l-6.748,0.386c-4.261,0.258-7.926-3.016-8.17-7.284c-0.245-4.268,3.016-7.926,7.284-8.17l15.228-0.873
	c2.171-0.133,4.3,0.671,5.856,2.195c1.556,1.523,2.399,3.631,2.322,5.807l-0.827,23.276
	C372.236,208.726,368.803,212.012,364.656,212.012z"/>
<path style="opacity:0.1;fill:#5A2818;enable-background:new    ;" d="M408.597,215.114
	c-53.906,78.524-111.295,154.658-171.957,228.088c-8.341,10.098-16.761,20.167-24.085,31.025c-2.551,3.783-4.967,7.658-7.239,11.615
	c-0.338,0.589-0.665,1.233-0.919,1.892c24.062-7.744,45.619-22.148,64.706-41.116c19.559-19.436,35.563-42.129,50.593-65.247
	c0.669-1.029,1.335-2.059,2.001-3.089c6.057-9.386,9.515-14.901,15.324-24.441c25.353-41.635,47.951-84.947,67.615-129.552
	C405.979,221.238,407.296,218.179,408.597,215.114z"/>
<g>
</g>
<g>
</g>
<g>
</g>
<g>
</g>
<g>
</g>
<g>
</g>
<g>
</g>
<g>
</g>
<g>
</g>
<g>
</g>
<g>
</g>
<g>
</g>
<g>
</g>
<g>
</g>
<g>
</g>
</svg>
