<svg id="Layer_1" viewBox="0 0 128 128" xmlns="http://www.w3.org/2000/svg" data-name="Layer 1"><path d="m126 75c0 26.48-27.76 28-62 28s-62-1.52-62-28 27.76-50 62-50 62 23.52 62 50z" fill="#b58148"/><path d="m64 25c-34.24 0-62 23.52-62 50q0 1.68.15 3.23c6.52.4 9.12-2.51 10.16-4.9 3.03-24.52 29.48-45.33 61.69-45.33a73.32 73.32 0 0 1 15.8 1.72 72.29 72.29 0 0 0 -25.8-4.72z" fill="#cc9762"/><path d="m68.1 50.54c1.71.69 3.4 1.4 5.09 2.15 2.55 1.13 5 2.36 7.59 3.66s5 2.77 7.64 4.25a34 34 0 0 0 -5.24-7.36 48.62 48.62 0 0 0 -6.83-6c-1-.74-2.11-1.44-3.19-2.11 1.42-1.37 2.89-2.7 4.42-4 .44-.36.89-.71 1.34-1.06 2.39 1.21 4.76 2.47 7.09 3.8 2.76 1.54 5.41 3.25 8.09 5s5.23 3.68 7.91 5.6a54.42 54.42 0 0 0 -13.38-14.47c-1.59-1.22-3.23-2.37-4.9-3.46q2.65-1.84 5.45-3.57c1.14-.71 2.3-1.4 3.47-2.09a69.61 69.61 0 0 0 -8-2.91 44.56 44.56 0 0 0 -8.38 4.26q-2.35-1.23-4.75-2.23-3.31-1.45-6.72-2.64c1.23-.73 2.49-1.46 3.77-2.18-1.51-.09-3-.16-4.57-.16a73.19 73.19 0 0 0 -16.83 2l2.59.91a41.3 41.3 0 0 0 -4.26 3.08 39.61 39.61 0 0 0 -4.5 4.24 55.37 55.37 0 0 0 -15.57 1l-.25.16c4.1 1.41 8.11 2.64 12.08 3.85a36.09 36.09 0 0 0 -1.92 3.41 32.85 32.85 0 0 0 -2.66 7.62 27.54 27.54 0 0 0 -.61 7.94 119.71 119.71 0 0 1 8.6-12.23c1.3-1.58 2.66-3.06 4.07-4.5 4.36 1.33 8.67 2.7 12.93 4.15q2.23.77 4.43 1.58a32.25 32.25 0 0 0 -2.41 7.07 27.54 27.54 0 0 0 -.61 7.94 119.7 119.7 0 0 1 8.58-12.24zm-7.83-11.46a75.91 75.91 0 0 0 -9.05-2.46c2.36-1.92 4.85-3.72 7.45-5.44 3.52 1.36 7 2.78 10.45 4.29l1.85.84a39.3 39.3 0 0 0 -4.73 5.14q-2.94-1.33-5.97-2.37z" fill="#603b22"/><path d="m64 94c-32.24 0-58.72-1.35-61.71-23.61a38.12 38.12 0 0 0 -.29 4.61c0 26.48 27.76 28 62 28s62-1.52 62-28a38.12 38.12 0 0 0 -.29-4.61c-2.99 22.26-29.47 23.61-61.71 23.61z" fill="#916234"/><path d="m126 75c0 26.48-27.76 28-62 28s-62-1.52-62-28 27.76-50 62-50 62 23.52 62 50z" fill="none" stroke="#7a4d2d" stroke-linejoin="round" stroke-width="4"/></svg>