<svg xmlns="http://www.w3.org/2000/svg" version="1.1" xmlns:xlink="http://www.w3.org/1999/xlink" width="512" height="512" x="0" y="0" viewBox="0 0 512 512" style="enable-background:new 0 0 512 512" xml:space="preserve" class=""><g transform="matrix(-1,0,0,1,511.9603042602539,0)"><path fill="#ea6077" d="M305.3 463.3c8.7-.7 17.5-1.7 26.4-3.3 28.8-6.2 130.7-27.2 109.9-72.6-5.4-10.6-13.2-26.1-18.6-36.9-7.5-10.3-114.4-236.3-124.5-238.5-16.8-7.7-44.5-13.4-62-.5-7.4 4.7-13.8 11.1-18.3 18.8-29.6 50.5-106.6 179.6-141.4 236.5-5.2 10.3.8 24.7 7.4 31.1 21.8 16.8 68.9 40 102.3 51.9l61.7 16.2 57.2-.7z" opacity="1" data-original="#ea6077"></path><path fill="#cd3858" d="M290.5 106.3c-1-.6-2-1.2-3.1-1.8 1.1.5 2.1 1.1 3.1 1.8zM424.3 349.8c-9.4 9.2-23.2 19.5-35 26.3-5.6-26.7-50.1-116.3-82.3-174.5-10.4-18.9-20.5-36.4-29.1-50.4-17.7-26.5-20.1-37.5-41.6-39.6 3.7-8 12.6-6.3 19.6-7.3 12.1-2.9 36.6 4.1 45.4 7.9 9.3.6 116.3 228.5 123 237.6z" opacity="1" data-original="#cd3858"></path><path fill="#2a723a" d="M440.2 384.9c-.5 7.7-3.6 28.7-22 29.2-22.5.7-30.6 14.9-43 26.4-6.5 6-18.9 10.8-32.8 12.7 12.8-8.9 33.6-25.8 43-46.5 15.3-7.1 28-15.2 38.1-23 4.1-3.1 7.8-6.3 11.3-9.4z" opacity="1" data-original="#2a723a"></path><path fill="#5f9c45" d="M71.2 387.7c.4.6.9 1.1 1.4 1.6-.6-.5-1-1.1-1.4-1.6zM301.1 463.6c10.5-1.1 21.6-1 31.9-4.4 20.8-13.1 41.5-30 52.4-52.6 20.9-9.9 34.5-19.3 49.4-32.4l-3.6-7.1c-20.2 8.2-59.6 26.8-78.5 37.5-151 1.5-128.3 14.9-270.4-47.4-5.1 5.8-7.8 12.9-7.7 19.7.1 7.9 3.6 15.4 9.4 21.1 24.5 19.4 80.9 44.6 116.6 57.9l55.4 9.2 45.1-1.5z" opacity="1" data-original="#5f9c45"></path><path fill="#1c5128" d="M437.8 417.1c-10 11.2-27.9 19.1-42.4 24.7-21.8 8.8-43.1 14.7-63.8 18.2.2-.1 4.5-2.6 10.7-6.9 14-1.9 26.4-6.7 32.8-12.7 12.4-11.5 20.5-25.7 43-26.4 18.4-.5 21.5-21.6 22-29.2l1.3 2.6c5 9.8 3.5 21.7-3.6 29.7z" opacity="1" data-original="#1c5128"></path><path fill="#e7eda9" d="M237.9 424.5h-.1C147.2 414.3 91.5 381.8 75.2 371c.3-1.3.8-2.7 1.3-4.1.5-1.2 1.1-2.4 1.8-3.7l159.6 61.3c0-.1 0-.1 0 0z" opacity="1" data-original="#e7eda9"></path><path fill="#c1d36e" d="M434.8 374.2c-3.5 3.1-7.3 6.3-11.3 9.4-10.1 7.8-22.8 15.9-38.1 23 4.3-9.5 6.3-19.8 4-30.5 6.1-3.6 12-7.5 17.7-11.8 6-4.5 11.3-9.2 15.9-13.6z" opacity="1" data-original="#c1d36e"></path><path fill="#d8e299" d="M390.3 385V386.8c0 .4 0 .9-.1 1.3 0 .3 0 .6-.1 1v.1c0 .2 0 .4-.1.6 0 .4-.1.8-.1 1.1-.1.4-.1.8-.2 1.1 0 .1 0 .3-.1.4-.1.6-.2 1.1-.3 1.7-.1.3-.1.5-.2.8s-.1.5-.2.8V396c-.1.2-.1.4-.2.6-.2.8-.4 1.6-.6 2.3l-.6 1.8-.6 1.8c-.2.5-.4 1.1-.6 1.6-.3.9-.7 1.7-1.1 2.5-25.8 12-59.1 21.1-101 21.1-7.9 0-16-.3-24.5-1-7.6-.6-14.9-1.4-22-2.3h-.1c-80.4-10.1-132-36.9-161.2-57.5.5-1.2 1.1-2.4 1.8-3.7.3-.6.7-1.2 1.1-1.8.7-1 1.6-2.4 2.8-4.2 1.9-3 4.5-7.1 7.5-12.1 5.8 4.2 12.8 8.8 21 13.4 28.6 16.3 78 36.9 151.2 42.9 49.1 4 91.8-4.5 127.4-25.4l.3 1.8c0 .2.1.3.1.5s.1.3.1.5v.2c0 .2.1.4.1.6.1.4.1.8.1 1.2.1.5.1 1.1.1 1.6v.7c0 .4 0 .8.1 1.1.2.3.2.5.2.8z" opacity="1" data-original="#d8e299"></path><path fill="#dd3b5d" d="m289.3 402.4.3-.1c-.1 0-.2.1-.3.1z" opacity="1" data-original="#dd3b5d"></path><ellipse cx="289.7" cy="183.6" fill="#cd3858" rx="19.4" ry="34.5" transform="rotate(-19.21 289.872 183.7)" opacity="1" data-original="#cd3858"></ellipse><ellipse cx="251.9" cy="147.8" fill="#cd3858" rx="11.3" ry="17" transform="rotate(-19.21 252.059 147.869)" opacity="1" data-original="#cd3858"></ellipse><ellipse cx="312.9" cy="209.2" fill="#cd3858" rx="8.2" ry="9.8" transform="rotate(-19.21 313.122 209.305)" opacity="1" data-original="#cd3858"></ellipse><ellipse cx="259.5" cy="173" fill="#cd3858" rx="3.4" ry="4" transform="rotate(-19.21 259.667 173.099)" opacity="1" data-original="#cd3858"></ellipse><path fill="#44854d" d="M84 398c-3.5-2.4-9.6-3.8-12.6-6.7-3.7-3.6-4.1-9-3.8-14.9 1.7.5 4.2 1.5 7.2 3.7 1.2 7.7 5.7 14 9.2 17.9z" opacity="1" data-original="#44854d"></path><path fill="#91c17f" d="M74.9 380.2c-3.1-2.2-5.5-3.2-7.2-3.7.1-3.1 1-6.3 2.6-9 0 0 1.7 1.3 5 3.5-.8 3.2-.9 6.3-.4 9.2z" opacity="1" data-original="#91c17f"></path><path fill="#e7eda9" d="M76.6 366.9c-.6 1.4-1 2.7-1.3 4.1-3.3-2.2-5-3.5-5-3.5l2.2-3.6c1.2 1 2.6 2 4.1 3z" opacity="1" data-original="#e7eda9"></path><path fill="#e7eda9" d="m85.5 342-8 13.3-3.7 6.2-1.4 2.4c1.3 1 2.8 2 4.2 3.1.5-1.2 1.1-2.4 1.8-3.7.3-.6.7-1.2 1.1-1.8.7-1 1.6-2.4 2.8-4.2 1.9-3 4.5-7.1 7.5-12.1-1.5-1.1-2.9-2.2-4.3-3.2z" opacity="1" data-original="#e7eda9"></path><path fill="#f7b4c7" d="M236.3 111.6c-7.4 4.7-13.8 11.1-18.3 18.9-23.4 39.6-99 167.2-128.2 214.7-1.5-1.1-3-2.2-4.3-3.2L96 324.5l15.9-26.6 8.4-14 25.9-43.3 28.2-47.1 45.4-75.9c.3-.5 6.7-6.1 16.5-6z" opacity="1" data-original="#f7b4c7"></path><path fill="#f38aa6" d="M298.3 112.1c-16.7-7.7-44.5-13.4-62-.5-9.8-.1-16.2 5.5-16.6 5.9-.6-3.9 4-8.8 8.4-11.5 20.2-12.6 52.8-10.6 70.2 6.1z" opacity="1" data-original="#f38aa6" class=""></path><g fill="#cd3858"><ellipse cx="338.2" cy="274.2" rx="18.2" ry="26.8" transform="rotate(-19.21 338.43 274.415)" fill="#cd3858" opacity="1" data-original="#cd3858"></ellipse><ellipse cx="278.8" cy="238.1" rx="10.1" ry="14.9" transform="rotate(-19.21 279 238.237)" fill="#cd3858" opacity="1" data-original="#cd3858"></ellipse><ellipse cx="317.4" cy="305.3" rx="10.1" ry="14.9" transform="rotate(-19.21 317.669 305.521)" fill="#cd3858" opacity="1" data-original="#cd3858"></ellipse><ellipse cx="343.4" cy="327.4" rx="6.5" ry="9.6" transform="rotate(-19.21 343.67 327.634)" fill="#cd3858" opacity="1" data-original="#cd3858"></ellipse><ellipse cx="305.3" cy="244.2" rx="6.4" ry="9.5" transform="rotate(-19.21 305.55 244.33)" fill="#cd3858" opacity="1" data-original="#cd3858"></ellipse><ellipse cx="354.2" cy="309.3" rx="3.4" ry="4" transform="rotate(-19.21 354.496 309.503)" fill="#cd3858" opacity="1" data-original="#cd3858"></ellipse><ellipse cx="295.9" cy="259.9" rx="3.4" ry="4" transform="rotate(-19.21 296.08 260.098)" fill="#cd3858" opacity="1" data-original="#cd3858"></ellipse></g><path fill="#256131" d="M303.3 450.1c-25.2-8.8-47.5 1-55.9 1.7-8.4.6-29.2-5-45.6-15.4s-20.7-7.3-46.8-9.5-19.8-9.4-36.9-21.8-23.7-3.2-34.2-16.2c-3.3-4-6.3-6.8-8.9-8.7 1.1 7.7 5.6 13.9 9.2 17.8l16 14.1 48.5 24.7 6 2.2-22.9 21.4-1.5 8.8 10 2.7 41.9-9.7 17.4-7.7 18.3 5.7s17.1 2.4 30.4 4.2l-1.5 2.3-11.7 16.3 6 3.9 18.4-.9 34.8-11.1 27-11.7-2.6-1.2c4.3-.5 8.6-1.2 12.9-1.9s.2-.1.6-.3c.1 0 .2-.1.3-.2.2-.1.5-.3.8-.5.1-.1.2-.1.3-.2.4-.3.9-.6 1.5-.9.4-.2.8-.5 1.2-.8 1.7-1.1 3.7-2.4 6.1-4.1-12.9 1.8-27 1.2-39.1-3z" opacity="1" data-original="#256131" class=""></path><path fill="#4e1827" d="M445.1 385.7 313.7 125.8C301.9 102.3 275.9 90 250.5 96c-16 3.7-29.5 11.4-34.3 19.4l-149.5 250c-5.9 9.9-3.4 22.5 5.8 29.3 15.3 11.4 43 29.9 79.5 45.5 1.1.5 2.3 1 3.4 1.4l.9.3c1.2-.9 2.4-1.7 3.6-2.6l-.5-.2c-1.3-.5-2.6-1.1-3.9-1.6-.1 0-.1-.1-.2-.1-35.4-15-63.1-33.2-80.4-46-7.5-5.6-9.6-15.9-4.8-24l149.5-250c4.2-7.1 17-14.1 31.7-17.6 4-.9 7.9-1.4 11.8-1.4 19.4 0 37.7 10.9 46.8 29l131.4 259.9c4.9 9.7 3.4 21.6-3.7 29.6-10 11.2-27.9 19.1-42.4 24.7-26.3 11-52.2 17.4-77 20.4-.2 0-.4.1-.6.2-.1.1-4.6 2.3-10.8 5-16.2 7-47.8 19.5-64.7 18.1-2.7-.2-4.4-.9-4.6-1.9-.8-2.9 5.1-9.6 13.5-16.9 1.3-1.1 2.7-2.3 4.1-3.4-1.9-.2-3.8-.4-5.6-.6-15.5-1.7-30.3-4.5-44.3-8.1-2.1-.5-4.2-1.1-6.3-1.7-1.7.7-3.5 1.5-5.4 2.3l1.5.5c1.6.4 3.1.9 4.7 1.3 15.4 4.2 30.8 7.2 46 9.1-12.1 11-12.7 15.8-12 18.5.8 2.8 3.5 4.5 8.2 4.9 3.9.4 8.6 0 13.6-.8 25.9-4.3 61.6-21.4 63.4-22.2.2-.1.3-.2.5-.3 26.2-3.3 52.1-10 77.6-20.3 14.9-5.8 33.3-14 43.9-25.8 8.2-9.3 9.9-23 4.2-34.2z" opacity="1" data-original="#4e1827"></path><path fill="#4e1827" d="M205.2 454.3c-1.7.7-3.5 1.6-5.6 2.4-13.2 5.6-33.6 13.5-50 16.2-5 .8-9.6 1.2-13.6.8-4.7-.4-7.4-2.1-8.2-4.9-.8-3 0-8.5 16.1-22.1 2.8-2.4 5.6-4.6 8.2-6.6 1.2-1 2.4-1.8 3.5-2.6 1.3.5 2.6 1.1 3.9 1.6l.5.2c-1.2.9-2.4 1.7-3.6 2.6-13.7 10.2-25.8 21.8-24.7 25.9.3 1 1.9 1.7 4.6 1.9 14.5 1.3 39.9-7.8 57.1-14.8 1.9-.8 3.7-1.6 5.4-2.3 2.1.6 4.2 1.2 6.4 1.7z" opacity="1" data-original="#4e1827"></path><path fill="#fdde4f" d="M135.8 158.1s36.1-10.9 29.8-39.5c0 0 36.9-2.7 38.4-34.5 0 0 38.6 9.5 47.4-20.7 0 0 26.3 28.8 54.7 2 0 0 10.2 18.1 36.2 12.7l-22-12-11-18.6-14.1 13.7-15 4.3-16.2-4.2L249 46l-11.4 19.1-11 8-16.2-.1-15.1-5.4-5.3 18.3-7 11.6-12.3 7h-18.5l2.3 13.3-4.7 22.1z" opacity="1" data-original="#fdde4f"></path><path fill="#4e1827" d="M131.6 163.6c-.6 0-1.3-.3-1.7-.8-.7-.9-.4-2.2.5-2.8 1.3-.9 32.4-23.6 19-54.9l-1.8-4.1 4.3 1.4c.1 0 14.4 4.5 25.9-3.1 8.7-5.7 13.8-16.8 15.2-32.8l.3-3.6 2.9 2.1c.1.1 13.6 9.8 27.5 5.8 9.7-2.8 17.4-11.5 23.1-25.8l1.5-3.9 2.1 3.7c.1.2 10.3 17.6 26.1 19.1 10.2.9 20.7-4.9 31.2-17.3l2.5-2.9 1 3.7c.4 1.3 9.5 32.1 42.8 29.7 1.1-.1 2.1.8 2.2 1.9s-.8 2.1-1.9 2.2c-29.8 2.2-42.1-20.5-45.8-29.2-10.7 11.7-21.6 17.1-32.4 16.1-13.5-1.3-23-12.2-27.1-17.8-6 13.5-14.2 21.8-24.3 24.7-11.9 3.4-23.1-1.6-28.2-4.6C194.6 86 189 97 179.8 103c-9.4 6.2-19.9 5.5-25.5 4.5 10.8 32.4-21.4 55.9-21.7 56.2-.1-.2-.6-.1-1-.1z" opacity="1" data-original="#4e1827"></path><ellipse cx="171.1" cy="340.8" fill="#f04a5d" rx="11.6" ry="14.7" transform="rotate(-76.83 170.96 340.665)" opacity="1" data-original="#f04a5d"></ellipse><ellipse cx="288.7" cy="359.3" fill="#f04a5d" rx="11.6" ry="14.7" transform="rotate(-76.83 288.454 359.164)" opacity="1" data-original="#f04a5d"></ellipse><g fill="#4e1827"><ellipse cx="184.7" cy="333" rx="7.4" ry="14.9" fill="#4e1827" opacity="1" data-original="#4e1827"></ellipse><ellipse cx="275.1" cy="344.5" rx="7.4" ry="14.9" fill="#4e1827" opacity="1" data-original="#4e1827"></ellipse><ellipse cx="229.9" cy="364.1" rx="7.1" ry="12.9" transform="rotate(-19.21 230.1 364.337)" fill="#4e1827" opacity="1" data-original="#4e1827"></ellipse></g></g></svg>