<svg id="Layer_1" height="512" viewBox="0 0 64 64" width="512" xmlns="http://www.w3.org/2000/svg" data-name="Layer 1"><path d="m46.6 33.02s-.11 3.25-2.16 4.97c-1.91 1.6-4.84 1.31-5.23 1.27a.158.158 0 0 0 -.04-.01 8.893 8.893 0 0 1 .75-3.06c0-.01 0-.01.01-.01a5.3 5.3 0 0 1 1.4-1.9c2.05-1.72 5.27-1.26 5.27-1.26z" fill="#efa21b"/><path d="m50.49 21.24s-.39 3.23-2.58 4.77a6.066 6.066 0 0 1 -3.37.97 9.425 9.425 0 0 1 -1.83-.15c-.1-.02-.16-.03-.16-.03a7.6 7.6 0 0 1 .22-1.03 8.305 8.305 0 0 1 .42-1.2 6.728 6.728 0 0 1 1.03-1.69 4.566 4.566 0 0 1 .91-.84 5.256 5.256 0 0 1 1.66-.75 8.725 8.725 0 0 1 3.7-.05z" fill="#efa21b"/><path d="m56.97 9.86s-.95 3.11-3.37 4.25a7.146 7.146 0 0 1 -5.03-.01h-.01a.929.929 0 0 0 -.13-.04c-.16-.06-.25-.1-.25-.1a1.633 1.633 0 0 1 .08-.22c.07-.2.2-.52.38-.9a8.639 8.639 0 0 1 1.2-1.8 5.22 5.22 0 0 1 1.59-1.26.746.746 0 0 1 .12-.07c2.43-1.13 5.42.15 5.42.15z" fill="#efa21b"/><g fill="#f4cd0b"><path d="m45.38 39.08s-.1 3.25-2.15 4.97c-1.86 1.56-4.69 1.33-5.19 1.27a.453.453 0 0 0 -.08-.01 8.94 8.94 0 0 1 .53-2.52 5.869 5.869 0 0 1 1.63-2.45c2.05-1.72 5.26-1.26 5.26-1.26z"/><path d="m47.81 26.97s-.11 3.25-2.16 4.97a6.894 6.894 0 0 1 -4.56 1.3c-.15 0-.29-.01-.39-.02a2.716 2.716 0 0 1 -.32-.03 8.44 8.44 0 0 1 .2-1.39 8.271 8.271 0 0 1 .46-1.45 5.674 5.674 0 0 1 1.04-1.67 4 4 0 0 1 .46-.46 5.113 5.113 0 0 1 1.86-.97 8.673 8.673 0 0 1 3.41-.28z"/><path d="m52.91 15.19s-.39 3.23-2.58 4.76a6.1 6.1 0 0 1 -3.44.98 9.592 9.592 0 0 1 -1.77-.15l-.15-.03s.38-3.14 2.49-4.7a.55.55 0 0 1 .09-.07 4.875 4.875 0 0 1 .58-.34 8.013 8.013 0 0 1 4.78-.45z"/><path d="m49.98 9.72a5.684 5.684 0 0 1 -.14 1.32 8.892 8.892 0 0 1 -1.24 2.91s-.05-.03-.14-.08c-.05-.03-.12-.08-.2-.13-.17-.11-.38-.26-.62-.44a6.69 6.69 0 0 1 -2.5-3.52c-.6-2.6 1.26-5.27 1.26-5.27a7.92 7.92 0 0 1 3.29 3.62 3.5 3.5 0 0 1 .17.55 4.155 4.155 0 0 1 .12 1.04z"/><path d="m38.613 22.644c.834 2.543 3.811 3.85 3.811 3.85s1.627-2.816.794-5.359-3.811-3.85-3.811-3.85-1.627 2.815-.794 5.359z"/><path d="m34 36.1c1.262 2.36 4.422 3.13 4.422 3.13s1.113-3.055-.149-5.415-4.422-3.13-4.422-3.13-1.117 3.051.149 5.415z"/></g><path d="m45.512 15.211c-.609-2.606-3.461-4.168-3.461-4.168s-1.866 2.663-1.258 5.269 3.461 4.168 3.461 4.168 1.866-2.663 1.258-5.269z" fill="#efa21b"/><path d="m40.981 27.262c-.834-2.543-3.811-3.85-3.811-3.85s-1.627 2.816-.794 5.359 3.811 3.85 3.811 3.85 1.627-2.816.794-5.359z" fill="#efa21b"/><path d="m37.33 45.61a4.931 4.931 0 0 1 -.53-.17 9.1 9.1 0 0 1 -1.64-.75 5.877 5.877 0 0 1 -2.25-2.21c-1.26-2.36-.15-5.41-.15-5.41s3.16.77 4.42 3.13a2.4 2.4 0 0 1 .11.23 3.836 3.836 0 0 1 .28.78 8.277 8.277 0 0 1 -.24 4.4z" fill="#efa21b"/><path d="m56.62 3.87c-.99.94-1.94 1.93-2.83 2.96-.83.95-1.62 1.93-2.36 2.95a49.665 49.665 0 0 0 -2.86 4.32h-.01c-.07.13-.14.25-.21.37-.31.52-.6 1.05-.89 1.58q-1.26 2.31-2.34 4.73-.465 1.035-.9 2.1c-.54 1.3-1.04 2.63-1.51 3.95-.22.62-.43 1.23-.63 1.85-.5 1.51-.96 3.03-1.38 4.54-.14.49-.27.98-.4 1.47s-.25.99-.37 1.49c-.01 0-.01 0-.01.01-.25 1.03-.49 2.06-.71 3.07-.27 1.2-.51 2.37-.72 3.53-.16.86-.31 1.7-.45 2.53a127.753 127.753 0 0 0 -1.82 18.68h-1.21a128.636 128.636 0 0 1 1.79-18.56c.23-1.37.48-2.78.77-4.23.14-.7.29-1.4.44-2.11a.393.393 0 0 0 .03-.14c.01 0 .01-.01.01-.02.24-1.09.49-2.18.77-3.29.27-1.08.56-2.18.88-3.28.43-1.52.9-3.05 1.41-4.58.19-.56.38-1.13.59-1.69.52-1.45 1.07-2.89 1.68-4.32q.3-.72.63-1.44c.49-1.11 1.01-2.21 1.57-3.29.64-1.27 1.33-2.53 2.06-3.75.43-.71.87-1.41 1.32-2.09.33-.51.67-1 1.02-1.49.89-1.25 1.83-2.46 2.82-3.6a42.145 42.145 0 0 1 2.99-3.13z" fill="#bf760c"/><path d="m57.92 5.14a6.771 6.771 0 0 1 -4.13 1.69 8.491 8.491 0 0 1 -1.01.03 5.2 5.2 0 0 1 .02-.74 6.868 6.868 0 0 1 1.7-4.4c1.89-1.89 5.13-1.72 5.13-1.72s.18 3.25-1.71 5.14z" fill="#f4cd0b"/><path d="m62.25 28.88a136.837 136.837 0 0 0 -15.18 19.82 57.728 57.728 0 0 0 -7 15.3h-2.44c2.12-6.29 9.06-23.44 24.62-35.12z" fill="#efa21b"/><path d="m62.25 32.51c-.57.61-15.56 16.58-21.03 31.49h-2.26a82.236 82.236 0 0 1 8.11-15.3 67 67 0 0 1 15.18-16.19z" fill="#f4cd0b"/><path d="m24.28 47.82a.313.313 0 0 1 -.07.02c-.47.14-3.22.87-5.33-.35-2.32-1.34-2.99-4.52-2.99-4.52s3.09-1.01 5.41.33a6.483 6.483 0 0 1 2.55 3.18 8.509 8.509 0 0 1 .43 1.34z" fill="#efa21b"/><path d="m19.97 35.3a.411.411 0 0 1 -.09.04c-.49.25-3.04 1.41-5.3.58-2.51-.92-3.72-3.93-3.72-3.93s2.87-1.54 5.38-.62a6.409 6.409 0 0 1 3.03 2.63c.01.01.01.02.02.03a7.494 7.494 0 0 1 .68 1.27z" fill="#efa21b"/><path d="m13.09 22.95-.03.03c-.3.22-2.69 1.94-5.16 1.51-2.63-.46-4.35-3.23-4.35-3.23s2.56-2.01 5.19-1.54a6.768 6.768 0 0 1 3.84 2.54.138.138 0 0 1 .03.04 7.31 7.31 0 0 1 .48.65z" fill="#efa21b"/><path d="m25.79 54.1s-.08.02-.22.05a7.368 7.368 0 0 1 -5.14-.84c-2.19-1.54-2.58-4.77-2.58-4.77s3.17-.74 5.36.8a5.893 5.893 0 0 1 1.92 2.48 8.945 8.945 0 0 1 .66 2.28z" fill="#f4cd0b"/><path d="m22.55 41.89-.11.03a1.56 1.56 0 0 1 -.16.05 7.352 7.352 0 0 1 -5.14-.41c-2.32-1.33-2.98-4.52-2.98-4.52s3.09-1.01 5.4.33a5.4 5.4 0 0 1 1.73 1.66 4.526 4.526 0 0 1 .26.4.037.037 0 0 1 .01.03 8.727 8.727 0 0 1 .99 2.43z" fill="#f4cd0b"/><path d="m17.02 29.48h-.01c-.2.11-2.94 1.5-5.37.62-2.51-.92-3.72-3.94-3.72-3.94s2.86-1.53 5.38-.62a6.148 6.148 0 0 1 2.8 2.32 8.32 8.32 0 0 1 .92 1.62z" fill="#f4cd0b"/><path d="m22.3 26.3a5.874 5.874 0 0 1 -2.11 2.27 8.871 8.871 0 0 1 -1.81.91v.01c-.23.08-.37.12-.37.12a8.488 8.488 0 0 1 -.44-1.6v-.01a6.312 6.312 0 0 1 .37-3.8 5.744 5.744 0 0 1 1.96-2.17 8.7 8.7 0 0 1 2.32-1.14s1.24 3 .08 5.41z" fill="#efa21b"/><path d="m27.259 38c-1.256 2.363-4.414 3.141-4.414 3.141s-1.12-3.053.136-5.416 4.419-3.138 4.419-3.138 1.116 3.053-.141 5.413z" fill="#efa21b"/><path d="m30.46 51.06a6.5 6.5 0 0 1 -2.83 2.76 7.255 7.255 0 0 1 -.83.39c-.35.15-.58.22-.58.22a8.319 8.319 0 0 1 -.51-4.31c.04-.2.09-.39.15-.59.06-.17.13-.35.21-.52 1.13-2.42 4.24-3.36 4.24-3.36s1.28 2.99.15 5.41z" fill="#efa21b"/><path d="m18.22 19.45a7.283 7.283 0 0 1 -3.65 3.59h-.01c-.18.09-.28.13-.28.13a8.327 8.327 0 0 1 -.54-1.35 6.456 6.456 0 0 1 -.08-4.03c.92-2.51 3.94-3.72 3.94-3.72s1.53 2.86.62 5.38z" fill="#f4cd0b"/><path d="m21.123 29.245c1.573-2.165 4.808-2.5 4.808-2.5s.685 3.179-.888 5.344-4.808 2.5-4.808 2.5-.685-3.18.888-5.344z" fill="#f4cd0b"/><path d="m25.018 41.925c1.257-2.363 4.414-3.141 4.414-3.141s1.121 3.053-.135 5.416-4.414 3.141-4.414 3.141-1.121-3.053.135-5.416z" fill="#f4cd0b"/><path d="m27.74 64.01-1.21-.03a56.951 56.951 0 0 0 -.96-9.83c-.13-.74-.27-1.52-.44-2.33-.26-1.26-.56-2.59-.92-3.98-.11-.45-.24-.9-.36-1.36-.16-.56-.32-1.13-.49-1.71-.28-.93-.59-1.88-.92-2.85-.27-.81-.56-1.62-.88-2.46a.037.037 0 0 0 -.01-.03c-.19-.51-.4-1.03-.61-1.56 0-.02-.01-.03-.01-.04q-.495-1.23-1.05-2.49c-.19-.43-.39-.87-.59-1.31-.01-.01-.01-.02-.02-.03-.68-1.49-1.44-3-2.26-4.52-.29-.54-.59-1.08-.91-1.62q-1.38-2.43-3.04-4.88c-.14-.23-.3-.46-.45-.68a.138.138 0 0 0 -.03-.04c-.64-.94-1.32-1.87-2.03-2.8-.27-.38-.56-.75-.85-1.12l.95-.75c.38.49.76.98 1.12 1.47.69.92 1.35 1.84 1.97 2.76.28.41.56.81.82 1.22h.01c1.08 1.66 2.08 3.32 3 4.96v.01q.42.735.81 1.47v.01c.54 1.02 1.05 2.04 1.53 3.04.06.12.12.24.17.35.26.54.5 1.08.74 1.61.56 1.27 1.08 2.52 1.56 3.74.36.93.69 1.84 1.01 2.74.38 1.1.73 2.17 1.04 3.22s.6 2.04.86 3.02c.21.79.4 1.57.57 2.32.13.57.26 1.12.37 1.66.22 1.06.41 2.07.57 3.02a57.58 57.58 0 0 1 .94 9.8z" fill="#bf760c"/><path d="m11.77 19.06c-.1.45-.19.73-.19.73a9.441 9.441 0 0 1 -1.03-.33 6.767 6.767 0 0 1 -3.45-2.72c-1.31-2.33-.25-5.41-.25-5.41s3.17.71 4.48 3.05a6.882 6.882 0 0 1 .44 4.68z" fill="#efa21b"/><path d="m23.48 64h-2.21a82.038 82.038 0 0 0 -6.63-11.59 138.88 138.88 0 0 0 -12.89-16.26c11.3 8.48 18.06 19.85 21.73 27.85z" fill="#efa21b"/><path d="m22.27 64h-2.26c-6.66-11.95-16.58-22.51-17.05-23.01a65.045 65.045 0 0 1 11.68 11.42 77.9 77.9 0 0 1 7.63 11.59z" fill="#f4cd0b"/><path d="m12.58 22.26c-.64-.94-1.32-1.87-2.03-2.8a6.767 6.767 0 0 1 -3.45-2.72c-1.31-2.33-.25-5.41-.25-5.41s3.17.71 4.48 3.05a6.882 6.882 0 0 1 .44 4.68c.69.92 1.35 1.84 1.97 2.76a6.456 6.456 0 0 1 -.08-4.03c.92-2.51 3.94-3.72 3.94-3.72s1.53 2.86.62 5.38a7.283 7.283 0 0 1 -3.65 3.59c1.08 1.66 2.08 3.32 3 4.96a6.312 6.312 0 0 1 .37-3.8 5.744 5.744 0 0 1 1.96-2.17 64.44 64.44 0 0 1 .29 6.54 14.06 14.06 0 0 1 -.19 2.43 6.591 6.591 0 0 0 -.09 1.53 24.3 24.3 0 0 0 1.02 5.3q-.495-1.23-1.05-2.49c-.49.25-3.04 1.41-5.3.58-2.51-.92-3.72-3.93-3.72-3.93s2.87-1.54 5.38-.62a6.409 6.409 0 0 1 3.03 2.63c-.68-1.49-1.44-3-2.26-4.52-.2.11-2.94 1.5-5.37.62-2.51-.92-3.72-3.94-3.72-3.94s2.86-1.53 5.38-.62a6.148 6.148 0 0 1 2.8 2.32q-1.38-2.43-3.04-4.88c-.3.22-2.69 1.94-5.16 1.51-2.63-.46-4.35-3.23-4.35-3.23s2.56-2.01 5.19-1.54a6.768 6.768 0 0 1 3.84 2.54z" fill="#fff" opacity=".2"/><path d="m21.29 39.03q.45 1.44.99 2.94a7.352 7.352 0 0 1 -5.14-.41c-2.32-1.33-2.98-4.52-2.98-4.52s3.09-1.01 5.4.33a5.4 5.4 0 0 1 1.73 1.66z" fill="#fff" opacity=".2"/><path d="m23.48 64h-3.47c-6.66-11.95-16.58-22.51-17.05-23.01a65.045 65.045 0 0 1 11.68 11.42 138.88 138.88 0 0 0 -12.89-16.26c11.3 8.48 18.06 19.85 21.73 27.85z" fill="#fff" opacity=".2"/><path d="m27.74 64.01-1.21-.03a56.951 56.951 0 0 0 -.96-9.83 7.368 7.368 0 0 1 -5.14-.84c-2.19-1.54-2.58-4.77-2.58-4.77s3.17-.74 5.36.8a5.893 5.893 0 0 1 1.92 2.48c-.26-1.26-.56-2.59-.92-3.98-.47.14-3.22.87-5.33-.35-2.32-1.34-2.99-4.52-2.99-4.52s3.09-1.01 5.41.33a6.483 6.483 0 0 1 2.55 3.18c-.16-.56-.32-1.13-.49-1.71.75 1.87 1.56 3.7 2.35 5.35.17.37.35.72.52 1.07.48.97.95 1.86 1.4 2.63a7.255 7.255 0 0 1 -.83.39 57.58 57.58 0 0 1 .94 9.8z" fill="#fff" opacity=".2"/><path d="m38.04 45.32a127.753 127.753 0 0 0 -1.82 18.68h-1.21a128.636 128.636 0 0 1 1.79-18.56 9.1 9.1 0 0 1 -1.64-.75c.85-1.71 1.54-3.08 2.13-4.26.25-.47.47-.92.68-1.34a.539.539 0 0 0 .07-.13c.01 0 .01-.01.01-.02l.75-1.44c.49-.93.96-1.82 1.5-2.81-.13.5-.25.99-.37 1.49a5.3 5.3 0 0 1 1.4-1.9c2.05-1.72 5.27-1.26 5.27-1.26s-.11 3.25-2.16 4.97c-1.91 1.6-4.84 1.31-5.23 1.27-.27 1.2-.51 2.37-.72 3.53a5.869 5.869 0 0 1 1.63-2.45c2.05-1.72 5.26-1.26 5.26-1.26s-.1 3.25-2.15 4.97c-1.86 1.56-4.69 1.33-5.19 1.27z" opacity=".1"/><path d="m41.09 33.24c.77-1.39 1.69-3.05 2.91-5.24.14-.25.27-.5.4-.75a8.673 8.673 0 0 1 3.41-.28s-.11 3.25-2.16 4.97a6.894 6.894 0 0 1 -4.56 1.3z" opacity=".1"/><path d="m48.56 14.1c-.07.13-.14.25-.21.37.02-.14.05-.28.08-.41.01-.07.02-.13.03-.19.06-.35.13-.69.18-1.03.11-.56.21-1.1.32-1.63.22-1.09.45-2.13.73-3.08a3.5 3.5 0 0 1 .17.55 4.155 4.155 0 0 1 .12 1.04c.89-1.25 1.83-2.46 2.82-3.6a6.868 6.868 0 0 1 1.7-4.4c1.89-1.89 5.13-1.72 5.13-1.72s.18 3.25-1.71 5.14a6.771 6.771 0 0 1 -4.13 1.69c-.83.95-1.62 1.93-2.36 2.95a.746.746 0 0 1 .12-.07c2.43-1.13 5.42.15 5.42.15s-.95 3.11-3.37 4.25a7.146 7.146 0 0 1 -5.03-.01z" opacity=".1"/><path d="m47.91 26.01a6.066 6.066 0 0 1 -3.37.97 34.787 34.787 0 0 0 2.25-5.69 8.725 8.725 0 0 1 3.7-.05s-.39 3.23-2.58 4.77z" opacity=".1"/><path d="m50.33 19.95a6.1 6.1 0 0 1 -3.44.98c.53-1.82.91-3.6 1.24-5.29a8.013 8.013 0 0 1 4.78-.45s-.39 3.23-2.58 4.76z" opacity=".1"/><path d="m62.25 32.51c-.57.61-15.56 16.58-21.03 31.49h-3.59c2.12-6.29 9.06-23.44 24.62-35.12a136.837 136.837 0 0 0 -15.18 19.82 67 67 0 0 1 15.18-16.19z" opacity=".1"/></svg>