<svg id="Layer_1" enable-background="new 0 0 512 512" height="512" viewBox="0 0 512 512" width="512" xmlns="http://www.w3.org/2000/svg"><g><path d="m23.181 321.932s-1.355-51.977 75.277-78.191 95.031-118.384 169.409-117.538 108.474 51.106 124.955 78.588 45.796 45.14 70.296 61.705 20.275 55.436 20.275 55.436z" fill="#ab695d"/><path d="m463.117 266.496c-24.501-16.565-53.815-34.223-70.296-61.705s-50.577-77.742-124.955-78.588c-5.008-.057-9.755.321-14.291 1.059 62.953 7.459 93.139 52.182 108.34 77.529 16.481 27.482 45.796 45.14 70.296 61.705 24.5 16.566 20.275 55.436 20.275 55.436h30.905c.001 0 4.227-38.871-20.274-55.436z" fill="#935b50"/><path d="m408.964 385.803h-305.928c-6.391 0-12.585-2.449-17.527-6.932l-37.605-34.101h416.193l-37.605 34.101c-4.943 4.482-11.137 6.932-17.528 6.932z" fill="#deecf1"/><path d="m433.191 344.769-37.605 34.101c-4.943 4.482-11.137 6.932-17.528 6.932h30.905c6.391 0 12.585-2.45 17.528-6.932l37.605-34.101z" fill="#cbe5e8"/><path d="m481.852 348.716h-451.704c-9.304 0-17.758-5.416-21.647-13.869l-7.984-17.354c-1.703-3.702 1.001-7.924 5.077-7.924h500.811c4.075 0 6.78 4.221 5.077 7.924l-7.984 17.354c-3.889 8.453-12.342 13.869-21.646 13.869z" fill="#eef5f6"/><path d="m506.405 309.569h-30.905c4.075 0 6.78 4.221 5.076 7.924l-7.984 17.354c-3.889 8.453-12.342 13.869-21.646 13.869h30.905c9.304 0 17.758-5.416 21.646-13.869l7.984-17.354c1.704-3.702-1.001-7.924-5.076-7.924z" fill="#deecf1"/></g></svg>