<svg id="Flat" enable-background="new 0 0 512 512" viewBox="0 0 512 512" xmlns="http://www.w3.org/2000/svg"><path d="m472 135.998c0-13.233-10.767-24-24-24-7.954 0-15.014 3.893-19.383 9.871-4.363-7.625-4.614-17.664-4.617-17.894-.013-4.407-3.59-7.977-8-7.977-4.418 0-8 3.582-8 8 0 1.091.197 24.921 16.1 36.524.176 4.852.659 13.022 1.993 21.692 3.115 20.246 9.11 32.329 18.329 36.938 1.149.574 2.369.847 3.572.847 2.935 0 5.76-1.621 7.161-4.424 1.976-3.952.374-8.758-3.577-10.733-4.374-2.187-7.843-12.857-9.804-25.669 1.987.534 4.073.824 6.226.824 13.233.001 24-10.766 24-23.999zm-32 0c0-4.411 3.589-8 8-8s8 3.589 8 8-3.589 8-8 8-8-3.589-8-8z" fill="#ff9494"/><path d="m24 256v40h24s32 56 120 56c0 0 16 24 0 64h40l24-64h136l16 24-16 40h40l32-48-8-24s55.301-40.004 56-104c.712-65.136-79.536-80.74-160-80-79.997.736-144 8-176 40 0 0 0-40-64-40 0 0-16 40 16 56 0 0-48 8-56 40z" fill="#ff9494"/><path d="m434.971 336.572c-33.429-13.372-57.061-1.7-67.173 5.359-7.556-6.905-23.798-27.618-23.798-77.931 0-46.313 13.919-82.504 22.215-99.954 1.897-3.991.201-8.764-3.79-10.66-3.988-1.897-8.763-.201-10.659 3.79-8.275 17.405-21.772 52.228-23.562 96.939-41.211-7.704-71.947 3.181-88.203 11.576v-25.691c0-25.529-17.147-53.153-31.532-71.831-2.694-3.501-7.718-4.152-11.219-1.457s-4.153 7.719-1.457 11.219c23.313 30.273 28.207 50.463 28.207 62.069v13.043c-25.844-6.412-50.076.513-64 6.228v-59.271c0-4.418-3.582-8-8-8s-8 3.582-8 8v112c0 1.018.194 2.026.572 2.971l16 40c1.251 3.129 4.255 5.031 7.431 5.031.988 0 1.994-.185 2.968-.574 4.103-1.641 6.098-6.297 4.457-10.398l-15.428-38.571v-33.626c9.814-4.764 36.723-15.597 64-7.161v82.328c0 4.418 3.582 8 8 8s8-3.582 8-8v-67.826c4.032-2.602 11.989-7.148 23.224-10.813 19.614-6.397 40.472-7.568 62.116-3.509-6.625 16.033-25.278 52.328-65.309 75.202-3.837 2.192-5.169 7.079-2.978 10.915 1.477 2.585 4.176 4.033 6.954 4.032 1.345 0 2.709-.34 3.961-1.055 31.729-18.131 51.169-43.364 62.398-62.946 7.878 49.441 32.804 62.53 34.055 63.155 1.151.575 2.386.857 3.608.857 2.048 0 4.062-.791 5.587-2.316.846-.822 21.12-19.985 55.412-6.269 4.102 1.641 8.759-.355 10.398-4.457 1.642-4.101-.353-8.757-4.455-10.398z" fill="#f7c3c3"/></svg>