<svg id="Layer_1" height="512" viewBox="0 0 256 256" width="512" xmlns="http://www.w3.org/2000/svg"><g><g><path d="m115.38 74.744-3.565.376c-3.974.419-7.981.419-11.955 0l-3.553-.374c-16.991-1.79-33.97 4.047-46.054 16.125-14.442 14.434-23.296 34.459-23.039 56.55.489 42.079 34.611 76.656 76.681 77.671 44.314 1.069 80.573-34.534 80.573-78.606 0-22.028-9.058-41.941-23.653-56.216-11.999-11.737-28.744-17.284-45.435-15.526z" fill="#f79219"/></g><g><path d="m160.814 90.268c-1.364-1.335-2.791-2.589-4.271-3.762 11.198 13.586 17.924 30.996 17.924 49.977 0 44.072-36.259 79.675-80.573 78.606-18.334-.442-35.158-7.259-48.347-18.292 14.062 16.809 34.978 27.729 58.347 28.292 44.314 1.069 80.573-34.534 80.573-78.606 0-22.027-9.058-41.94-23.653-56.215z" fill="#ef7816"/></g><g><g><path d="m54.229 199.44c-.529 0-1.04-.21-1.42-.59v-.01h-.009c-.37-.38-.57-.88-.57-1.41 0-.54.221-1.04.601-1.41.76-.76 2.08-.75 2.819.01.381.38.58.89.58 1.42 0 .54-.21 1.04-.59 1.41s-.88.58-1.411.58zm-5.299-5.99c-.62 0-1.189-.27-1.57-.75-5.119-6.44-9.109-13.61-11.85-21.29-2.76-7.72-4.2-15.8-4.3-24.03 0-.3 0-.6 0-.9-.01-19.94 7.76-38.69 21.87-52.78.76-.76 2.08-.76 2.83 0 .779.78.779 2.05 0 2.83-13.351 13.34-20.7 31.08-20.7 49.95v.85c.189 15.7 5.47 30.53 15.28 42.88.689.86.54 2.12-.32 2.81-.36.28-.79.43-1.24.43z" fill="#ffa91a"/></g></g><g><g><path d="m106.38 69.793c-1.933 0-3.5-1.567-3.5-3.5v-4.678c0-8.46 4.174-16.356 11.164-21.122l.99-.675c1.597-1.088 3.773-.679 4.863.919 1.089 1.597.678 3.775-.92 4.864l-.99.675c-5.077 3.461-8.107 9.194-8.107 15.338v4.678c0 1.934-1.567 3.501-3.5 3.501z" fill="#5a7a39"/></g><g><path d="m106.38 94.397c-1.933 0-3.5-1.567-3.5-3.5v-28.723c0-9.875-4.104-19.444-11.258-26.251-1.4-1.333-1.455-3.548-.122-4.948 1.33-1.4 3.546-1.457 4.948-.123 8.536 8.123 13.432 19.54 13.432 31.323v28.723c0 1.932-1.567 3.499-3.5 3.499z" fill="#5a7a39"/></g></g><g><path d="m189.875 115.492c8.613-13.341 28.684-10.974 34.136 3.94 10.182 27.85 4.098 60.304-18.25 82.652-22.484 22.484-55.197 28.505-83.159 18.063-14.646-5.469-16.574-25.465-3.44-33.944l8.318-5.37c22.842-14.747 42.282-34.187 57.029-57.029z" fill="#ffa91a"/></g><g><path d="m224.012 119.431c-1.976-5.405-5.873-9.162-10.448-11.12.158.365.308.738.448 1.12 10.182 27.85 4.098 60.304-18.25 82.652-22.484 22.484-55.197 28.505-83.159 18.063-.252-.094-.5-.193-.745-.296 1.872 4.5 5.49 8.333 10.745 10.296 27.962 10.442 60.675 4.422 83.159-18.063 22.348-22.348 28.432-54.802 18.25-82.652z" fill="#f79219"/></g><g><path d="m224.012 119.431c-1.492-4.081-4.079-7.223-7.227-9.36.889 1.307 1.642 2.761 2.227 4.36 10.182 27.85 4.098 60.304-18.25 82.652-22.484 22.484-55.197 28.505-83.159 18.063-1.462-.546-2.797-1.237-4.003-2.046 2.053 3.06 5.069 5.577 9.003 7.046 27.962 10.442 60.675 4.422 83.159-18.063 22.348-22.348 28.432-54.802 18.25-82.652z" fill="#ef7816"/></g><g><path d="m178.509 49.136c1.728 1.898 1.265 4.889-.956 6.174-6.465 3.742-19.913 10.069-34.006 7.887-14.092-2.182-24.998-12.28-30.028-17.803-1.728-1.898-1.265-4.889.956-6.174 6.465-3.742 19.914-10.069 34.006-7.887s24.997 12.28 30.028 17.803z" fill="#76a34f"/></g><g><path d="m178.509 49.136c-2.812-3.087-7.462-7.602-13.475-11.366 3.265 2.624 5.887 5.245 7.72 7.258 1.728 1.898 1.265 4.889-.956 6.174-6.465 3.742-19.914 10.069-34.006 7.887-6.215-.962-11.808-3.466-16.553-6.436 5.692 4.575 13.352 9.158 22.308 10.545 14.092 2.182 27.541-4.145 34.006-7.887 2.221-1.287 2.684-4.278.956-6.175z" fill="#648940"/></g><g><g><path d="m107.484 95.563c-.756 0-1.513-.284-2.097-.854-1.185-1.158-1.207-3.057-.049-4.242 11.268-11.534 29.817-11.751 41.354-.483 1.185 1.158 1.207 3.057.049 4.242-1.155 1.187-3.056 1.208-4.242.05-9.167-8.955-23.912-8.784-32.869.383-.587.603-1.366.904-2.146.904z" fill="#ef7816"/></g></g><g><g><path d="m87.282 103.468c-.756 0-1.513-.284-2.097-.854-1.185-1.158-1.207-3.057-.049-4.242 5.458-5.588 12.766-8.715 20.576-8.806 7.823-.118 15.188 2.865 20.777 8.323 1.185 1.158 1.207 3.057.049 4.242-1.155 1.187-3.056 1.208-4.242.05-4.441-4.338-10.341-6.678-16.514-6.616-6.208.072-12.017 2.558-16.355 6.999-.586.603-1.365.904-2.145.904z" fill="#ef7816"/></g></g><g><g><path d="m67.29 95.563c-.756 0-1.513-.284-2.097-.854-1.185-1.158-1.207-3.057-.049-4.242 11.267-11.534 29.817-11.751 41.354-.483 1.185 1.158 1.207 3.057.049 4.242-1.156 1.187-3.056 1.208-4.242.05-9.167-8.955-23.912-8.784-32.869.383-.587.603-1.367.904-2.146.904z" fill="#ef7816"/></g></g><g><path d="m200.533 192.948c-.701 0-1.405-.244-1.975-.742l-31.963-27.968c-1.247-1.091-1.373-2.986-.282-4.233 1.09-1.247 2.985-1.374 4.233-.282l31.963 27.968c1.247 1.091 1.373 2.986.282 4.233-.592.677-1.423 1.024-2.258 1.024z" fill="#f79219"/></g><g><path d="m174.04 211.873c-.84 0-1.675-.351-2.269-1.036-9.007-10.397-14.97-23.835-17.723-39.941-.279-1.633.818-3.184 2.451-3.462 1.637-.283 3.184.818 3.463 2.452 2.565 15.01 8.064 27.466 16.344 37.023 1.085 1.252.949 3.147-.303 4.232-.567.491-1.267.732-1.963.732z" fill="#f79219"/></g><g><path d="m142.284 219.174c-1.315 0-2.521-.872-2.89-2.201-3.202-11.579-3.215-24.78-.038-39.235.355-1.618 1.95-2.64 3.573-2.286 1.618.355 2.643 1.956 2.286 3.574-2.964 13.491-2.978 25.72-.038 36.348.441 1.597-.495 3.25-2.092 3.691-.267.074-.536.109-.801.109z" fill="#f79219"/></g><g><path d="m216.934 167.083c-.583 0-1.172-.17-1.689-.523-10.226-6.988-22.298-10.988-35.884-11.89-1.652-.11-2.904-1.539-2.794-3.192.109-1.653 1.5-2.904 3.192-2.795 14.67.974 27.748 5.322 38.87 12.923 1.368.935 1.72 2.802.784 4.17-.581.849-1.521 1.307-2.479 1.307z" fill="#f79219"/></g><g><path d="m188.127 140.588c-1.303 0-2.501-.854-2.881-2.168-.46-1.592.457-3.255 2.049-3.715 13.085-3.783 24.078-4.336 33.599-1.691 1.597.443 2.531 2.097 2.088 3.693-.444 1.598-2.101 2.529-3.693 2.088-8.421-2.338-18.339-1.791-30.327 1.673-.279.081-.56.12-.835.12z" fill="#f79219"/></g></g></svg>