<svg id="Capa_1" enable-background="new 0 0 512 512" height="512" viewBox="0 0 512 512" width="512" xmlns="http://www.w3.org/2000/svg"><g><g><path d="m381.329 118.125c-13.231-20.933-38.338-54.468-80.53-80.191-37.193-22.703-115.952-56.654-146.893-25.203-12.501 12.706-17.71 36.763-8.751 52.072 15.106 26.036 60.736 10.206 125.432 33.222 29.274 10.414 51.152 24.786 64.904 35.201z" fill="#ff5079"/><path d="m103.9 436.599c-.729 14.997-16.877 35.722-37.088 39.054-12.606 2.083-22.919-3.333-26.357-5.103-34.171-17.808-38.963-73.421-39.484-93.834-.104-3.749 3.334-6.457 6.98-5.624 59.695 13.435 97.199 41.346 95.949 65.507z" fill="#ff5079"/><path d="m378.838 374.999c-.003-3.907-4.93-5.624-7.347-2.555-9.64 12.24-24.037 27.311-44.44 40.41-22.573 14.494-44.735 21.593-62.199 25.123-5.327 1.077-6.248-1.621-10.579-1.1-.668.08-5.3 3.622-5.959 3.74-5.589 1.001-10.857 3.35-15.364 6.838l-15.16 11.733c-4.828 3.736-2.185 11.467 3.919 11.467h56.795c13.127 0 23.753 10.414 23.753 23.224v5.207c0 7.075-5.735 12.81-12.81 12.81h-92.137l-8.015-4.577-7.473 4.577h-54.586c-17.919 0-32.4-14.476-32.4-32.389 0-8.644-3.438-16.767-9.48-22.912-27.712-28.119-44.693-66.652-44.484-109.248.013-2.669.094-5.321.242-7.955.152-2.705 7.504-6.025 7.794-8.69s-6.481-4.675-6.055-7.297c9.604-59.201 53.145-107.007 109.794-123.704 2.307-.68 5.884 2.449 8.233 1.873 2.658-.651 4.093-4.991 6.801-5.505 9.518-1.806 19.333-2.75 29.356-2.75h80.119l7.997 3.801c2.927 0 4.842-4.198 7.532-4.939 13.394-3.693 23.22-15.952 23.22-30.522l-.104-56.03c13.231-5.728 34.796-12.914 61.778-13.122 9.897-.104 83.031-.625 117.201 53.114 6.042 9.477 15.106 27.286 16.252 53.843v3.124c0 23.44-18.933 42.458-42.34 42.594-7.782.045-14.832 4.57-17.756 11.782l-5.517 13.606-9.05 7.248 3.196 7.19-1.249 3.081c-4.792 11.768-7.293 24.474-7.293 37.18v87.737l-4.489 8.369 4.489 8.738v25.784c0 7.264 4.413 13.719 11.082 16.598 10.543 4.551 17.868 14.879 17.774 26.923-.054 6.985-5.825 12.582-12.809 12.582h-50.531c-9.689 0-17.606-7.707-17.606-17.288l-.041-52.664 3.707-7.561-3.72-7.895z" fill="#ff678d"/><g><path d="m494.78 145.62c-34.171-53.738-107.304-53.218-117.201-53.114-4.611.036-9.051.288-13.332.689 26.323 2.311 73.964 12.064 99.628 52.425 6.042 9.477 15.106 27.286 16.252 53.843v3.124c0 23.44-18.933 42.458-42.34 42.595-7.782.045-14.832 4.57-17.756 11.782l-12.621 31.127c-4.792 11.768-7.293 24.474-7.293 37.18v130.628c0 7.265 4.413 13.719 11.082 16.598 10.543 4.551 17.868 14.879 17.774 26.924-.054 6.984-5.824 12.582-12.809 12.582h30.905c6.985 0 12.755-5.598 12.809-12.582.094-12.044-7.231-22.372-17.774-26.924-6.669-2.879-11.082-9.333-11.082-16.598v-25.784l-4.489-8.738 4.489-8.369v-87.737c0-12.706 2.5-25.411 7.293-37.18l1.249-3.081-3.196-7.19 9.05-7.248 5.517-13.607c2.924-7.212 9.974-11.736 17.756-11.782 23.407-.137 42.34-19.155 42.34-42.595v-3.124c-1.146-26.559-10.209-44.367-16.251-53.844z" fill="#ff5079"/></g><path d="m370.806 141.141c-15.731-19.163-44.693-49.365-89.802-69.777-39.692-18.017-122.098-42.179-148.872-7.082-10.835 14.164-13.127 38.638-2.292 52.801 18.231 24.057 61.466 2.708 128.557 17.705 30.316 6.769 53.756 18.329 68.758 26.973z" fill="#ff678d"/><path d="m439.564 285.008 5.855-14.439c-16.622-4.431-33.713-5.829-50.879-4.136-19.329 1.904-38.525 7.905-55.54 17.354-3.558 1.602-7.071 3.298-10.532 5.092-4.766-8.475-9.178-17.188-13.146-25.995-10.14-22.504-17.741-46.265-22.639-70.713-2.69.742-5.521 1.146-8.448 1.146h-7.079c5.11 26.253 13.199 51.771 24.077 75.914 4.162 9.239 8.792 18.378 13.791 27.266-5.727 3.518-11.291 7.286-16.64 11.322-15.713 11.856-29.637 25.808-41.546 41.588-19.439-45.401-58.113-72.487-75.413-82.791-.135-1.237-.253-2.476-.399-3.712-2.659-22.482-7.157-44.928-13.342-66.825-5.101.968-10.116 2.182-15.033 3.631 6.048 21.298 10.442 43.136 13.028 65.009 4.704 39.788 3.621 80.08-3.182 120.042-10.142-13.545-22.287-25.337-36.254-34.826-29.339-19.937-60.521-25.609-83.385-26.53-.82 5.055-1.391 10.193-1.703 15.401 20.824.699 49.559 5.668 76.404 23.909 18.201 12.367 71.429 58.081 64.264 149.18h15.488c2.783-39.633-5.411-77.276-22.657-108.329 8.12-38.991 10.949-78.395 8.455-117.491 8.025 5.53 18.221 13.459 28.279 23.768 22.912 23.482 36.513 49.988 40.425 78.783 2.321 17.09 1.145 34.566-3.495 52.002.66-.118 1.321-.228 1.989-.308 4.329-.521 9.222-1.27 14.546-2.346 3.802-17.222 4.575-34.476 2.272-51.429-.915-6.736-2.277-13.187-4.009-19.356 12.284-18.155 27.263-33.969 44.576-47.032 17.91-13.514 54.112-34.97 88.363-38.345 14.669-1.446 29.273-.368 43.509 3.196z" fill="#f3e8ce"/><path d="m445.418 270.569c-9.548-2.545-19.251-4.084-29.033-4.617l-6.184 15.25c9.894.12 19.713 1.389 29.362 3.805z" fill="#ffd09d"/><path d="m378.879 426.592.012 15.456c8.996-.317 17.961-1.481 26.726-3.495 8.716-2.003 17.227-4.834 25.405-8.44v-17.107c-9.158 4.652-18.859 8.186-28.866 10.486-7.634 1.754-15.441 2.797-23.277 3.1z" fill="#f3e8ce"/><path d="m405.617 438.552c8.716-2.003 17.227-4.834 25.405-8.44v-17.107c-9.158 4.652-18.859 8.186-28.866 10.486-.678.156-1.359.299-2.039.444v15.755c1.84-.345 3.675-.719 5.5-1.138z" fill="#ffd09d"/></g></g></svg>