<svg id="Capa_1" enable-background="new 0 0 512 512" height="512" viewBox="0 0 512 512" width="512" xmlns="http://www.w3.org/2000/svg"><g><g><g><path d="m76.352 442.863h-20.586c-4.902 0-9.126-3.458-10.105-8.261-5.385-26.422-10.771-52.505-16.156-78.969-.458-2.252-1.651-4.289-3.399-5.781-5.056-4.315-15.832-14.914-20.055-29.815-.543-1.917 1.283-5.471.983-7.526-.459-3.142-2.864-4.874-2.601-8.314.041-.538.092-1.08.154-1.625.967-8.559 4.204-15.475 7.41-20.48 2.463-3.846 2.057-8.812-.899-12.293-2.877-3.388-5.755-8.325-6.156-14.772-.413-6.637 1.908-13.125 6.224-18.193 3.439-4.038 3.218-10.038-.488-13.832-4.523-4.632-9.249-11.567-10.412-20.974-1.683-13.609 4.725-27.279 16.421-35.465 1.985-1.389 3.383-3.47 3.971-5.82.75-2.999 1.716-6.414 2.965-10.039.758-2.2 4.186-3.018 5.167-5.329 1.113-2.623-.187-6.746 1.254-9.386 5.413-9.913 13.29-19.474 24.777-25.152 14.809-7.32 29.442-5.136 38.189-3.897 36.93 5.23 74.494 5.083 111.474 9.836 2.593.333 4.927 4.441 7.514 4.826 2.53.377 5.415-3.006 8.143-2.653 17.706 2.293 39.557 3.977 65.293 3.484 2.584-.05 5.21 7.86 7.871 7.765 2.491-.089 5.013-8.179 7.572-8.31 9.966-.512 20.445-1.356 31.425-2.609 3.275-.374 6.182-2.272 7.813-5.137 5.607-9.848 19.099-29.174 44.378-39.157 32.586-12.869 61.358-.972 69.363 2.339 35.388 14.633 51.465 45.732 57.404 60.545 1.687 4.209.422 9.021-3.11 11.864-7.452 5.998-14.904 11.997-22.357 17.995-2.451 1.973-5.669 2.719-8.738 2.026-4.365-.986-8.73-1.971-13.095-2.957-3.805-.859-7.77.502-10.244 3.518-5.512 6.718-11.024 13.436-16.535 20.153-2.562 3.123-3.065 7.447-1.285 11.073 4.808 9.797 9.003 22.894 7.829 37.897-1.891 24.151-17.191 46.782-41.04 62.457-2.236 1.47-6.831.829-9.213 2.172s-2.551 4.668-5.072 5.876c-6.2 2.969-12.807 5.515-19.761 7.569-1.777.525-3.366 1.493-4.615 2.788-1.064 1.104-6.117 2.39-6.592 3.897-1.473 4.678 1.524 9.41.404 14.088-3.671 15.328-6.064 30.657-11.217 45.985-.547 1.628-.709 3.362-.426 5.057 2.307 13.842 4.614 27.684 6.921 41.526 1.048 6.286-3.8 12.009-10.172 12.009h-22.532c-5.439 0-9.944-4.225-10.292-9.653l-4.457-69.523c-.132-2.054-.875-4.022-2.135-5.651l-9.792-12.659-7.408-13.986c-.582-.752-5.13-2.01-5.869-2.561-2.401-1.792-5.509-2.478-8.517-1.769-5.225 1.232-10.878 2.413-16.928 3.466-2.971.517-5.995-2.149-9.153-1.703-2.22.314-4.527 3.76-6.836 4.031-12.562 1.475-26.426 2.272-41.379 1.881-20.996-.549-39.943-3.331-56.424-7.058-2.624-.593-5.323-3.772-7.82-4.409-2.497-.636-4.792 1.271-7.159.602-6.087-1.719-11.738-3.527-16.925-5.338-1.998-.697-4.068-.741-5.973-.247-3.395.88-7.86 2.411-8.874 6.043-.476 1.703.507 4.56-.272 6.416-1.448 3.451-3.485 7.085-6.352 10.604-3.114 3.823-6.486 6.623-9.506 8.652-3.406 2.288-5.155 6.357-4.435 10.396 4.2 23.554 8.4 46.823 12.6 70.339 1.129 6.323-3.732 12.128-10.152 12.128z" fill="#ff678d"/><path d="m103.346 318.298c-9.997-7.545-24.723-15.833-44.06-19.283-22.802-4.067-41.998.3-54.842 5.183-.435 5.689.242 10.989 1.616 15.836.499-.098.996-.245 1.484-.448 10.859-4.497 28.181-9.077 49.029-5.358 16.538 2.95 29.113 10.068 37.618 16.517.777-1.853 1.395-3.656 1.871-5.358 1.014-3.632 3.889-6.209 7.284-7.089z" fill="#f3e8ce"/><g><path d="m511.26 137.87c-5.938-14.813-22.015-45.912-57.404-60.545-6.693-2.768-27.901-11.525-53.714-6.809 10.933 1.903 19.101 5.276 22.809 6.809 35.388 14.633 51.466 45.732 57.404 60.545 1.687 4.209.422 9.021-3.11 11.864-7.452 5.998-14.904 11.997-22.357 17.995-2.451 1.973-5.669 2.719-8.738 2.026-4.365-.985-8.73-1.971-13.095-2.957-3.805-.86-7.77.502-10.244 3.518-5.512 6.717-11.023 13.435-16.535 20.153-2.563 3.123-3.065 7.447-1.285 11.073 4.808 9.797 9.003 22.894 7.829 37.896-2.681 34.249-32.33 65.442-75.086 78.074-3.292.972-5.938 3.465-6.969 6.739-6.301 20.006-8.325 40.012-15.05 60.018-.547 1.628-.709 3.362-.426 5.057 2.307 13.842 4.614 27.684 6.921 41.526.801 4.804-1.847 9.269-5.982 11.112 1.282.571 2.695.896 4.184.896h22.531c6.373 0 11.22-5.722 10.172-12.009-2.307-13.842-4.614-27.684-6.921-41.526-.282-1.695-.121-3.429.426-5.057 5.153-15.328 7.546-30.657 11.217-45.985 1.12-4.678-.383-8.383 1.09-13.06.474-1.506 4.033-3.82 5.097-4.924 1.248-1.295 2.837-2.263 4.614-2.788 6.953-2.054 13.56-4.6 19.761-7.569 2.925-1.401 3.827-4.386 6.565-5.969 1.98-1.145 5.843-.845 7.72-2.079 23.85-15.675 39.15-38.306 41.04-62.458 1.175-15.003-3.02-28.1-7.829-37.896-1.78-3.627-1.277-7.95 1.285-11.073 5.512-6.718 11.023-13.436 16.535-20.153 2.474-3.016 6.439-4.378 10.244-3.518 4.365.985 8.73 1.971 13.095 2.957 3.069.693 6.287-.053 8.738-2.026 7.452-5.998 14.904-11.997 22.357-17.995 3.533-2.841 4.798-7.653 3.111-11.862z" fill="#ff5079"/></g><path d="m364.036 320.314c-.206.049-.412.102-.617.169-8.996 2.966-18.268 5.282-27.559 6.883-18.186 3.135-36.817 3.626-55.409 1.473.739.551 1.417 1.198 1.999 1.95l11.285 14.588c3.127.139 6.252.234 9.373.234 11.885 0 23.715-1.007 35.378-3.018 6.486-1.118 12.962-2.563 19.355-4.306 1.12-4.678 2.355-9.356 3.828-14.034.475-1.506 1.303-2.836 2.367-3.939z" fill="#f3e8ce"/><path d="m364.035 320.314c-.206.049-.412.102-.616.169-8.996 2.966-18.268 5.282-27.559 6.883-2.102.362-4.211.686-6.324.977-1.541 5.354-2.82 10.708-4.009 16.062 4.338-.468 8.66-1.07 12.959-1.812 6.486-1.118 12.962-2.563 19.355-4.306 1.12-4.678 2.355-9.356 3.828-14.034.474-1.506 1.303-2.836 2.366-3.939z" fill="#ffd09d"/><path d="m337.02 109.473c7.668-6.093 18.933-4.406 24.396 3.723 7.36 10.953 17.619 21.49 31.897 26.96 17.679 6.773 34.648 3.403 35.984 8.468 1.133 4.296-12.475 13.495-27.197 16.915-.567.134-1.452.34-2.617.577-25.47 5.184-48.645-12.29-48.645-12.29-9.864-7.66-15.557-16.983-18.83-24.556-3.008-6.962-.927-15.078 5.012-19.797z" fill="#e7efff"/></g><path d="m388.395 309.935c5.041-2.414 9.809-5.112 14.281-8.051-22.485-19.571-43.602-40.94-62.813-63.651-16.357-19.337-31.579-39.941-45.315-61.27 4.457-17.88 6.601-36.454 6.329-55.077-5.294.272-10.44.448-15.443.544.526 38.976-10.468 67.554-15.011 78.408-5.683 13.576-12.909 26.451-21.554 38.437-2.729-9.309-6.223-18.799-10.65-28.371-9.197-19.887-21.543-38.151-36.727-54.382 8.991-13.574 14.888-26.989 18.649-37.573-2.727-.353-5.359-.72-7.888-1.097-2.587-.385-5.177-.739-7.77-1.072-7.923 20.994-24.551 52.003-57.356 70.812-6.957 3.989-14.388 7.263-22.143 9.791-7.237-11.802-16.149-22.377-26.669-31.288-22.606-19.148-48.095-27.042-68.27-30.105-2.711 4.965-4.8 10.016-6.419 14.715 18.568 2.269 43.215 8.981 64.701 27.181 43.944 37.222 50.093 98.256 37.916 145.979 4.734 1.337 9.732 2.617 14.979 3.803 4.129-16.064 6.113-32.142 6.065-47.781 11.39 2.951 22.983 5.238 34.592 6.808 13.116 1.773 26.375 2.66 39.654 2.66 6.681 0 13.369-.232 20.044-.682.817 16.618-.5 31.659-2.555 44.179 5.597-.657 10.927-1.451 15.988-2.332 2.814-19.786 3.711-44.704-1.489-71.946 12.888-15.751 23.36-33.148 31.155-51.769 1.456-3.479 2.807-7.008 4.071-10.572 12.163 18.012 25.333 35.448 39.316 51.979 18.54 21.916 38.796 42.629 60.332 61.723zm-204.445-38.552c-12.595-1.702-25.173-4.289-37.464-7.702-1.779-18.678-6.538-36.45-14.07-52.491 7.81-2.724 15.316-6.131 22.397-10.191 15.466-8.868 27.694-20.081 37.337-31.824 13.173 14.497 23.934 30.68 32.044 48.217 12.534 27.104 15.446 51.345 16.026 55.888-18.796 1.245-37.689.615-56.27-1.897z" fill="#f3e8ce"/><path d="m388.131 288.769c-3.631 3.559-7.61 6.92-11.906 10.044 4.013 3.758 8.06 7.478 12.169 11.122 2.942-1.409 5.215-2.632 7.324-3.813.034-.019 3.361-1.875 6.957-4.238-4.919-4.282-9.76-8.665-14.544-13.115z" fill="#ffd09d"/></g></g></svg>