<svg id="svg8" height="512" viewBox="0 0 16.933333 16.933333" width="512" xmlns="http://www.w3.org/2000/svg" xmlns:svg="http://www.w3.org/2000/svg"><g id="layer2"><path id="path3763" d="m1.9842414 1.5875604c-.8016 0-1.45507.644184-1.45507 1.455114 0 .801628.65347 1.4551139 1.45507 1.4551139h2.4483098c.3528701 0 .3528701-.52931 0-.52931h-2.4483098c-.5176 0-.92578-.415422-.92578-.9258039 0-.510381.40818-.925804.92578-.925804h.92683c.35286 0 .35286-.52931 0-.52931z" fill="#ff4e15" font-variant-ligatures="normal" font-variant-position="normal" font-variant-caps="normal" font-variant-numeric="normal" font-variant-alternates="normal" font-feature-settings="normal" text-indent="0" text-align="start" text-decoration-line="none" text-decoration-style="solid" text-decoration-color="#000000" text-transform="none" text-orientation="mixed" white-space="normal" shape-padding="0" isolation="auto" mix-blend-mode="normal" solid-color="#000000" solid-opacity="1" vector-effect="none"/><g fill="#ff6b3c"><path id="path3756" d="m8.7684912 6.2146272-.79297 1.3222981c-.052951.087616-.050614.1979153.006.28321l.5292997.792989c.194914.2962355.6386752.00169.441401-.292976l-.4374999-.654313.7089899-1.179717c.1158373-.1846934-.0288406-.4223783-.2461704-.4043069-.0874243.0069367-.1656788.0566708-.2090503.1328158z" font-variant-ligatures="normal" font-variant-position="normal" font-variant-caps="normal" font-variant-numeric="normal" font-variant-alternates="normal" font-feature-settings="normal" text-indent="0" text-align="start" text-decoration-line="none" text-decoration-style="solid" text-decoration-color="#000000" text-transform="none" text-orientation="mixed" white-space="normal" shape-padding="0" isolation="auto" mix-blend-mode="normal" solid-color="#000000" solid-opacity="1" vector-effect="none"/><path id="path3736" d="m10.091162 6.2145052-.7929607 1.3222981c-.052951.087616-.050614.1979153.006.28321l.5292903.792988c.1953124.2942814.6367234.00131.4414114-.2929761l-.4375004-.6543129.7089804-1.179716c.115834-.1846893-.02884-.4223691-.246161-.4043069-.08743.00693-.165687.056668-.20906.1328158z" font-variant-ligatures="normal" font-variant-position="normal" font-variant-caps="normal" font-variant-numeric="normal" font-variant-alternates="normal" font-feature-settings="normal" text-indent="0" text-align="start" text-decoration-line="none" text-decoration-style="solid" text-decoration-color="#000000" text-transform="none" text-orientation="mixed" white-space="normal" shape-padding="0" isolation="auto" mix-blend-mode="normal" solid-color="#000000" solid-opacity="1" vector-effect="none"/><path id="path3738" d="m7.4452013 6.2145052-.79297 1.3222981c-.052951.087616-.050614.1979153.006.28321l.5292902.792988c.1953125.2942805.6367225.0013.44141-.2929761l-.4374992-.6543129.7089798-1.179716c.1158337-.1846893-.0288352-.4223691-.2461604-.4043069-.0874244.0069367-.1656789.0566708-.2090504.1328158z" font-variant-ligatures="normal" font-variant-position="normal" font-variant-caps="normal" font-variant-numeric="normal" font-variant-alternates="normal" font-feature-settings="normal" text-indent="0" text-align="start" text-decoration-line="none" text-decoration-style="solid" text-decoration-color="#000000" text-transform="none" text-orientation="mixed" white-space="normal" shape-padding="0" isolation="auto" mix-blend-mode="normal" solid-color="#000000" solid-opacity="1" vector-effect="none"/><path id="path3837" d="m9.2604212 12.699943c1.8639608-.167415 3.3033308-1.350016 3.3033308-3.0933117 0-1.4823959-1.1359-2.828214-2.5750904-3.3047519h-.46366v-4.185532c.3527768.0009196.7055524.0018 1.0583304.0018 3.07816 0 5.82083 2.5953669 5.82083 5.819209 0 3.2238426-2.38125 5.8192096-6.08541 5.8192096h-1.0418007z"/><path id="path3805" d="m7.9499014 13.407336c-.4195001-.112439-.8091601-.332712-1.12654-.650105-.6353201-.63533-.8850299-1.561956-.65268-2.429886.024406-.09162.095968-.163186.1875899-.18759.86791-.2323595 1.7945099.0153 2.42982.650623.6347701.634785.8827803 1.560824.65009 2.429369-.024036.0911-.094695.162546-.18552.187589-.2171301.05817-.4378399.08627-.6568001.08578-.21897-.000471-.4362098-.02956-.6459598-.08578z"/><path id="path3844" d="m3.9697812 1.8512434c-.1469247-.0005564-.2661699.1186947-.2656099.265623 0 2.535559 1.7097301 4.498027 3.96875 4.498027h2.0117603c.5009504 0 .9371004-.301861 1.2304204-.7364071.29331-.4345469.46302-1.012194.46302-1.6464518 0-.6342581-.16971-1.2098381-.46302-1.6443841-.29332-.434547-.72947-.736407-1.2304204-.736407z"/></g><path id="path3841" d="m15.875002 7.4081462c0 3.2238418-2.38125 5.8194258-6.0854204 5.8194258h-.5209003l.008.52918h1.0418007c3.70417 0 6.08542-2.595584 6.08542-5.8194256 0-1.721058-.78576-3.258236-1.982695-4.321807.893715 1.0175171 1.453795 2.3399051 1.453795 3.7926268z" fill="#ff4e15"/><path id="path3818" d="m8.3528112 11.753547c.1602301-.137137.072-.490782-.1507299-.641143-.22269-.150345-.58694-.113332-.6556899.09665-.0487.148749.1113899.179594.3340698.329955.22269.150345.3121202.351691.47235.214538z" fill="#ff5d29"/><path id="path3730" d="m13.306162 2.8238174c.22628 2.1369359-.72522 3.6447799-1.74976 4.4634029.12459.127319.23932.2624949.34416.404637 1.07681-.866662 2.05342-2.415977 1.96216-4.5197329-.17976-.12527-.36419-.243421-.55656-.348307z" fill="#ff4e15" font-variant-ligatures="normal" font-variant-position="normal" font-variant-caps="normal" font-variant-numeric="normal" font-variant-alternates="normal" font-feature-settings="normal" text-indent="0" text-align="start" text-decoration-line="none" text-decoration-style="solid" text-decoration-color="#000000" text-transform="none" text-orientation="mixed" white-space="normal" shape-padding="0" isolation="auto" mix-blend-mode="normal" solid-color="#000000" solid-opacity="1" vector-effect="none"/><path id="path3728" d="m12.504152 9.0256584c.0346.172983.0536.3491209.0568.5276289 1.59847-.2852629 3.02718-1.294402 3.72328-2.768374-.0606-.2896251-.14256-.5712341-.24544-.84338-.46795 1.629116-1.89345 2.77891-3.53464 3.0841251z" fill="#ff4e15" font-variant-ligatures="normal" font-variant-position="normal" font-variant-caps="normal" font-variant-numeric="normal" font-variant-alternates="normal" font-feature-settings="normal" text-indent="0" text-align="start" text-decoration-line="none" text-decoration-style="solid" text-decoration-color="#000000" text-transform="none" text-orientation="mixed" white-space="normal" shape-padding="0" isolation="auto" mix-blend-mode="normal" solid-color="#000000" solid-opacity="1" vector-effect="none"/><path id="path3724" d="m15.928232 10.312433c-.64396.373878-1.36459.570523-2.09703.570522-.49355.000001-.98265-.09211-1.44849-.266141-.0626.16808-.1396.3283-.23203.479053.53857.207799 1.10658.316267 1.68052.316267.57867.000001 1.14963-.110868 1.68878-.319885.15592-.247542.29213-.508161.40825-.779816z" fill="#ff4e15" font-variant-ligatures="normal" font-variant-position="normal" font-variant-caps="normal" font-variant-numeric="normal" font-variant-alternates="normal" font-feature-settings="normal" text-indent="0" text-align="start" text-decoration-line="none" text-decoration-style="solid" text-decoration-color="#000000" text-transform="none" text-orientation="mixed" white-space="normal" shape-padding="0" isolation="auto" mix-blend-mode="normal" solid-color="#000000" solid-opacity="1" vector-effect="none"/><path id="path3718" d="m11.526432 11.81367c-.13443.11312-.27816.217723-.43305.3111.43334.473861.95489.920631 1.75028 1.171017.26959-.107037.52577-.231427.76843-.371563-1.05531-.144414-1.58576-.568759-2.08566-1.110554z" fill="#ff4e15" font-variant-ligatures="normal" font-variant-position="normal" font-variant-caps="normal" font-variant-numeric="normal" font-variant-alternates="normal" font-feature-settings="normal" text-indent="0" text-align="start" text-decoration-line="none" text-decoration-style="solid" text-decoration-color="#000000" text-transform="none" text-orientation="mixed" white-space="normal" shape-padding="0" isolation="auto" mix-blend-mode="normal" solid-color="#000000" solid-opacity="1" vector-effect="none"/><path id="ellipse3451" d="m9.9549516 12.585218c.0807.396778.2584804.779814.5493204 1.1674.2218-.0053.43889-.02026.6506-.04393-.41956-.462986-.61823-.858097-.69039-1.282122-.16377.06185-.3333.115996-.5095304.158652z" fill="#ff4e15" font-variant-ligatures="normal" font-variant-position="normal" font-variant-caps="normal" font-variant-numeric="normal" font-variant-alternates="normal" font-feature-settings="normal" text-indent="0" text-align="start" text-decoration-line="none" text-decoration-style="solid" text-decoration-color="#000000" text-transform="none" text-orientation="mixed" white-space="normal" shape-padding="0" isolation="auto" mix-blend-mode="normal" solid-color="#000000" solid-opacity="1" vector-effect="none"/><path id="path3750" d="m9.4418013 12.699943c1.8639707-.167416 3.3031607-1.350132 3.3031607-3.0934276 0-1.4823951-1.13585-2.8282511-2.57504-3.3047889h-.1813804c1.4391804.4765378 2.5750304 1.8223938 2.5750304 3.3047889 0 1.7432956-1.43919 2.9260116-3.3031508 3.0934276z" fill="#ffa88d"/><path id="path3856" d="m7.3602713 13.165037c.1862101.105587.3841099.187284.5896301.242368.20975.05622.4269898.08531.6459598.08579.2189602.000503.43967-.02761.6568001-.08579.090825-.02504.1614846-.09649.18552-.18759.0666-.248449.0895-.501181.0796-.750877-.1308215-.0204-.2620316-.03337-.3927509-.03307-.2189691.000477-.4362092.02956-.6459592.08578-.4162798.111575-.8027498.329917-1.1187999.643388z" fill="#ff4e15"/><path id="path3936" d="m3.9031204 2.2269393c-.089081.00713-.1631238.086321-.1860299.198959.003.06097.004.122747.01.182939.03678.11714.1263247.192219.220651.1850061.1183793-.00935.2044153-.1437268.1922399-.300247-.011341-.1456173-.1042533-.2610865-.2150701-.267173-.00734-.0003097-.014584-.0001375-.021791.0005159z" fill="#ffa88d"/><path id="ellipse3938" d="m12.395062 8.6277424c.07493.02851.150506.027951.21497-.00159.161246-.074215.212589-.3070998.11473-.5203939-.07779-.1696107-.23014-.2811004-.375665-.2749077-.03315.00155-.06487.00922-.09408.02276-.06358.02942-.112748.085488-.140046.1596837.114441.195599.207391.401865.280091.6144479z" fill="#ffa88d"/><path id="path3916" d="m14.357132 6.0458474c-.25849-.3828941-.60467-.5366599-.36886-.8121549.23578-.2754942.84381-.1238721 1.10233.2591628.25849.382892.19485 1.0091941-.166175 1.1273996-.255735.083727-.308775-.1915245-.567295-.5744075z" fill="#ff5d29"/><path id="path3918" d="m8.9187912 3.7968343c-.2585-.3828938-.6046798-.5366609-.3688699-.8121549.23578-.275495.84381-.123873 1.1023303.2591631.25849.382891.19486 1.0091938-.16617 1.1273984-.2557403.0837265-.3087702-.1915246-.5672904-.5744066z" fill="#ff5d29"/><path id="path3446" d="m10.390062 2.0651884c.29064.433781.45889 1.006554.45889 1.637667 0 .6342581-.16971 1.2119049-.46302 1.646451-.29331.4345469-.7294704.7364068-1.2304207.7364068h-2.0117599c-.9067101 0-1.7219101-.3200328-2.3766001-.8624998.71418.8612708 1.7346501 1.39168 2.90577 1.39168h2.0117603c.5009504 0 .9371004-.301861 1.2304204-.7364071.29331-.4345469.46302-1.012194.46302-1.6464518 0-.6342581-.16971-1.2098381-.46302-1.6443841-.14366-.212828-.32202-.393165-.52504-.522462z" fill="#ff4e15"/><path id="path3462" d="m3.9697812 1.8512434a.26460976.2646163 0 0 0 -.2656099.265623c0 1.370637.5023602 2.5707129 1.31826 3.3869559-.69924-.8395409-1.1198299-1.980492-1.1198299-3.2644799a.27743933.27744618 0 0 1 .2785399-.278543h5.9918807c.009 0 .0171.0019.0258.0021-.16056-.071-.3329704-.111627-.5141804-.111627z" fill="#ffa88d"/><path id="path3767" d="m3.3070315.5292014c-.8016101 0-1.4550801.644183-1.4550801 1.455114 0 .801628.65347 1.455114 1.4550801 1.455114h1.7200499c.35287 0 .35287-.52931 0-.52931h-1.7200499c-.5176001 0-.9257801-.415423-.9257801-.925804 0-.510382.40818-.925804.9257801-.925804h7.2763005c.35287 0 .35287-.52931 0-.52931z" fill="#ff4e15" font-variant-ligatures="normal" font-variant-position="normal" font-variant-caps="normal" font-variant-numeric="normal" font-variant-alternates="normal" font-feature-settings="normal" text-indent="0" text-align="start" text-decoration-line="none" text-decoration-style="solid" text-decoration-color="#000000" text-transform="none" text-orientation="mixed" white-space="normal" shape-padding="0" isolation="auto" mix-blend-mode="normal" solid-color="#000000" solid-opacity="1" vector-effect="none"/><path id="path3879" d="m6.8233614 12.7573c.3173799.317393.7070399.537667 1.12654.650105.1405599.03767.28492.05845.4304699.07132-.0987-.01422-.1969299-.03265-.2930099-.0584-.4195101-.112434-.8091601-.332708-1.12655-.650101-.6353101-.63533-.8850201-1.561956-.6526699-2.429885.024406-.09162.095968-.163186.1875898-.18759.2890099-.07738.5842201-.09699.87333-.07132-.11705-.01691-.2355101-.02713-.3544998-.02739-.2188501-.000473-.4393203.02769-.6562902.08578-.091622.0244-.1631843.09597-.1875899.187594-.2323499.867931.017399 1.794556.65268 2.429887z" fill="#ffa88d"/><path id="path3848" d="m8.5958612 12.965049c-.21897.000476-.4362098.02956-.6459598.08578-.4195001.112439-.8091601.332713-1.12654.650105-.6353201.635331-.8850299 1.561957-.65268 2.429886a.26460976.2646163 0 0 0 .1875899.187591c.86791.23236 1.7945099-.0153 2.42982-.650623.6347701-.634786.8827803-1.560825.65009-2.429369a.26460976.2646163 0 0 0 -.18552-.187585c-.2171301-.05817-.4378399-.08627-.6568001-.08579z" fill="#ff6b3c"/><path id="ellipse3942" d="m6.6512714 13.897309c.00741.02957.022494.05462.0439.07286.071782.06001.1942669.03153.2733701-.06356.079017-.09497.084793-.220391.012901-.280092-.01308-.01086-.02825-.01904-.044956-.02429-.037456.03324-.077456.06299-.1131253.0987-.0621.06209-.1174597.129056-.1720898.196382z" fill="#ffa88d"/><path id="path3911" d="m8.2095214 14.195271c.16022.137136.072.490781-.15073.641142-.22269.150345-.58695.113332-.6556952-.09665-.048695-.148748.1113852-.179592.3340752-.329955.2226899-.150345.3121199-.351691.47235-.214537z" fill="#ff5d29"/><path id="path3774" d="m8.2589313 15.138614c-.56617.566174-1.36344.821878-2.1445799.70695.013999.0954.031.190797.0563.285261.024405.09162.095968.163187.18759.187591.8679.23236 1.7945099-.0153 2.42982-.650623.6347698-.634786.8827802-1.560825.65009-2.429369-.024035-.0911-.094695-.162547-.18552-.18759-.0952-.0255-.1912001-.04278-.2873052-.05684.1153451.781669-.1405748 1.578785-.7063949 2.144623z" fill="#ff4e15"/><path id="path3779" d="m6.1706814 16.130822c.010804.0399.030805.07671.0584.10749-.00705-.01444-.012777-.02949-.0171-.04496-.2323499-.86793.017399-1.794554.65268-2.429886.3173801-.317392.7070402-.537667 1.1265399-.650106.2097601-.05622.4270002-.08529.6459601-.08578.2189599-.000476.4396801.02761.6568102.08578.0491.01357.093239.04102.1271198.07906-.032936-.06942-.094419-.121097-.16847-.141597-.21713-.05816-.4378399-.08626-.6567801-.08577-.2189501.000474-.4361899.02956-.6459399.08578-.4195001.112439-.8091601.332713-1.12654.650104-.6353201.63533-.8850299 1.561956-.65268 2.429885z" fill="#ffa88d"/><path id="path3887" d="m6.3917714 12.091728c.03502.0051.068564-.000062.0976-.015.096132-.05059.119654-.194694.0525-.32164-.06706-.126816-.1991842-.188446-.2950602-.137631-.017446.0092-.032954.02189-.045935.03756.019165.05494.033465.111029.056065.165153.0392.0941.0867.183145.1348302.271558z" fill="#ffa88d"/></g></svg>