<svg clip-rule="evenodd" fill-rule="evenodd" height="6.827in" image-rendering="optimizeQuality" shape-rendering="geometricPrecision" text-rendering="geometricPrecision" viewBox="0 0 6.82666 6.82666" width="6.827in" xmlns="http://www.w3.org/2000/svg"><g id="Layer_x0020_1"><path d="m5.75757 2.0662c.00021654-.00169685.00047244-.00337795.00076378-.00504724.00000394-.00001575.00000787-.00002756.00000787-.00004331-.00022835.00169685-.00048819.0033937-.00077165.00509055zm-2.32343-.040689.323646.631988c.563732-.00552756 1.07037-.0832244 1.43882-.206075.327469-.109185.537374-.245236.560965-.385224-.00000394.00001575-.00000394.00002756-.00000787.00004331-.00025591.002-.00045276.00401969-.00059843.00605906-.00824409.113161-.013.22939-.0153425.346154-.00557874.278209.00253937.559465.00975591.809524.00437795.151898.00841339.291598.00841339.428012 0 .149173-.215224.295524-.563185.411543-.359248.119783-.849862.196638-1.39669.205528v.0299016c0 .0589094-.0477598.106669-.106669.106669-.0589094 0-.106669-.0477598-.106669-.106669v-.302465l-.201362-.331465v.0271024c0 .0589094-.0477598.106669-.106669.106669-.0589094 0-.106669-.0477598-.106669-.106669v-.214205c-.00031496.00011417-.00063386.00022835-.00094882.00034646l-.708843.263831v.209382c0 .00594882-.00025591.0118346-.00073228.0176614l.7015-.261098.439555.723547c.0199449.0329409.0549449.0511654.0908346.0512008v.0004685c.610669 0 1.16594-.0833386 1.57003-.218067.438583-.146236.709854-.362197.709854-.613213 0-.113291-.00443307-.266878-.00924803-.433846-.01-.34648-.0217598-.754035.00519291-1.12941.00012992-.00181102.00025984-.00362205.0003937-.00543307.00414173-.0586811-.0400709-.10961-.098752-.113752-.0548858-.00387402-.102992.0345551-.112374.0875591.00096457-.00706693.00144882-.0141457.00144882-.0212283 0-.149173-.215224-.295524-.563185-.411543-.382461-.12752-.913807-.206398-1.50336-.206398-.589551 0-1.1209.078878-1.50336.206398-.347957.11602-.563185.262374-.563185.411543 0 .0456417.0236732.0938268.0694449.142854.0498189.0533661.123303.105547.219067.155067l1.39315-.374079c.0521299-.0139252.105559.0133268.125772.0617874zm.625846.252917-.10285.0282874c-.0212244.00577953-.043126-.00674409-.0489055-.0279685-.00577953-.0212244.00674409-.043126.0279685-.0489055l.10285-.0282874c.0212244-.00577953.043126.00674409.0489055.0279685.00577953.0212244-.00674409.043126-.0279685.0489055zm-1.75005-.380685c.0194134.0105276.026622.0348071.0160945.0542205l-.0508701.0937559c-.0105276.0194134-.0348071.026622-.0542205.0160945-.0194134-.0105276-.026622-.0348071-.0160945-.0542205l.0508701-.0937559c.0105276-.0194134.0348071-.026622.0542205-.0160945zm2.41215.340146c-.0152717.015878-.0405315.0163661-.0564094.00109449-.015878-.0152717-.0163661-.0405315-.00109449-.0564094l.0739134-.0769094c.0152717-.015878.0405315-.0163661.0564094-.00109449.015878.0152717.0163661.0405315.00109449.0564094zm-.354795-.130748c-.0188976.0112165-.043315.00498819-.0545315-.0139094-.0112165-.0188976-.00498819-.043315.0139094-.0545315l.0916654-.0545512c.0188976-.0112165.043315-.00498819.0545315.0139094.0112165.0188976.00498819.043315-.0139094.0545315zm.814217-.0825866c-.0152717.015878-.0405315.0163661-.0564094.00109449-.015878-.0152717-.0163661-.0405315-.00109449-.0564094l.0739094-.0769055c.0152717-.015878.0405315-.0163661.0564094-.00109449.015878.0152717.0163661.0405315.00109449.0564094zm-.666193-.283677c-.0188976.0112165-.043315.00498819-.0545315-.0139094-.0112165-.0188976-.00498819-.043315.0139094-.0545315l.0916614-.0545512c.0188976-.0112165.043315-.00498819.0545315.0139094.0112165.0188976.00498819.043315-.0139094.0545315zm-.942882.0655906c-.0105276.0194134-.0348071.026622-.0542205.0160945-.0194134-.0105276-.026622-.0348071-.0160945-.0542205l.0508701-.0937559c.0105276-.0194134.0348071-.026622.0542205-.0160945.0194134.0105276.026622.0348071.0160945.0542205zm-.372433-.166476h-.106665c-.0220906 0-.04-.0179094-.04-.04s.0179094-.04.04-.04h.106665c.0220906 0 .04.0179094.04.04s-.0179094.04-.04.04zm.812382.119244c-.0212244.00577953-.043126-.00674409-.0489055-.0279685-.00577953-.0212244.00674409-.043126.0279685-.0489055l.102846-.0282874c.0212244-.00577953.043126.00674409.0489055.0279685.00577953.0212244-.00674409.043126-.0279685.0489055zm-1.33464.0830157h-.106669c-.0220906 0-.04-.0179094-.04-.04s.0179094-.04.04-.04h.106669c.0220906 0 .04.0179094.04.04s-.0179094.04-.04.04z" fill="#ebe5df"/><path d="m3.43414 2.02552.323646.631988c.563732-.00552756 1.07037-.0832244 1.43882-.206075.347961-.116016.563185-.262366.563185-.411543 0-.149173-.215224-.295524-.563185-.411543-.382461-.12752-.913807-.206398-1.50336-.206398-.589551 0-1.1209.078878-1.50336.206398-.347957.11602-.563185.262374-.563185.411543 0 .0456417.0236732.0938268.0694449.142854.0498189.0533661.123303.105547.219067.155067l1.39315-.374079c.0521299-.0139252.105559.0133268.125772.0617874zm.164524.787319-.318047-.621051-1.34917.362268-.0000315-.00011417c-.0237598.00635827-.0498307.00456299-.0737205-.0069685-.13702-.0662756-.243665-.14026-.317382-.219228-.0836693-.089626-.126949-.18661-.126949-.287854 0-.251016.271276-.466976.709854-.613213.404087-.134728.959358-.218067 1.57003-.218067.610669 0 1.16594.0833386 1.57003.218067.438583.146236.709854.362197.709854.613213 0 .25102-.271272.46698-.709854.613213-.404079.134732-.959354.218071-1.57003.218071v-.00042913c-.0385984-.0000315-.075811-.0211732-.0945827-.0579055z" fill="#212121" fill-rule="nonzero"/><path d="m1.41465 2.05534c.00275984-.0586811.0525709-.104012.111252-.101252.0586811.00275984.104012.0525709.101252.111252-.0147992.296602-.00927559.762047-.00465748 1.15088l.00080315.0676496-.211472.0971417c-.00054331-.0534094-.00117717-.106992-.00183465-.162287-.00466929-.393429-.0102638-.864378.00465748-1.16338zm1.04744 1.69077.708843-.263831c.0499528-.0185984.105012.00278346.130035.0480669l.451559.743315c.565843-.00509449 1.07448-.0828937 1.44408-.206126.347961-.11602.563185-.26237.563185-.411543 0-.136413-.00403543-.276114-.00841339-.428012-.010248-.355012-.0223031-.772898.00558661-1.15568.00414173-.0586811.0550709-.102894.113752-.098752.0586811.00414173.102894.0550709.098752.113752-.0274606.37687-.0156339.786689-.00558661 1.13484.00481496.166969.00924803.320555.00924803.433846 0 .251016-.271272.466976-.709854.613213-.404087.134728-.959358.218067-1.57003.218067v-.0004685c-.0358898-.00003543-.0708898-.0182598-.0908346-.0512008l-.439555-.723547-.7015.261098c.00047638-.00582677.00073228-.0117126.00073228-.0176614v-.209382z" fill="#212121" fill-rule="nonzero"/><path d="m3.58658 2.81061c0-.0589094.0477598-.106669.106669-.106669.0589094 0 .106669.0477598.106669.106669v1.49235c0 .0589094-.0477598.106669-.106669.106669-.0589094 0-.106669-.0477598-.106669-.106669z" fill="#212121" fill-rule="nonzero"/><path d="m1.76643 2.48282c-.00022835-.0586811.0471535-.106441.105835-.106669.0586811-.00022835.106441.0471535.106669.105835l.00377559.636776-.211933.0973583-.00434646-.733299z" fill="#212121" fill-rule="nonzero"/><path d="m3.17188 2.20379c0-.0589094.0477598-.106669.106669-.106669.0589094 0 .106669.0477598.106669.106669v1.49235c0 .0589094-.0477598.106669-.106669.106669-.0589094 0-.106669-.0477598-.106669-.106669z" fill="#212121" fill-rule="nonzero"/><path d="m2.03542 3.73851v-.175283l-.33561.154169c.111606.0103307.223587.0172677.33561.0211142z" fill="#373435"/><g fill="#212121" fill-rule="nonzero"><path d="m2.35542 3.23089v.72461c0 .0589094-.0477598.106669-.106669.106669-.231406 0-.461031-.0126063-.680575-.0368898-.218929-.0242165-.427063-.0602165-.616091-.107075-.0570669-.0140354-.0919528-.071685-.0779173-.128752.00852362-.0346535.033126-.061122.0639173-.0734291l1.2665-.581799c.0533858-.0243898.116441-.00088583.140831.0525.00655118.0143386.0096378.0293701.00962992.0441654h.00037402zm-.213339.617043v-.451087l-.825055.379008c.088748.014748.180476.0273583.27448.0377559.176512.0195236.361618.0311417.550575.0343228z"/><path d="m2.14208 3.9555c0-.0589094.0477598-.106669.106669-.106669.0589094 0 .106669.0477598.106669.106669v1.44922c0 .0589094-.0477598.106669-.106669.106669-.231406 0-.461031-.0126063-.680575-.0368898-.218929-.0242165-.427063-.0602165-.616091-.107075-.0501417-.0123307-.0831535-.0583346-.0809094-.108028l-.0176339-1.41209c-.00068898-.0586811.0463189-.106815.105-.107504.0586811-.00068898.106815.0463189.107504.105l.0166693 1.33478c.158.0354528.329252.0633937.508791.083252.176512.0195236.361618.0311417.550575.0343228v-1.34166z"/><path d="m2.57107 1.84226c-.0220906 0-.04-.0179094-.04-.04s.0179094-.04.04-.04h.106669c.0220906 0 .04.0179094.04.04s-.0179094.04-.04.04z"/><path d="m3.95713 2.30672c-.0212244.00577953-.043126-.00674409-.0489055-.0279685-.00577953-.0212244.00674409-.043126.0279685-.0489055l.10285-.0282874c.0212244-.00577953.043126.00674409.0489055.0279685.00577953.0212244-.00674409.043126-.0279685.0489055z"/><path d="m4.36729 2.10715c-.0188976.0112165-.043315.00498819-.0545315-.0139094-.0112165-.0188976-.00498819-.043315.0139094-.0545315l.0916654-.0545512c.0188976-.0112165.043315-.00498819.0545315.0139094.0112165.0188976.00498819.043315-.0139094.0545315z"/><path d="m4.72209 2.23789c-.0152717.015878-.0405315.0163661-.0564094.00109449-.015878-.0152717-.0163661-.0405315-.00109449-.0564094l.0739134-.0769094c.0152717-.015878.0405315-.0163661.0564094-.00109449.015878.0152717.0163661.0405315.00109449.0564094z"/><path d="m3.57243 1.80647c-.0105276.0194134-.0348071.026622-.0542205.0160945-.0194134-.0105276-.026622-.0348071-.0160945-.0542205l.0508701-.0937559c.0105276-.0194134.0348071-.026622.0542205-.0160945.0194134.0105276.026622.0348071.0160945.0542205z"/><path d="m3.09333 1.64c-.0220906 0-.04-.0179094-.04-.04s.0179094-.04.04-.04h.106665c.0220906 0 .04.0179094.04.04s-.0179094.04-.04.04z"/><path d="m4.01238 1.75924c-.0212244.00577953-.043126-.00674409-.0489055-.0279685-.00577953-.0212244.00674409-.043126.0279685-.0489055l.102846-.0282874c.0212244-.00577953.043126.00674409.0489055.0279685.00577953.0212244-.00674409.043126-.0279685.0489055z"/><path d="m4.51531 1.74088c-.0188976.0112165-.043315.00498819-.0545315-.0139094-.0112165-.0188976-.00498819-.043315.0139094-.0545315l.0916614-.0545512c.0188976-.0112165.043315-.00498819.0545315.0139094.0112165.0188976.00498819.043315-.0139094.0545315z"/><path d="m5.18151 2.02456c-.0152717.015878-.0405315.0163661-.0564094.00109449-.015878-.0152717-.0163661-.0405315-.00109449-.0564094l.0739094-.0769055c.0152717-.015878.0405315-.0163661.0564094-.00109449.015878.0152717.0163661.0405315.00109449.0564094z"/><path d="m2.27516 2.04572c-.0105276.0194134-.0348071.026622-.0542205.0160945-.0194134-.0105276-.026622-.0348071-.0160945-.0542205l.0508701-.0937559c.0105276-.0194134.0348071-.026622.0542205-.0160945.0194134.0105276.026622.0348071.0160945.0542205z"/></g><path d="m3.79992 2.87032v1.40275c.546823-.00888976 1.03744-.0857441 1.39669-.205528.347961-.11602.563185-.26237.563185-.411543 0-.136413-.00403543-.276114-.00841339-.428012-.00721654-.250059-.0153346-.531315-.00975591-.809524-.119878.0900669-.282417.169311-.478346.234638-.380421.126843-.89485.208138-1.46335.21722z" fill="#ebe5df"/><path d="m3.58658 4.0005v-1.18989c0-.00624409.00053543-.0123622.00156693-.018315l-.202929-.39626v1.273l.201362.331465z" fill="#ebe5df"/><path d="m2.14208 5.29715v-1.23588c-.195165-.00326378-.388146-.0154488-.573906-.0359961-.175303-.0193898-.343685-.0463386-.500878-.0803622l.0154173 1.23467c.158.0354528.329252.0633937.508791.083252.176512.0195236.361618.0311417.550575.0343228z" fill="#ebe5df"/><path d="m1.59151 3.81361c.176512.0195236.361618.0311417.550575.0343228v-.451087l-.825055.379008c.088748.014748.180476.0273583.27448.0377559z" fill="#ebe5df"/><path d="m2.46209 3.74611.708843-.263831c.00031496-.00011811.00063386-.00023228.00094882-.00034646v-1.26096l-1.1926.320228.0034252.577555.177354-.0814724c.100339-.0460906.218795-.00678346.273.0869291l.0290276.621894z" fill="#ebe5df"/><path d="m1.77077 3.21612-.00424803-.716913c-.0558701-.0317598-.105315-.0649921-.148094-.0994291-.00258268.256748.00094488.554039.00406299.816441l.00080315.0676496.147476-.067748z" fill="#ebe5df"/></g><path d="m0 0h6.827v6.827h-6.827z" fill="none"/></svg>