<svg height="512" viewBox="0 0 64 64" width="512" xmlns="http://www.w3.org/2000/svg"><g id="Layer_6" data-name="Layer 6"><path d="m11 7h24v6h-24z" fill="#f8c460"/><path d="m11 7h24v2h-24z" fill="#faaf42"/><path d="m37.992 62.071a121.4 121.4 0 0 1 -29.984 0 8 8 0 0 1 -7.008-7.946v-34.25a8 8 0 0 1 7.008-7.946 121.4 121.4 0 0 1 29.984 0 8 8 0 0 1 7.008 7.946v34.25a8 8 0 0 1 -7.008 7.946z" fill="#7a838b"/><rect fill="#7a838b" height="6" rx="3" width="32" x="7" y="1"/><path d="m10 1a3 3 0 0 0 0 6h26a3 3 0 0 0 3-3h-26a3 3 0 0 1 -3-3z" fill="#5d6972"/><path d="m45 54.125v-33.125a4 4 0 0 0 -4 4v.768c-2.45.55-4 1.345-4 2.232v4c0 .621.755 1.2 2.048 1.677l1.777 24.877a4.02 4.02 0 0 0 .786 2.108 8.008 8.008 0 0 0 3.389-6.537z" fill="#5d6972"/><path d="m41 16.4a1 1 0 0 1 -.668-.255 4.964 4.964 0 0 0 -1.665-.992 1 1 0 1 1 .666-1.884 6.936 6.936 0 0 1 2.335 1.387 1 1 0 0 1 -.668 1.744z" fill="#fff"/><path d="m40.992 59.071q-2.215.275-4.431.468a29.992 29.992 0 0 1 -32.561-29.9v-12.764a7.984 7.984 0 0 1 1.055-3.962 8.01 8.01 0 0 0 -4.055 6.962v34.25a8.026 8.026 0 0 0 7.061 7.953 121.46 121.46 0 0 0 29.931-.007 7.979 7.979 0 0 0 5.953-3.984 7.914 7.914 0 0 1 -2.953.984z" fill="#5d6972"/><path d="m45 53a121.985 121.985 0 0 1 -44 0v-32a122.007 122.007 0 0 0 44 0z" fill="#f8c460"/><path d="m4 29.639v-8.133q-1.5-.235-3-.506v32a123.325 123.325 0 0 0 16.777 1.884 29.98 29.98 0 0 1 -13.777-25.245z" fill="#faaf42"/><path d="m41 25v.768c-2.45.55-4 1.345-4 2.232v4c0 .621.755 1.2 2.048 1.677l1.433 20.053c1.506-.218 3.013-.456 4.519-.73v-32c-.4.073-.8.137-1.207.206a3.986 3.986 0 0 0 -2.793 3.794z" fill="#faaf42"/><g fill="#7a838b"><path d="m7 31h2a0 0 0 0 1 0 0v8a0 0 0 0 1 0 0h-2a2 2 0 0 1 -2-2v-4a2 2 0 0 1 2-2z"/><rect height="12" rx="2" width="6" x="9" y="29"/><path d="m39 31h2a0 0 0 0 1 0 0v8a0 0 0 0 1 0 0h-2a2 2 0 0 1 -2-2v-4a2 2 0 0 1 2-2z" transform="matrix(-1 0 0 -1 78 70)"/><rect height="12" rx="2" transform="matrix(-1 0 0 -1 68 70)" width="6" x="31" y="29"/><path d="m15 33h16v4h-16z"/></g><path d="m56.485 62.06a16.477 16.477 0 0 1 -10.97 0 4.01 4.01 0 0 1 -2.69-3.506l-1.825-25.554h20l-1.825 25.554a4.01 4.01 0 0 1 -2.69 3.506z" fill="#a7d0e1"/><path d="m60.805 35.726.195-2.726h-20l.2 2.726 1.63 22.828a4.042 4.042 0 0 0 2.756 3.528 16.465 16.465 0 0 0 10.9-.022 4.007 4.007 0 0 0 2.592-2.878 16.437 16.437 0 0 1 -10.515-.106 4.035 4.035 0 0 1 -2.737-3.522l-1.187-16.614a1.99 1.99 0 0 1 2.168-2.131c1.3.123 2.715.191 4.193.191a32 32 0 0 0 9.805-1.274z" fill="#80bbce"/><path d="m39 28v4c0 1.657 5.373 3 12 3s12-1.343 12-3v-4z" fill="#7a838b"/><path d="m42 32v-4h-3v4c0 1.657 5.373 3 12 3 .509 0 1.008-.011 1.5-.026-5.918-.185-10.5-1.444-10.5-2.974z" fill="#5d6972"/><ellipse cx="51" cy="28" fill="#7a838b" rx="12" ry="3"/><path d="m42 28c0-1.53 4.582-2.789 10.5-2.974-.492-.015-.991-.026-1.5-.026-6.627 0-12 1.343-12 3s5.373 3 12 3c.509 0 1.008-.011 1.5-.026-5.918-.185-10.5-1.444-10.5-2.974z" fill="#5d6972"/><path d="m53 23v4c0 .552.9 1 2 1s2-.448 2-1v-4z" fill="#80bbce"/><path d="m57 21h-10a4 4 0 0 0 -4 4v2c0 .552.9 1 2 1s2-.448 2-1a2 2 0 0 1 2-2h8.962c2.007-1.764.783-4-.962-4z" fill="#a7d0e1"/><path d="m46 27v-2a4 4 0 0 1 4-4h-3a4 4 0 0 0 -4 4v2c0 .552.9 1 2 1a3.1 3.1 0 0 0 1.5-.345.826.826 0 0 1 -.5-.655z" fill="#80bbce"/><path d="m50 39a1 1 0 0 0 -2 0v18a1 1 0 0 0 1 1h4a1 1 0 0 0 0-2h-3v-2h1a1 1 0 0 0 0-2h-1v-2h3a1 1 0 0 0 0-2h-3v-2h1a1 1 0 0 0 0-2h-1v-2h3a1 1 0 0 0 0-2h-3z" fill="#7a838b"/><path d="m37 44h-28a1 1 0 0 0 0 2h28a1 1 0 0 0 0-2z" fill="#7a838b"/><path d="m31 48h-16a1 1 0 0 0 0 2h16a1 1 0 0 0 0-2z" fill="#7a838b"/></g></svg>