<svg id="Capa_1" enable-background="new 0 0 512 512" height="512" viewBox="0 0 512 512" width="512" xmlns="http://www.w3.org/2000/svg"><g><path d="m452.236 73.826c4.873-7.49 7.714-16.423 7.714-26.025 0-26.4-21.401-47.801-47.801-47.801-9.602 0-18.535 2.842-26.025 7.714-7.49-4.872-16.423-7.714-26.024-7.714-9.602 0-18.535 2.842-26.025 7.714-7.491-4.872-16.424-7.714-26.025-7.714-9.602 0-18.535 2.842-26.025 7.714-7.49-4.872-16.423-7.714-26.025-7.714l-10 256 10 256c9.602 0 18.535-2.842 26.025-7.714 7.49 4.873 16.423 7.714 26.025 7.714s18.535-2.842 26.025-7.714c7.49 4.873 16.423 7.714 26.025 7.714s18.535-2.842 26.025-7.714c7.49 4.873 16.423 7.714 26.025 7.714 26.4 0 47.801-21.401 47.801-47.801 0-9.602-2.842-18.535-7.714-26.025 4.873-7.49 7.714-16.423 7.714-26.025s-2.842-18.535-7.714-26.025c4.873-7.49 7.714-16.423 7.714-26.025s-2.842-18.535-7.714-26.025c4.873-7.49 7.714-16.423 7.714-26.025s-2.842-18.535-7.714-26.025c4.873-7.49 7.714-16.423 7.714-26.025s-2.842-18.535-7.714-26.025c4.873-7.49 7.714-16.423 7.714-26.025s-2.842-18.535-7.714-26.025c4.873-7.49 7.714-16.423 7.714-26.025s-2.842-18.535-7.714-26.025c4.873-7.49 7.714-16.423 7.714-26.025-.001-9.6-2.842-18.533-7.715-26.023z" fill="#ffda44"/><path d="m287.867 81.664h47.801v30h-47.801z" fill="#ffb655"/><path d="m343.635 320.668h47.801v30h-47.801z" fill="#ffb655"/><path d="m343.635 161.332h47.801v30h-47.801z" fill="#ffb655"/><path d="m287.867 241h47.801v30h-47.801z" fill="#ffb655"/><path d="m287.867 400.336h47.801v30h-47.801z" fill="#ffb655"/><path d="m279.9 350.668v-30h-23.9l-10 15 10 15z" fill="#ffb655"/><path d="m279.9 161.332h-23.9l-10 15 10 15h23.9z" fill="#ffb655"/><path d="m229.975 7.714c-7.49-4.872-16.423-7.714-26.025-7.714s-18.535 2.842-26.025 7.714c-7.49-4.872-16.423-7.714-26.025-7.714s-18.535 2.842-26.025 7.714c-7.49-4.872-16.423-7.714-26.024-7.714-26.4 0-47.801 21.401-47.801 47.801 0 9.602 2.842 18.535 7.714 26.025-4.873 7.49-7.714 16.423-7.714 26.025s2.842 18.535 7.714 26.025c-4.873 7.49-7.714 16.423-7.714 26.025s2.842 18.535 7.714 26.025c-4.873 7.49-7.714 16.423-7.714 26.025s2.842 18.535 7.714 26.025c-4.873 7.49-7.714 16.423-7.714 26.025s2.842 18.535 7.714 26.025c-4.873 7.49-7.714 16.423-7.714 26.025s2.842 18.535 7.714 26.025c-4.873 7.49-7.714 16.423-7.714 26.025s2.842 18.535 7.714 26.025c-4.873 7.49-7.714 16.423-7.714 26.025s2.842 18.535 7.714 26.025c-4.873 7.49-7.714 16.423-7.714 26.025 0 26.4 21.401 47.801 47.801 47.801 9.602 0 18.535-2.842 26.025-7.714 7.49 4.873 16.423 7.714 26.025 7.714s18.535-2.842 26.025-7.714c7.49 4.873 16.423 7.714 26.025 7.714s18.535-2.842 26.025-7.714c7.489 4.87 16.422 7.712 26.024 7.712v-512c-9.602 0-18.535 2.842-26.025 7.714z" fill="#fff79f"/><g fill="#ffda44"><path d="m176.332 81.664h47.801v30h-47.801z"/><path d="m120.564 320.668h47.801v30h-47.801z"/><path d="m120.564 161.332h47.801v30h-47.801z"/><path d="m176.332 241h47.801v30h-47.801z"/><path d="m176.332 400.336h47.801v30h-47.801z"/><path d="m232.1 320.668h23.9v30h-23.9z"/><path d="m232.1 161.332h23.9v30h-23.9z"/></g></g></svg>