<svg height="512pt" viewBox="0 0 512 512.00106" width="512pt" xmlns="http://www.w3.org/2000/svg"><path d="m368.253906 46.304688 40.816406-40.816407c7.652344-7.65625 20.1875-7.246093 27.332032.886719 105.15625 119.691406 100.605468 302.113281-13.65625 416.375-114.261719 114.261719-296.679688 118.8125-416.371094 13.652344-8.132812-7.144532-8.542969-19.675782-.886719-27.335938l40.816407-40.816406 197.933593-124.015625zm0 0" fill="#55d47b"/><path d="m436.40625 6.375c-3.066406-3.488281-7.121094-5.542969-11.355469-6.164062 84.496094 118.976562 73.4375 284.988281-33.207031 391.632812s-272.65625 117.703125-391.632812 33.207031c.621093 4.234375 2.675781 8.289063 6.164062 11.355469 119.691406 105.15625 302.113281 100.605469 416.371094-13.65625 114.261718-114.261719 118.816406-296.683594 13.660156-416.375zm0 0" fill="#00b72f"/><path d="m368.253906 46.304688c88.902344 88.90625 88.898438 233.046874 0 321.945312-88.898437 88.898438-233.042968 88.90625-321.949218 0l27.957031-27.957031 169.976562-96.058594 96.058594-169.972656zm0 0" fill="#ebebeb"/><path d="m340.296875 74.261719c73.34375 73.347656 73.335937 192.691406 0 266.03125-73.339844 73.34375-192.6875 73.347656-266.035156 0zm0 0" fill="#ff6f7f"/><g fill="#423e4f"><path d="m295.65625 292.882812c-1.886719-.378906-3.148438.886719-2.769531 2.773438 4.0625 20.234375 13.390625 24.472656 20.316406 17.546875s2.6875-16.253906-17.546875-20.320313zm0 0"/><path d="m230.265625 328.175781c-1.324219-1.394531-3.085937-1.089843-3.859375.671875-8.316406 18.890625-3.121094 27.722656 6.527344 26.039063 9.648437-1.683594 11.546875-11.75-2.667969-26.710938zm0 0"/><path d="m156.480469 319.429688c-.28125-1.902344-1.902344-2.664063-3.546875-1.671876-17.667969 10.671876-18.5 20.882813-9.640625 25.054688 8.863281 4.175781 16.207031-2.96875 13.1875-23.382812zm0 0"/><path d="m328.175781 230.265625c-1.394531-1.324219-1.085937-3.085937.671875-3.863281 18.890625-8.3125 27.722656-3.117188 26.039063 6.53125-1.679688 9.648437-11.75 11.546875-26.710938-2.667969zm0 0"/><path d="m319.429688 156.476562c-1.902344-.28125-2.664063-1.898437-1.667969-3.546874 10.667969-17.664063 20.878906-18.496094 25.054687-9.636719 4.171875 8.863281-2.96875 16.207031-23.386718 13.183593zm0 0"/></g></svg>