<svg id="Layer_1" height="512" viewBox="0 0 64 64" width="512" xmlns="http://www.w3.org/2000/svg" data-name="Layer 1"><g fill="#75ae29"><path d="m31.126 15.465a37.108 37.108 0 0 0 3.99.552 18.9 18.9 0 0 1 -11.789 1.517c-7.896-1.534-12.46-7.757-10.194-13.895a10.477 10.477 0 0 1 1.05-2.075c-.483 5.917 6.549 11.88 16.943 13.901z"/><path d="m33.209 15.465a37.108 37.108 0 0 1 -3.99.552 18.9 18.9 0 0 0 11.789 1.517c7.892-1.534 12.46-7.757 10.192-13.895a10.477 10.477 0 0 0 -1.05-2.075c.486 5.917-6.55 11.88-16.941 13.901z"/><path d="m34.351 14.132a19.025 19.025 0 0 0 2.736.521 9.825 9.825 0 0 1 -8.087 1.433c-5.414-1.45-8.544-7.327-6.99-13.126a11.665 11.665 0 0 1 .723-1.96c-.333 5.59 4.491 11.222 11.618 13.132z"/><path d="m30 14.132a19.025 19.025 0 0 1 -2.736.521 9.824 9.824 0 0 0 8.084 1.433c5.414-1.45 8.543-7.327 6.99-13.126a11.753 11.753 0 0 0 -.725-1.96c.332 5.59-4.491 11.222-11.613 13.132z"/><path d="m32.168 1.043c1.084 0 1.963.43 1.963.96v15.109h-3.931v-15.112c0-.527.883-.957 1.968-.957z"/></g><ellipse cx="23.85" cy="55.729" fill="#5a5ca1" rx="6.383" ry="7.116"/><ellipse cx="39.808" cy="55.729" fill="#5555a7" rx="6.383" ry="7.116"/><ellipse cx="31.829" cy="55.884" fill="#7b7bc8" rx="6.383" ry="7.116"/><ellipse cx="18.265" cy="48.307" fill="#6f6fba" rx="6.383" ry="7.116"/><ellipse cx="45.393" cy="48.307" fill="#5a5ca1" rx="6.383" ry="7.116"/><ellipse cx="26.852" cy="48.307" fill="#5555a7" rx="6.383" ry="7.116"/><ellipse cx="36.806" cy="48.307" fill="#6262b1" rx="6.383" ry="7.116"/><ellipse cx="14.389" cy="40.573" fill="#5555a7" rx="6.383" ry="7.116"/><ellipse cx="48.357" cy="40.573" fill="#7b7bc8" rx="6.383" ry="7.116"/><ellipse cx="40.207" cy="40.573" fill="#6f6fba" rx="6.383" ry="7.116"/><ellipse cx="22.539" cy="40.573" fill="#7b7bc8" rx="6.383" ry="7.116"/><ellipse cx="31.373" cy="40.573" fill="#5a5ca1" rx="6.383" ry="7.116"/><ellipse cx="13.248" cy="30.988" fill="#7b7bc8" rx="6.383" ry="7.116"/><ellipse cx="50.752" cy="31.993" fill="#5a5ca1" rx="6.383" ry="7.116"/><ellipse cx="15.529" cy="21.848" fill="#6262b1" rx="6.383" ry="7.116"/><ellipse cx="48.129" cy="21.848" fill="#7b7bc8" rx="6.383" ry="7.116"/><ellipse cx="19.029" cy="31.407" fill="#5a5ca1" rx="6.383" ry="7.116"/><ellipse cx="44.629" cy="31.407" fill="#6262b1" rx="6.383" ry="7.116"/><ellipse cx="23.508" cy="21.194" fill="#7b7bc8" rx="6.383" ry="7.116"/><ellipse cx="40.15" cy="21.194" fill="#6f6fba" rx="6.383" ry="7.116"/><ellipse cx="27.118" cy="31.721" fill="#6f6fba" rx="6.383" ry="7.116"/><ellipse cx="36.541" cy="31.721" fill="#7b7bc8" rx="6.383" ry="7.116"/><ellipse cx="31.829" cy="21.168" fill="#5a5ca1" rx="6.383" ry="7.116"/></svg>