<svg id="Layer_1" height="512" viewBox="0 0 64 64" width="512" xmlns="http://www.w3.org/2000/svg" data-name="Layer 1"><path d="m41.616 56.779a6.691 6.691 0 0 0 7.333-.334l.069-.055a7.386 7.386 0 0 1 7.433-1.174.854.854 0 0 0 1.132-1.075 7.386 7.386 0 0 1 1.549-7.364l.058-.067a6.69 6.69 0 0 0 .71-7.31 24.128 24.128 0 0 0 -9.881-10.385 6.672 6.672 0 0 0 -7.423.434 6.378 6.378 0 0 0 -2.375 4.575 3 3 0 0 1 -2.971 2.824 6.383 6.383 0 0 0 -4.69 2.14 6.671 6.671 0 0 0 -.809 7.392 24.127 24.127 0 0 0 9.865 10.399z" fill="#f9b87d"/><path d="m32.555 38.992a6.671 6.671 0 0 0 -.809 7.392 24.1 24.1 0 0 0 2.362 3.816l1.368-6.146a7.464 7.464 0 0 0 -1.444-6.277 6.428 6.428 0 0 0 -1.477 1.215z" fill="#f9a961"/><path d="m27.769 35.554-.093-.028a6 6 0 0 1 -4.244-4.239 1.565 1.565 0 0 0 -2.733-.608 6 6 0 0 1 -5.641 2.039l-.1-.014a7.2 7.2 0 0 0 -7.867 5.7l-1.827 8.234c-1.055 4.74 1.147 8.644 4.892 9.559a6.946 6.946 0 0 0 4.471-.391 3.041 3.041 0 0 1 3.564.713 6.947 6.947 0 0 0 3.968 2.349 7.176 7.176 0 0 0 8.267-5.605c.607-2.731 1.442-6.483 2.05-9.213a7.2 7.2 0 0 0 -4.707-8.496z" fill="#f9b87d"/><path d="m48.814 18.972a24.13 24.13 0 0 0 -6.975-12.523 6.691 6.691 0 0 0 -7.185-1.5l-.081.036a7.39 7.39 0 0 1 -7.492-.711.854.854 0 0 0 -1.363.76 7.386 7.386 0 0 1 -3.332 6.747l-.073.05a6.693 6.693 0 0 0 -2.5 6.9 24.133 24.133 0 0 0 6.987 12.517 6.67 6.67 0 0 0 7.3 1.426 6.377 6.377 0 0 0 3.438-3.841 3 3 0 0 1 3.58-2 6.378 6.378 0 0 0 5.075-.907 6.67 6.67 0 0 0 2.621-6.954z" fill="#f9b87d"/><g fill="#f9c99d"><path d="m20.844 20.617a6.688 6.688 0 0 1 2.5-6.9l.072-.05c2.24-1.523 4.465-3.108 4.221-5.805a.854.854 0 0 1 1.363-.762c2.166 1.626 4.13.874 6.6-.23l.081-.036a6.69 6.69 0 0 1 7.185 1.5 24.094 24.094 0 0 1 4 5.009 24.12 24.12 0 0 0 -5.03-6.894 6.691 6.691 0 0 0 -7.185-1.5l-.081.036a7.39 7.39 0 0 1 -7.492-.711.854.854 0 0 0 -1.363.76 7.386 7.386 0 0 1 -3.332 6.747l-.073.05a6.693 6.693 0 0 0 -2.5 6.9 24.114 24.114 0 0 0 2.968 7.487 24.111 24.111 0 0 1 -1.934-5.601z"/><path d="m59.9 39.4a24.113 24.113 0 0 0 -3.435-5.131 24.118 24.118 0 0 1 1.88 3.167 6.689 6.689 0 0 1 -.705 7.305l-.058.067c-1.791 2.032-3.445 4.239-2.537 6.79a.854.854 0 0 1 -1.131 1.076c-2.5-1.036-4.326.063-6.446 1.747l-.07.055a6.689 6.689 0 0 1 -7.332.334 24.091 24.091 0 0 1 -6.419-5.236 24.124 24.124 0 0 0 7.975 7.2 6.689 6.689 0 0 0 7.332-.334l.069-.055a7.386 7.386 0 0 1 7.433-1.174.854.854 0 0 0 1.132-1.075 7.386 7.386 0 0 1 1.549-7.364l.058-.067a6.69 6.69 0 0 0 .705-7.305z"/><path d="m27.769 35.554-.093-.028a6 6 0 0 1 -4.244-4.239 1.565 1.565 0 0 0 -2.733-.608 6 6 0 0 1 -5.641 2.039l-.1-.014a7.2 7.2 0 0 0 -7.867 5.7l-.213.958a7.062 7.062 0 0 1 7.08-3.663l.1.014c2.129.33 4.153.211 5.512-1.46a1.564 1.564 0 0 1 2.732.608c.522 2.09 2.306 3.056 4.374 3.66l.093.028a9.069 9.069 0 0 1 5.574 6.093l.133-.6a7.2 7.2 0 0 0 -4.707-8.488z"/><ellipse cx="48.97" cy="32.788" rx="2.086" ry="4.134" transform="matrix(.551 -.835 .835 .551 -5.361 55.618)"/><ellipse cx="43.069" cy="13.6" rx="1.54" ry="3.764" transform="matrix(.889 -.459 .459 .889 -1.44 21.272)"/></g><path d="m46.192 23.93a6.378 6.378 0 0 1 -5.075.907 3 3 0 0 0 -3.58 2 6.377 6.377 0 0 1 -3.437 3.837 6.67 6.67 0 0 1 -7.3-1.426 24.133 24.133 0 0 1 -6.988-12.516c-.036-.172-.05-.347-.073-.521a7.325 7.325 0 0 0 .073 2.521 24.133 24.133 0 0 0 6.988 12.516 6.67 6.67 0 0 0 7.3 1.426 6.377 6.377 0 0 0 3.438-3.841 3 3 0 0 1 3.58-2 6.378 6.378 0 0 0 5.075-.907 6.6 6.6 0 0 0 2.691-6.459 6.339 6.339 0 0 1 -2.692 4.463z" fill="#f9a961"/><path d="m23.159 56.868a6.947 6.947 0 0 1 -3.968-2.349 3.041 3.041 0 0 0 -3.564-.713 6.946 6.946 0 0 1 -4.471.391c-3.745-.915-5.947-4.819-4.892-9.559l1.836-8.229q.077-.34.182-.668a7.5 7.5 0 0 0 -1.182 2.668l-1.836 8.229c-1.055 4.74 1.147 8.644 4.892 9.559a6.946 6.946 0 0 0 4.471-.391 3.041 3.041 0 0 1 3.564.713 6.947 6.947 0 0 0 3.968 2.349 7.145 7.145 0 0 0 8.086-4.946 7.013 7.013 0 0 1 -7.086 2.946z" fill="#f9a961"/></svg>