<svg id="Layer_1" enable-background="new 0 0 512 512" height="512" viewBox="0 0 512 512" width="512" xmlns="http://www.w3.org/2000/svg"><g><g><path d="m145.491 47.184c-.369-1.916-2.997-19.42 18.142-43.8 3.548-4.093 9.743-4.534 13.836-.986 4.093 3.549 4.534 9.743.986 13.836-14.623 16.865-13.652 27.494-13.639 27.61-.027-.248-.062-.373-.062-.373zm19.324-3.34h.01z" fill="#4f4218"/></g><g><path d="m135.668 480.042c11.095 5.1 23.996 5.1 35.091 0 20.554-9.447 42.618-32.892 83.731-93.612 43.365-64.047 30.224-155.569 10.557-194.5-19.897-39.387-36.67-75.08-37.763-102.326-.981-24.465-7.309-51.163-74.071-51.163s-73.09 26.698-74.071 51.163c-1.092 27.246-17.866 62.939-37.762 102.326-19.666 38.931-32.808 130.453 10.557 194.5 41.113 60.72 63.177 84.165 83.731 93.612z" fill="#417a16"/></g><g><path d="m198.692 149.91c-2.877 0-5.61-1.699-6.79-4.521-9.619-23.005-14.377-40.637-14.973-55.49-.163-4.059 2.996-7.482 7.056-7.646 4.066-.159 7.483 2.996 7.646 7.056.516 12.87 5.045 29.358 13.846 50.405 1.568 3.748-.201 8.057-3.949 9.625-.928.388-1.89.571-2.836.571z" fill="#315c10"/></g><g><path d="m220.432 203.725c-3.166 0-6.09-2.059-7.044-5.248-2.5-8.345-5.343-15.699-8.454-21.858-1.832-3.626-.377-8.051 3.25-9.883 3.626-1.832 8.051-.377 9.883 3.25 3.501 6.931 6.669 15.096 9.416 24.271 1.166 3.892-1.045 7.992-4.937 9.157-.704.21-1.415.311-2.114.311z" fill="#315c10"/></g><g opacity=".2"><path d="m274.776 217.736c-8.785 4.447-18.042 8.894-27.582 13.401-37.806 17.86-101.656 79.338-106.585 153.323-1.182 17.735-1.879 32.943-2.102 46.09-13.38-14.664-29.379-35.912-50.332-66.859-43.365-64.047-30.224-155.569-10.557-194.5 19.897-39.387 36.67-75.08 37.763-102.326.349-8.701 1.392-17.678 5.571-25.643-36.722 7.445-41.017 28.636-41.809 48.382-1.093 27.246-17.867 62.939-37.763 102.326-19.666 38.931-32.808 130.453 10.557 194.5 41.112 60.72 63.177 84.166 83.731 93.612 7.174 3.297 12.178 3.825 19.104 3.783 7.93 0 16.308-3.398 23.395-7.782 32.563-20.142 43.029-40.44 76.324-89.614 35.525-52.467 33.125-123.366 20.285-168.693z"/></g><g><path d="m178.252 489.532c5.388 10.393 15.145 17.992 26.54 20.671 21.11 4.962 51.608.227 118.47-21.479 70.525-22.896 114.496-99.856 122.555-140.885 8.153-41.509 16.491-78.385 31.714-99.635 13.669-19.081 24.61-43.001-25.884-82.327s-71.005-22.861-86.159-4.936c-16.876 19.963-50.586 37.077-88.836 55.147-37.806 17.86-101.656 79.338-106.585 153.323-4.673 70.14-1.796 100.869 8.185 120.121z" fill="#417a16"/></g><g><path d="m195.877 494.275c-3.35-2.609-6.143-5.961-8.078-9.693-9.327-17.994-11.291-50.085-7.002-114.457 2.586-38.814 22.45-71.311 38.658-91.738 21.884-27.58 46.268-45.242 61.791-52.575 38.152-18.024 73.931-36.017 92.455-57.927 7.143-8.45 13.749-14.277 22.769-15.252 12.043-1.302 28.384 6.01 48.568 21.73s31.274 29.773 32.961 41.768c1.263 8.984-2.769 16.816-9.213 25.811-16.709 23.325-25.392 62.421-33.524 103.825-3.309 16.846-14.462 44.813-35.844 72.784-15.837 20.717-42.48 47.933-79.479 59.945-61.364 19.922-92.959 25.876-112.688 21.238-4.09-.963-8.024-2.85-11.374-5.459z" fill="#ff8a3b"/></g><g><path d="m372.664 367.39c-26.025 33.415-97.566 68.077-130.944 83.008-7.79 3.485-15.998-2.908-14.527-11.314 6.304-36.018 22.391-113.869 48.416-147.284 23.144-29.717 74.725-50.709 106.052-61.278 14.644-4.94 25.65 3.631 24.445 19.039-2.575 32.961-10.298 88.112-33.442 117.829z" fill="#ffb163"/></g><g><g><circle cx="239.332" cy="438.481" fill="#232323" r="14.163"/></g><g><circle cx="240.451" cy="433.127" fill="#b2b2b2" r="3.561"/></g></g><g><g><circle cx="237.332" cy="412.746" fill="#232323" r="14.163"/></g><g><circle cx="238.451" cy="407.392" fill="#b2b2b2" r="3.561"/></g></g><g><g><circle cx="266.181" cy="433.502" fill="#232323" r="14.163"/></g><g><circle cx="267.3" cy="428.148" fill="#b2b2b2" r="3.561"/></g></g><g><g><circle cx="262.935" cy="406.797" fill="#232323" r="14.163"/></g><g><circle cx="264.054" cy="401.443" fill="#b2b2b2" r="3.561"/></g></g><g><g><circle cx="246.026" cy="386.203" fill="#232323" r="14.163"/></g><g><circle cx="247.145" cy="380.848" fill="#b2b2b2" r="3.561"/></g></g><g><g><circle cx="286.897" cy="416.322" fill="#232323" r="14.163"/></g><g><circle cx="288.016" cy="410.968" fill="#b2b2b2" r="3.561"/></g></g><g><g><circle cx="310.942" cy="404.579" fill="#232323" r="14.163"/></g><g><circle cx="312.061" cy="399.225" fill="#b2b2b2" r="3.561"/></g></g><g><g><circle cx="272.53" cy="380.889" fill="#232323" r="14.163"/></g><g><circle cx="273.649" cy="375.534" fill="#b2b2b2" r="3.561"/></g></g><g><g><circle cx="298.979" cy="381.678" fill="#232323" r="14.163"/></g><g><circle cx="300.098" cy="376.323" fill="#b2b2b2" r="3.561"/></g></g><g><g><circle cx="254.111" cy="360.317" fill="#232323" r="14.163"/></g><g><circle cx="255.23" cy="354.963" fill="#b2b2b2" r="3.561"/></g></g><g><g><circle cx="279.454" cy="354.746" fill="#232323" r="14.163"/></g><g><circle cx="280.573" cy="349.391" fill="#b2b2b2" r="3.561"/></g></g><g><g><circle cx="301.081" cy="338.564" fill="#232323" r="14.163"/></g><g><circle cx="302.2" cy="333.209" fill="#b2b2b2" r="3.561"/></g></g><g><g><circle cx="325.879" cy="347.138" fill="#232323" r="14.163"/></g><g><circle cx="326.998" cy="341.784" fill="#b2b2b2" r="3.561"/></g></g><g><g><circle cx="322.155" cy="372.929" fill="#232323" r="14.163"/></g><g><circle cx="323.274" cy="367.574" fill="#b2b2b2" r="3.561"/></g></g><g><g><circle cx="349.326" cy="374.427" fill="#232323" r="14.163"/></g><g><circle cx="350.445" cy="369.073" fill="#b2b2b2" r="3.561"/></g></g><g><g><circle cx="351.294" cy="347.269" fill="#232323" r="14.163"/></g><g><circle cx="352.413" cy="341.914" fill="#b2b2b2" r="3.561"/></g></g><g><g><circle cx="376.537" cy="335.572" fill="#232323" r="14.163"/></g><g><circle cx="377.656" cy="330.218" fill="#b2b2b2" r="3.561"/></g></g><g><g><circle cx="320.835" cy="320.744" fill="#232323" r="14.163"/></g><g><circle cx="321.954" cy="315.39" fill="#b2b2b2" r="3.561"/></g></g><g><g><circle cx="346.459" cy="314.811" fill="#232323" r="14.163"/></g><g><circle cx="347.578" cy="309.457" fill="#b2b2b2" r="3.561"/></g></g><g><g><circle cx="324.449" cy="268.128" fill="#232323" r="14.163"/></g><g><circle cx="325.568" cy="262.774" fill="#b2b2b2" r="3.561"/></g></g><g><g><circle cx="349.164" cy="263.2" fill="#232323" r="14.163"/></g><g><circle cx="350.283" cy="257.845" fill="#b2b2b2" r="3.561"/></g></g><g><g><circle cx="368.82" cy="245.798" fill="#232323" r="14.163"/></g><g><circle cx="369.939" cy="240.444" fill="#b2b2b2" r="3.561"/></g></g><g><g><circle cx="393.564" cy="254.33" fill="#232323" r="14.163"/></g><g><circle cx="394.683" cy="248.975" fill="#b2b2b2" r="3.561"/></g></g><g><g><circle cx="348.348" cy="289.337" fill="#232323" r="14.163"/></g><g><circle cx="349.467" cy="283.982" fill="#b2b2b2" r="3.561"/></g></g><g><g><circle cx="390.803" cy="280.87" fill="#232323" r="14.163"/></g><g><circle cx="391.922" cy="275.516" fill="#b2b2b2" r="3.561"/></g></g><g><g><circle cx="374.324" cy="296.233" fill="#232323" r="14.163"/></g><g><circle cx="375.443" cy="290.878" fill="#b2b2b2" r="3.561"/></g></g><g><g><circle cx="317.357" cy="294.617" fill="#232323" r="14.163"/></g><g><circle cx="318.476" cy="289.262" fill="#b2b2b2" r="3.561"/></g></g><g><g><circle cx="270.712" cy="321.137" fill="#232323" r="14.163"/></g><g><circle cx="271.831" cy="315.783" fill="#b2b2b2" r="3.561"/></g></g><g><g><circle cx="296.089" cy="312.211" fill="#232323" r="14.163"/></g><g><circle cx="297.208" cy="306.856" fill="#b2b2b2" r="3.561"/></g></g><g><g><circle cx="293.461" cy="286.745" fill="#232323" r="14.163"/></g><g><circle cx="294.58" cy="281.391" fill="#b2b2b2" r="3.561"/></g></g></g></svg>