<svg id="Layer_1" enable-background="new 0 0 3000 3000" height="512" viewBox="0 0 3000 3000" width="512" xmlns="http://www.w3.org/2000/svg"><path d="m258.5 978.4 126.7-202.4 187.9-42.1 177.5-273.4 162 7.2 60.6 57.9 258.6-16.5 214 162.6 191.5-122.8 86.9 30.5 133.5-73.1 159 120.5 117-78 109.5 73.1 183.2-4 50 58.3 90.5-50.6 121.5 126.7 80.8-7-7.6 187-480.7 918.9-890.5-18.3z" fill="#fbf2e9"/><path d="m2772 945c0 6.3-.1 12.7-.2 19-.1 8-.3 16.1-.5 24.2l-.1.3-183.3 619-199.5 37.6-400.5 75.6-595.4 112.3-2.3.4-467.5 80.3-663.8-934.5.3-.2.1-.1c6.7-3 81.7-36.7 208.7-79.1 5-1.7 10.2-3.4 15.4-5.1 5-1.7 10.2-3.3 15.4-5 377.3-121.9 1150.7-299 1967.1-55.9 79.5 23.7 159.4 51.3 239.4 83.4 14.5 5.8 28.9 11.8 43.4 17.9h.1c2.6 1.1 5.3 2.2 7.9 3.4.3.1.7.3 1 .4 3.9 1.7 7.8 3.3 11.8 5 .1.1.3.1.4.2.6.2 1.1.5 1.7.7.3.2.3.2.4.2z" fill="#efe4dc"/><path d="m285 1092.8s1186.3-497.6 2416.8 83.3l-157.5 619-1137.5 162.7-444.4 56.2z" fill="#e9d9cd"/><path d="m2762 975v1.5s-334.4 195.3-567.5 251.7c-741.9 179.5-1680.9 117.1-1741-90.7-11.5-39.7 9.4-84 52.7-129.1 3.4-3.5 6.9-7.1 10.7-10.7 3.2-1.5 6.3-2.7 9.5-4.2 935.2-79.7 1593.5-138.6 2059-167.9l20.4-1.2c2.6-.1 5-.3 7.4-.4 10.7 5.8 20.8 11.5 30.5 17.4 1.5 1 2.9 1.8 4.5 2.7 8.9 5.4 17.3 11 25.2 16.4 1.3.8 2.4 1.8 3.7 2.6 1.3 1 2.6 1.8 3.9 2.7 1.3 1 2.6 1.8 3.7 2.7 1.1 1 2.4 1.8 3.7 2.7 1 .7 1.9 1.5 2.9 2.3 2.6 2 5.2 4.1 7.6 6.1 1.1.8 2.1 1.8 3.2 2.6 2.3 1.9 4.4 3.7 6.5 5.6 1 .8 1.9 1.8 2.9 2.6.6.7 1.5 1.2 2.1 1.9 1.6 1.5 3.2 3 4.7 4.5.6.5 1.3 1.2 1.8 1.8 1 1 1.8 1.8 2.7 2.7.8.8 1.6 1.6 2.4 2.4 3.6 3.7 6.8 7.3 9.9 11 .6.8 1.5 1.8 2.1 2.6 1.3 1.6 2.4 3.3 3.7 4.8.5.7 1 1.2 1.3 1.9.2.3.3.4.5.7.3.5.8 1.1 1.1 1.5.5.8 1 1.5 1.5 2.3s1 1.5 1.5 2.3c1.3 2 2.4 4.1 3.6 6.1.3.7.6 1.2 1 1.9.5.8 1 1.8 1.3 2.6.5.8.8 1.6 1.1 2.4 0 .1.2.1.2.3.3.8.6 1.5 1 2.3 0 .1.2.3.2.4.3.8.6 1.6 1 2.4.3.8.6 1.6 1 2.6.3 1 .6 1.9 1 2.9.3.8.5 1.6.6 2.4.2.7.3 1.5.6 2.2.2.4.2.8.3 1.1.2.5.3 1.6.3 1.6v.1s.3 1.6.5 2.4c.2.7.2 1.4.3 1.9 0 .4.2.7.2 1.1 0 .5-1.1 1.6-1 1.6v.5l2 2.2v.3z" fill="#f3e89e" opacity=".88"/><path d="m2635.4 910.3c-2.4 108.8-305.3 184.5-518.4 237.7-678.4 169.5-1537.1 110.4-1592-85.7-4.4-15.5-3.6-31.8 1.5-48.5 42-136.9 380.3-306.7 661-378.6 339.2-86.9 708-60.2 988.4 10.2 272.4 68.5 461.4 178.1 459.5 264.9z" fill="#ff9e00"/><path d="m2762 975v1.5c-.5 0-334.4 195.3-567.5 251.7-741.9 179.5-1680.9 117.1-1741-90.7-11.5-39.7 9.4-84 52.7-129.1-11.3 27.8-102.1 294.2 551.9 298.2 688.6 4.1 2062.8-154.3 1547.9-482.1 2.6-.1 5-.3 7.4-.4 10.7 5.8 20.8 11.5 30.5 17.4 1.5 1 2.9 1.8 4.5 2.7 8.9 5.4 17.3 11 25.2 16.4 1.3.8 2.4 1.8 3.7 2.6 1.3 1 2.6 1.8 3.9 2.7 1.3 1 2.6 1.8 3.7 2.7 1.1 1 2.4 1.8 3.7 2.7 1 .7 1.9 1.5 2.9 2.3 2.6 2 5.2 4.1 7.6 6.1 1.1.8 2.1 1.8 3.2 2.6 2.3 1.9 4.4 3.7 6.5 5.6 1 .8 1.9 1.8 2.9 2.6.6.7 1.5 1.2 2.1 1.9 1.6 1.5 3.2 3 4.7 4.5.6.5 1.3 1.2 1.8 1.8 1 1 1.8 1.8 2.7 2.7.8.8 1.6 1.6 2.4 2.4 3.6 3.7 6.8 7.3 9.9 11 .6.8 1.5 1.8 2.1 2.6 1.3 1.6 2.4 3.3 3.7 4.8.5.7 1 1.2 1.3 1.9.2.3.3.4.5.7.3.5.8 1.1 1.1 1.5.5.8 1 1.5 1.5 2.3s1 1.5 1.5 2.3c1.3 2 2.4 4.1 3.6 6.1.3.7.6 1.2 1 1.9.5.8 1 1.8 1.3 2.6.5.8.8 1.6 1.1 2.4 0 .1.2.1.2.3.3.8.6 1.5 1 2.3 0 .1.2.3.2.4.3.8.6 1.6 1 2.4.3.8.6 1.6 1 2.6.3 1 .6 1.9 1 2.9.3.8.5 1.6.6 2.4.2.7.3 1.5.6 2.2.2.4.2.8.3 1.1.2.5 0 1.6.2 1.6v.1c-.2 0 .5 1.6.7 2.4.2.7.2 1.4.3 1.9 0 .4.2.7.2 1.1 0 .5-1.3 1.6-1.1 1.6v.5c-.2 0 1.5 1.5 2 2.2v.3 2.8z" fill="#ffdb83" opacity=".44"/><path d="m2635.4 910.3c-2.4 108.8-305.3 184.5-518.4 237.7-678.4 169.5-1537.1 110.4-1592-85.7-4.4-15.5-3.6-31.8 1.5-48.5 170 63.8 524.3 139.1 1158.6 46.2 736-107.7 601-318.2 490.8-414.6 272.4 68.5 461.4 178.1 459.5 264.9z" fill="#ff7e00" opacity=".55"/><path d="m825.4 829.2s399.2-232.3 683.6-171.2-879.1 362.8-683.6 171.2z" fill="#fffcf4" opacity=".22"/><path d="m2060.7 1116.3c83.1-23.8 345.4-102.4 429.6-173.5 23.8-20.1-8.2-51.6-35.6-34.8-52.8 32.5-152.6 81.4-305 108.1-142.1 24.9-156.8 57.6-144.8 80.3 9.6 17.7 34 26.1 55.8 19.9z" fill="#fffcf4" opacity=".22"/><g><g><path d="m2771.2 941.7v2.8c0 6.4-.1 12.8-.2 19.2l1 24.3-2 62.7c-.4 7.4-.8 14.7-1.2 22.1-.9 14.8-1.9 29.6-3 44.4-73 935.6-694 1650.1-1387 1596.1-330.3-25.8-617.3-221.4-819.4-520.2-34.3-50.6-66-104.4-95.2-160.6-154-297.4-234.4-668.5-211.2-1065.9 0-.1 0-.2 0-.3l19.1-9.1 182.2-87 29 24.1 91.2 75.7 13 18.2 95.6 133.3 211-96.6 81.8-70 87.6-75 86 60.1 35.4 24.8 40.2 63.3 204.1-112 24.1-13.2 10.1 10.3 150.3 152.8 224.5 17.5 152.7-123.8 48.9 48.9 183.1-128.8 26.6 20.1 129.8 97.5 112.8 99.1 84.1-113.9 87.9 46.9 14.3 7.6 13.6 7.3 30.8-40.4 8.5-11.1 26.4-34.7.1-.1 11-14.5 1.8-2.3z" fill="#ffb67a"/></g><g enable-background="new" opacity=".66"><path d="m2772.5 942v2.7c0 6.3-.1 12.7-.2 19-.1 8-.3 16.1-.5 24.2-.5 20.9-1.3 41.9-2.3 63-.4 7.3-.8 14.7-1.2 22.1-.9 14.8-1.9 29.6-3 44.4-72.9 935.6-693.9 1650-1386.9 1596-330.3-25.8-617.2-221.4-819.3-520.2-34.2-50.6-66-104.4-95.2-160.6 551.1 232.5 939.9 201.9 1213 23.3 5.9-3.8 11.7-7.8 17.5-11.8 79.7-55 149.3-122.9 209.9-200.6 30.2-38.6 58.1-79.7 84-122.9 86.8-144.8 150.5-312.8 196.6-490 1.9-7.2 3.7-14.4 5.5-21.6 24-95.5 43-193.4 58-291.7.9-5.6 1.7-11.2 2.5-16.8l129.9 97.6 112.9 99.1 84.2-113.9 87.3 46.7 14.4 7.7 14.1 7.5 29.4-38.6 10.7-14.1 25.6-33.6.1-.1 11.3-14.9 1.6-2.2.1.1z" fill="#fea35d"/></g><g><ellipse cx="647.2" cy="1372.7" fill="#fca05e" rx="77" ry="38" transform="matrix(.078 -.997 .997 .078 -771.729 1911.176)"/></g><g><ellipse cx="1847" cy="2114.3" fill="#fca05e" rx="77" ry="38" transform="matrix(.078 -.997 .997 .078 -404.562 3791.304)"/></g><g><ellipse cx="2322.2" cy="1055.8" fill="#fca05e" rx="77" ry="38" transform="matrix(.078 -.997 .997 .078 1088.968 3288.86)"/></g><g><ellipse cx="823.3" cy="1544.8" fill="#fca05e" rx="27.3" ry="19.3" transform="matrix(.078 -.997 .997 .078 -780.82 2245.407)"/></g><g><ellipse cx="652.9" cy="1651.1" fill="#fca05e" rx="27.3" ry="19.3" transform="matrix(.078 -.997 .997 .078 -1044.007 2173.549)"/></g><g><ellipse cx="1692.1" cy="2071.3" fill="#fca05e" rx="27.3" ry="19.3" transform="matrix(.078 -.997 .997 .078 -504.505 3597.134)"/></g><g><ellipse cx="1990.1" cy="2245.3" fill="#fca05e" rx="27.3" ry="19.3" transform="matrix(.078 -.997 .997 .078 -403.146 4054.687)"/></g><g><ellipse cx="2497.9" cy="1181.7" fill="#fca05e" rx="27.3" ry="19.3" transform="matrix(.078 -.997 .997 .078 1125.483 3580.148)"/></g><g><path d="m2772.4 942.2v2.7c0 6.4-.1 12.7-.2 19.1l-.1.1v-.3l-10.6 14.1-63.1 82.8-1.3 1.7-.7-.4-2-1.1-26-13.9-17.8-9.5-69-36.9-83.4 113-2.2 3-1.6-1.3-142.3-114.6-27.1-22.7-76.8-60.8-24.8-19.9-184.4 129.5-48.3-48.6-147.5 119.6-235.1-18.4-157-159.5-230.4 126.5-45.7-71.9-46.7-32.6-63.9-44.6-65.1 55.7-98 83.8-1.7.7-221.1 101.3-107-149.1-7.3-10.2-96.4-80-15.8-13.2-192.9 92.1-.2.1-.1.5h-.6l-.3.2-5.9-12.2-6-12.5 38.6-18.5 170.7-81.9 42.6 35.4 86 71.4 18.9 26.4 84.3 117.9 199.1-91.3 66.1-56.6 110.1-94.4 107.9 75.7 24.5 17.1 34.9 55 166-91.5 60.1-33.1 25.3 25.8 139 141.6 214.2 16.8 158.1-128.3 49.4 49.7 182.4-128.7 266.5 215 82.7-112.1 106.1 56.6 9.9 5.3 13.8-18.2 3.4-4.5 46.9-61.8.1-.1 3.7-4.9 3.9-5.2.2-.2 8.3 6.3 2.2 2.3.3.3.1.1z" fill="#f8eec9"/></g></g></svg>