<svg height="512" viewBox="0 0 64 64" width="512" xmlns="http://www.w3.org/2000/svg"><g id="Layer_18" data-name="Layer 18"><path d="m40 14s2.805-9.35 19.263-9.968a1.672 1.672 0 0 1 1.737 1.662v1.606a1.662 1.662 0 0 1 -1.67 1.66c-4.31-.01-15.524.588-16.33 7.04z" fill="#534741"/><path d="m63 33c0 14.272-11.08 26.5-24.568 29.983a30.711 30.711 0 0 1 -31.821-10.712c-8.261-10.561-8.423-25.496-2.358-37.171a28.151 28.151 0 0 1 13.383-13.054c6.112-2.668 13.564-3.026 19.226.888a16.568 16.568 0 0 1 5.708 6.9c.318.721.2 1.152 1.014 1.182a16.058 16.058 0 0 1 2.985.39 15.469 15.469 0 0 1 4.822 2 14.239 14.239 0 0 1 5.83 7.175 11.222 11.222 0 0 0 .671 2.2 19.064 19.064 0 0 0 1.772 1.739 13.538 13.538 0 0 1 2.432 3.8 12.256 12.256 0 0 1 .904 4.68z" fill="#854883"/><path d="m50.1 12.671c-.021-.011-.952-.436-1.413-.612-.123-.048-1.293-.443-1.77-.563-.159-.04-.321-.073-.483-.108a26.682 26.682 0 0 0 -3.087-.382 2.8 2.8 0 0 0 -.647.055 30.869 30.869 0 0 0 -14.51 8.01 31.893 31.893 0 0 0 -9.11 18.92c-.14 1.15 1.73 1.63 2.33.61 2.67-4.52 6.08-10.61 11.53-16.06a32.528 32.528 0 0 1 4.307-3.595 5.766 5.766 0 0 1 1.093-.6c2.677-1.13 9.094-1.886 16.66 2.654.86.52 1.66-.1 2.41.18a14.229 14.229 0 0 0 -7.31-8.509z" fill="#fff" opacity=".4"/><path d="m55.41 52.52a33.613 33.613 0 0 1 -24.89 11.48 30.761 30.761 0 0 1 -30.52-31 39.344 39.344 0 0 1 3.32-15.96c1.42 15.31 8.12 42.39 37.82 38.96-3.49-13.77-2.4-18.64-2.14-21 .67-5.96 6.14-12.79 9.76-16.73a21.85 21.85 0 0 1 2.43.83c-3.72 3.58-8.3 8.99-9.66 14.98-1.48 6.5.45 15.56 2.14 21.57a69.312 69.312 0 0 0 11.74-3.13z" opacity=".2"/><path d="m56.4 14.709c-5.832 4.181-11.539 10.062-14.108 16.85-2.776 7.336-.827 16.031 1.171 23.327a50.634 50.634 0 0 0 2.266 7.114 65.755 65.755 0 0 0 13.514-13.684c2.407-3.348 4.463-7.1 4.723-11.291a29.3 29.3 0 0 0 -2.419-12.314 55.84 55.84 0 0 0 -5.147-10.002z" fill="#349a46"/><path d="m56.613 15.04a75.608 75.608 0 0 1 -1.045 20.553 82.29 82.29 0 0 1 -5.706 17.47c-1.3 3-2.676 5.958-4.087 8.905a23.749 23.749 0 0 1 1.888-1.545q1.833-1.546 3.578-3.194a63.35 63.35 0 0 0 7.9-8.763c2.377-3.277 4.459-6.969 4.8-11.076a28.269 28.269 0 0 0 -2.2-12.193 52.35 52.35 0 0 0 -5.128-10.157z" fill="#39b54a"/><path d="m56.96 20.29a79.9 79.9 0 0 1 -3.66 24.18c-.986 3.027-2.3 5.973-3.57 8.892q-1.033 2.383-2.118 4.746a21.982 21.982 0 0 1 -1.882 3.892c-.179-.4.4-1.238.571-1.63q.525-1.182 1.04-2.366 1.075-2.465 2.118-4.944c1.132-2.7 2.307-5.405 3.2-8.193a61.888 61.888 0 0 0 2.488-13.225 75.449 75.449 0 0 0 .134-13.609c-.234-2.5-.569-5-.926-7.483-.184-1.282-.366-2.564-.565-3.843a6.291 6.291 0 0 1 -.265-1.7c.081-.454-.023-.335.49-.427.438-.079.879-.147 1.32-.208.633 5.261 1.625 10.603 1.625 15.918z" fill="#068c38"/><path d="m43 11a29.557 29.557 0 0 0 -13.2 6.569 31.205 31.205 0 0 0 -5.554 6.331 6.453 6.453 0 0 1 -.906 1.434 2.268 2.268 0 0 1 -1.373.127c-.913-.214-1-1.084-.953-1.883.207-3.525 3-6.36 5.236-8.824 1.692-1.864 4.687-4.6 3.856-7.444-.576-1.975-2.553-3.238-4.306-4.056a26.138 26.138 0 0 0 -6.381-1.9c4.807-1.662 10.32-1.989 15.015.193a16.545 16.545 0 0 1 7.306 6.662 8.3 8.3 0 0 1 1.26 2.791z" opacity=".2"/><path d="m61 5.69v1.61a1.664 1.664 0 0 1 -1.67 1.66c-2.91-.01-8.96.26-12.84 2.43a16.02 16.02 0 0 0 -3.49-.39c0-.01.01.01 0 0-.01-.03-.23-.7-.35-.98 2.58-2.63 7.51-5.65 16.61-5.99a1.674 1.674 0 0 1 1.74 1.66z" fill="#534741"/></g></svg>