<svg id="Layer_1" enable-background="new 0 0 512 512" height="512" viewBox="0 0 512 512" width="512" xmlns="http://www.w3.org/2000/svg"><g><circle cx="256" cy="256" fill="#f3f0f3" r="256"/><path d="m256 0c-5.19 0-10.339.173-15.453.478 134.188 7.991 240.548 119.327 240.548 255.522s-106.36 247.531-240.547 255.522c5.113.305 10.262.478 15.452.478 141.385 0 256-114.615 256-256s-114.615-256-256-256z" fill="#e2dee2"/><path d="m455.955 267.129c-1.3-.956-1.066-2.933.377-3.655 20.501-10.258 16.997-41.611-5.202-47.155-1.529-.382-2.21-2.204-1.209-3.421 7.939-9.653 5.28-24.459-5.761-30.677-1.124-.633-1.48-2.047-.772-3.126 12.023-18.316-5.929-41.825-26.525-35.647-1.44.432-2.855-.681-2.776-2.183.856-16.297-14.955-28.165-29.919-24.045-1.801.496-3.288-1.418-2.437-3.081 10.536-20.592-15.643-44.207-35.193-29.739-1.36 1.006-3.318.138-3.424-1.55-.969-15.418-19.144-24.54-32.151-15.201-1.005.722-2.439.417-3.058-.654-6.038-10.457-20.024-13.358-29.704-6.224-1.21.892-2.921.359-3.364-1.077-7.69-24.933-45.415-23.408-50.203 3.09-.203 1.126-1.239 1.88-2.376 1.758-7.669-.823-15.25 2.739-19.438 9.388-.793 1.259-2.57 1.39-3.503.23-16.239-20.206-49.456-3.857-44.631 20.678.338 1.718-1.501 3.099-3.06 2.303-19.508-9.962-43.254 5.195-42.349 27.247.061 1.478-1.355 2.574-2.768 2.138-21.849-6.734-39.658 19.862-25.299 37.495.971 1.193.432 2.968-1.038 3.422-14.811 4.566-21.27 22.231-12.991 35.262.83 1.307.076 3.002-1.445 3.287-19.936 3.741-26.01 30.244-9.68 42.252 1.3.956 1.066 2.933-.377 3.655-20.502 10.258-16.997 41.614 5.204 47.156 1.529.382 2.208 2.203 1.208 3.421-7.885 9.608-5.354 24.431 5.758 30.677 1.125.632 1.481 2.047.772 3.126-12.015 18.307 5.914 41.834 26.525 35.647 1.44-.432 2.855.681 2.776 2.183-.855 16.297 14.955 28.165 29.919 24.045 1.801-.496 3.288 1.418 2.437 3.081-10.536 20.592 15.643 44.207 35.193 29.739 1.36-1.006 3.318-.138 3.424 1.55.97 15.417 19.143 24.542 32.151 15.201 1.005-.722 2.439-.417 3.058.654 6.038 10.458 20.024 13.358 29.704 6.225 1.21-.892 2.921-.359 3.364 1.077 7.69 24.933 45.415 23.408 50.203-3.09.203-1.125 1.239-1.88 2.376-1.758 7.67.823 15.253-2.74 19.44-9.391.788-1.252 2.561-1.399 3.49-.247 15.385 19.087 46.935 6.052 44.904-18.068-.128-1.519 1.325-2.685 2.778-2.223 20.33 6.471 41.5-8.891 41.618-30.277.008-1.448 1.455-2.463 2.825-1.993 22.022 7.547 40.547-19.419 25.992-37.282-.971-1.192-.43-2.967 1.04-3.42 14.811-4.566 21.27-22.231 12.991-35.262-.83-1.307-.076-3.002 1.445-3.287 19.935-3.743 26.014-30.245 9.681-42.254z" fill="#e19974"/><g fill="#dc8758"><path d="m118.638 101.972c.519-.186.95-.566 1.204-1.058-.412.34-.811.696-1.204 1.058z"/><path d="m455.957 267.13c-1.301-.957-1.067-2.934.377-3.657 20.499-10.258 16.996-41.609-5.202-47.154-1.53-.382-2.211-2.204-1.209-3.422 7.938-9.653 5.279-24.459-5.761-30.676-1.162-.655-1.504-2.011-.772-3.126 12.023-18.315-5.927-41.824-26.523-35.648-1.442.432-2.857-.682-2.778-2.185.854-16.295-14.955-28.162-29.918-24.043-1.786.492-3.299-1.404-2.453-3.053 10.575-20.599-15.619-44.242-35.178-29.768-1.36 1.007-3.319.174-3.422-1.515-.945-15.438-19.136-24.581-32.153-15.235-1.005.722-2.44.417-3.059-.655-6.038-10.457-20.023-13.357-29.703-6.224-1.204.887-2.92.369-3.36-1.06-6.291-20.444-32.755-23.103-44.748-8.822 3.457 2.248 6.412 5.391 8.455 9.448 1.596 3.17 5.381 4.525 8.612 3.055 8.297-3.774 18.366-1.499 24.21 5.613 1.884 2.293 5.17 2.965 7.83 1.649 11.079-5.479 24.505.651 28.279 11.865 1.244 3.697 5.292 5.601 8.855 4.013 16.941-7.55 36.261 9.311 32.75 26.675-.828 4.095 2.239 7.95 6.417 7.931 11.567-.054 22.237 8.624 23.783 20.604.448 3.471 3.645 5.977 7.123 5.584 17.637-1.994 31.797 17.017 24.034 33.488-1.247 2.647-.4 6.21 1.877 8.047 7.437 6.002 9.612 16.503 5.461 24.908-1.64 3.322-.072 7.341 3.285 8.909 16.559 7.735 19.255 31.719 4.804 42.916-3 2.325-3.497 6.704-.964 9.53 10.65 11.877 6.006 31.797-8.87 37.727-3.364 1.341-5.193 5.098-3.853 8.462 4.39 11.018-.271 23.906-10.705 29.561-3.22 1.746-4.483 5.828-2.758 9.059 8.737 16.366-5.744 37.276-24.291 34.49-3.558-.535-6.908 1.907-7.437 5.466-2.581 17.364-19.222 29.557-36.495 26.88-3.764-.583-7.202 2.073-7.594 5.862-.523 5.06-2.578 9.482-5.587 13.04 16.288 12.106 42.111-.649 40.27-22.541-.128-1.519 1.299-2.697 2.75-2.234 20.338 6.494 41.526-8.872 41.645-30.267.008-1.463 1.474-2.455 2.859-1.983 21.984 7.5 40.466-19.382 26.005-37.236-.974-1.202-.493-3.02.985-3.475 14.816-4.562 21.279-22.23 12.999-35.263-.83-1.307-.076-3.003 1.446-3.289 19.934-3.742 26.012-30.242 9.682-42.251z"/></g><g fill="#fff2e2"><path d="m371.267 273.084c-4.142 0-7.5 3.358-7.5 7.5v4.945c0 4.142 3.358 7.5 7.5 7.5s7.5-3.358 7.5-7.5v-4.945c0-4.142-3.358-7.5-7.5-7.5z"/><path d="m342.456 337.741c-4.142 0-7.5 3.358-7.5 7.5v4.945c0 4.142 3.358 7.5 7.5 7.5s7.5-3.358 7.5-7.5v-4.945c0-4.142-3.358-7.5-7.5-7.5z"/><path d="m347.986 212.559-4.402 2.253c-3.687 1.887-5.146 6.406-3.259 10.093 1.327 2.593 3.956 4.084 6.682 4.084 1.15 0 2.317-.265 3.411-.825l4.402-2.253c3.687-1.887 5.146-6.406 3.259-10.093-1.887-3.686-6.405-5.147-10.093-3.259z"/><path d="m312.174 287.973c-2.965-2.893-7.713-2.834-10.606.131-2.892 2.965-2.833 7.713.131 10.606l3.54 3.453c1.458 1.423 3.348 2.131 5.237 2.131 1.95 0 3.899-.756 5.369-2.263 2.892-2.965 2.833-7.713-.131-10.606z"/><path d="m243.606 336.265-4.236 2.551c-3.548 2.137-4.692 6.746-2.555 10.294 1.408 2.337 3.888 3.631 6.432 3.631 1.317 0 2.652-.347 3.862-1.076l4.236-2.551c3.548-2.137 4.692-6.746 2.555-10.294s-6.744-4.692-10.294-2.555z"/><path d="m255.81 268.922c-2.965-2.892-7.713-2.834-10.606.131-2.892 2.965-2.833 7.713.131 10.606l3.54 3.453c1.458 1.423 3.348 2.131 5.237 2.131 1.95 0 3.899-.756 5.369-2.263 2.892-2.965 2.833-7.713-.131-10.606z"/><path d="m224.726 219.903c-2.892 2.965-2.833 7.713.131 10.606l3.54 3.453c1.458 1.423 3.348 2.131 5.237 2.131 1.95 0 3.899-.756 5.369-2.263 2.892-2.965 2.833-7.713-.131-10.606l-3.54-3.453c-2.965-2.892-7.713-2.833-10.606.132z"/><path d="m173.239 349.806c-2.965-2.893-7.713-2.834-10.606.131-2.892 2.965-2.833 7.713.131 10.606l3.54 3.453c1.458 1.423 3.348 2.131 5.237 2.131 1.95 0 3.899-.756 5.369-2.263 2.892-2.965 2.833-7.713-.131-10.606z"/><path d="m125.801 268.922c-2.965-2.892-7.713-2.834-10.606.131-2.892 2.965-2.833 7.713.131 10.606l3.54 3.453c1.458 1.423 3.348 2.131 5.237 2.131 1.95 0 3.899-.756 5.369-2.263 2.892-2.965 2.833-7.713-.131-10.606z"/><path d="m189.037 278.021-3.986 2.927c-3.338 2.452-4.057 7.146-1.605 10.484 1.47 2.001 3.745 3.061 6.051 3.061 1.542 0 3.096-.474 4.434-1.456l3.986-2.927c3.338-2.452 4.057-7.146 1.605-10.484-2.453-3.338-7.146-4.057-10.485-1.605z"/><path d="m404.923 236.134c-2.451-3.337-7.145-4.056-10.484-1.605l-3.986 2.927c-3.338 2.452-4.057 7.146-1.605 10.484 1.47 2.001 3.745 3.061 6.051 3.061 1.542 0 3.096-.474 4.434-1.456l3.986-2.927c3.337-2.451 4.056-7.145 1.604-10.484z"/><path d="m175.736 220.768-4.802-1.183c-4.023-.991-8.086 1.466-9.077 5.488s1.466 8.086 5.488 9.077l4.802 1.183c.603.148 1.206.22 1.8.22 3.371 0 6.434-2.289 7.276-5.708.992-4.023-1.465-8.087-5.487-9.077z"/><path d="m292.83 150.296c3 0 5.833-1.813 6.989-4.776l1.797-4.607c1.505-3.859-.402-8.208-4.261-9.713-3.861-1.504-8.208.403-9.713 4.261l-1.797 4.607c-1.505 3.859.402 8.208 4.261 9.713.896.349 1.817.515 2.724.515z"/><path d="m308.707 366.013c-4.142 0-7.5 3.358-7.5 7.5v4.945c0 4.142 3.358 7.5 7.5 7.5s7.5-3.358 7.5-7.5v-4.945c0-4.142-3.358-7.5-7.5-7.5z"/><path d="m309.816 204.667c-.257-4.135-3.81-7.284-7.952-7.019l-4.935.308c-4.134.257-7.277 3.818-7.019 7.952.248 3.976 3.549 7.034 7.478 7.034.157 0 .315-.005.474-.015l4.935-.308c4.135-.258 7.277-3.819 7.019-7.952z"/><path d="m243.744 184.403c.319 3.922 3.6 6.893 7.467 6.893.204 0 .41-.008.616-.025 4.128-.335 7.203-3.955 6.867-8.083l-.401-4.929c-.335-4.128-3.958-7.207-8.083-6.867-4.128.335-7.203 3.955-6.867 8.083z"/><path d="m168.394 172.064c.786.261 1.583.385 2.368.385 3.142 0 6.07-1.99 7.116-5.135l1.561-4.693c1.307-3.931-.82-8.176-4.75-9.483-3.933-1.31-8.176.819-9.483 4.75l-1.561 4.693c-1.308 3.931.819 8.176 4.749 9.483z"/><path d="m116.62 223.679c.785.261 1.583.385 2.367.385 3.143 0 6.07-1.99 7.116-5.136l1.56-4.692c1.307-3.931-.82-8.176-4.751-9.483-3.932-1.307-8.177.82-9.483 4.751l-1.56 4.692c-1.307 3.93.82 8.176 4.751 9.483z"/><path d="m221.711 141.901c.554 0 1.116-.062 1.678-.19l4.821-1.102c4.038-.923 6.563-4.945 5.64-8.983s-4.944-6.56-8.983-5.64l-4.821 1.102c-4.038.923-6.563 4.945-5.64 8.983.795 3.475 3.885 5.83 7.305 5.83z"/><path d="m230.631 389.296-4.445-2.167c-3.723-1.813-8.213-.269-10.028 3.455-1.815 3.723-.268 8.213 3.455 10.028l4.445 2.167c1.058.516 2.178.76 3.281.76 2.778 0 5.448-1.55 6.747-4.215 1.815-3.723.268-8.213-3.455-10.028z"/><path d="m343.142 176.779c.692 0 1.397-.097 2.096-.3 3.978-1.155 6.266-5.316 5.11-9.294l-1.379-4.749c-1.155-3.978-5.315-6.268-9.294-5.11-3.978 1.155-6.266 5.316-5.11 9.294l1.379 4.749c.952 3.28 3.947 5.41 7.198 5.41z"/></g></g></svg>