<?xml version="1.0" encoding="UTF-8" standalone="no"?>
<!-- Created with Inkscape (http://www.inkscape.org/) -->

<svg
   version="1.1"
   id="svg3225"
   width="682.66669"
   height="682.66669"
   viewBox="0 0 682.66669 682.66669"
   xmlns="http://www.w3.org/2000/svg"
   xmlns:svg="http://www.w3.org/2000/svg">
  <defs
     id="defs3229">
    <clipPath
       clipPathUnits="userSpaceOnUse"
       id="clipPath3239">
      <path
         d="M 0,512 H 512 V 0 H 0 Z"
         id="path3237" />
    </clipPath>
  </defs>
  <g
     id="g3231"
     transform="matrix(1.3333333,0,0,-1.3333333,0,682.66667)">
    <g
       id="g3233">
      <g
         id="g3235"
         clip-path="url(#clipPath3239)">
        <g
           id="g3241"
           transform="translate(511.9213,297.5464)">
          <path
             d="m 0,0 c 0,7.924 -1.078,15.653 -2.854,23.107 -1.169,4.915 -18.61,9.711 -20.276,14.365 -0.019,4.826 15.687,9.582 15.196,14.258 -7.363,70.143 -66.501,122.268 -139.011,122.525 h -201.453 l 42.427,-329.384 h 201.609 c 37.492,0 68.458,27.945 73.204,64.143 0.415,3.172 -28.184,6.406 -28.184,9.691 0,1.786 -0.067,3.557 -0.191,5.312 4.351,4.642 37.159,9.659 40.726,14.996 C -7.103,-43.479 0,-22.523 0,0"
             style="fill:#804040;fill-opacity:1;fill-rule:nonzero;stroke:none"
             id="path3243" />
        </g>
        <g
           id="g3245"
           transform="translate(484.8168,225.606)">
          <path
             d="m 0,0 c 2.966,3.475 5.737,7.135 8.292,10.957 h -93.004 c -8.077,0 -15.026,-6.207 -15.406,-14.274 -0.406,-8.615 6.458,-15.726 14.982,-15.726 h 81.059 c 0.416,3.173 0.653,6.402 0.653,9.689 v 0.053 C -3.427,-5.885 -2.218,-2.599 0,0"
             style="fill:#9b4c3d;fill-opacity:1;fill-rule:nonzero;stroke:none"
             id="path3247" />
        </g>
        <g
           id="g3249"
           transform="translate(452.5014,334.2925)">
          <path
             d="m 0,0 c 0.38,-8.067 7.329,-14.274 15.406,-14.274 h 36.851 c 1.497,0 2.94,0.226 4.305,0.634 -0.996,4.176 -2.205,8.267 -3.568,12.256 -0.478,1.402 -0.734,2.865 -0.764,4.346 -0.085,4.315 -0.369,8.571 -0.832,12.764 H 14.982 C 6.458,15.726 -0.406,8.614 0,0"
             style="fill:#9b4c3d;fill-opacity:1;fill-rule:nonzero;stroke:none"
             id="path3251" />
        </g>
        <g
           id="g3253"
           transform="translate(314.9799,306.8365)">
          <path
             d="m 0,0 c 0,-82.837 -67.152,-149.6 -149.99,-149.6 -82.837,0 -149.989,66.763 -149.989,149.6 0,82.838 67.152,149.99 149.989,149.99 C -67.152,149.99 0,82.838 0,0"
             style="fill:#d48b51;fill-opacity:1;fill-rule:nonzero;stroke:none"
             id="path3255" />
        </g>
        <g
           id="g3257"
           transform="translate(164.9907,456.8267)">
          <path
             d="m 0,0 v -299.59 c 82.837,0 149.989,66.763 149.989,149.6 C 149.989,-67.152 82.837,0 0,0"
             style="fill:#b45f46;fill-opacity:1;fill-rule:nonzero;stroke:none"
             id="path3259" />
        </g>
        <g
           id="g3261"
           transform="translate(164.9897,441.8267)">
          <path
             d="m 0,0 c -74.434,0 -134.989,-60.557 -134.989,-134.99 0,-36.023 14.034,-69.846 39.518,-95.239 25.474,-25.382 59.38,-39.361 95.471,-39.361 36.092,0 69.997,13.979 95.472,39.361 25.484,25.393 39.518,59.216 39.518,95.239 C 134.99,-60.557 74.434,0 0,0 m 0,-299.59 c -44.084,0 -85.51,17.086 -116.646,48.111 -31.174,31.062 -48.343,72.432 -48.343,116.489 C -164.989,-44.015 -90.976,30 0,30 c 90.976,0 164.99,-74.015 164.99,-164.99 0,-44.057 -17.169,-85.427 -48.344,-116.489 C 85.511,-282.504 44.085,-299.59 0,-299.59"
             style="fill:#b45f46;fill-opacity:1;fill-rule:nonzero;stroke:none"
             id="path3263" />
        </g>
        <g
           id="g3265"
           transform="translate(202.9077,230.4185)">
          <path
             d="m 0,0 c 0,-8.284 -6.716,-15 -15,-15 -8.284,0 -15,6.716 -15,15 0,8.284 6.716,15 15,15 C -6.716,15 0,8.284 0,0"
             style="fill:#9b4c3d;fill-opacity:1;fill-rule:nonzero;stroke:none"
             id="path3267" />
        </g>
        <g
           id="g3269"
           transform="translate(251.4067,268.898)">
          <path
             d="m 0,0 c 0,-8.285 -6.716,-15 -15,-15 -8.284,0 -15,6.715 -15,15 0,8.284 6.716,15 15,15 C -6.716,15 0,8.284 0,0"
             style="fill:#9b4c3d;fill-opacity:1;fill-rule:nonzero;stroke:none"
             id="path3271" />
        </g>
        <g
           id="g3273"
           transform="translate(164.9897,471.8267)">
          <path
             d="m 0,0 v -30 c 74.434,0 134.99,-60.557 134.99,-134.99 0,-36.023 -14.034,-69.846 -39.518,-95.239 C 69.997,-285.611 36.092,-299.59 0,-299.59 v -30 c 44.085,0 85.511,17.086 116.646,48.111 31.175,31.062 48.344,72.432 48.344,116.489 C 164.99,-74.015 90.976,0 0,0"
             style="fill:#9b4c3d;fill-opacity:1;fill-rule:nonzero;stroke:none"
             id="path3275" />
        </g>
        <g
           id="g3277"
           transform="translate(424.0746,68.0845)">
          <path
             d="m 0,0 h -332.968 c -29.304,0 -53.061,23.757 -53.061,53.062 V 97.686 H 53.061 V 53.062 C 53.061,23.757 29.304,0 0,0"
             style="fill:#ffee7a;fill-opacity:1;fill-rule:nonzero;stroke:none"
             id="path3279" />
        </g>
        <g
           id="g3281"
           transform="translate(164.9907,165.7701)">
          <path
             d="m 0,0 v -97.686 h 259.083 c 29.305,0 53.062,23.757 53.062,53.062 l 0,44.624 z"
             style="fill:#ffdd27;fill-opacity:1;fill-rule:nonzero;stroke:none"
             id="path3283" />
        </g>
        <g
           id="g3285"
           transform="translate(498.6459,142.3316)">
          <path
             d="m 0,0 h -482.35 c -8.284,0 -15,6.716 -15,15 0,8.284 6.716,15 15,15 H 0 C 8.284,30 15,23.284 15,15 15,6.716 8.284,0 0,0"
             style="fill:#ffdd27;fill-opacity:1;fill-rule:nonzero;stroke:none"
             id="path3287" />
        </g>
        <g
           id="g3289"
           transform="translate(498.6459,172.3316)">
          <path
             d="M 0,0 H -333.656 V -30 H 0 c 8.284,0 15,6.716 15,15 C 15,-6.716 8.284,0 0,0"
             style="fill:#ffb500;fill-opacity:1;fill-rule:nonzero;stroke:none"
             id="path3291" />
        </g>
      </g>
    </g>
  </g>
</svg>
