<svg id="Layer_1" height="512" viewBox="0 0 256 256" width="512" xmlns="http://www.w3.org/2000/svg"><g><g><g><g><path d="m94.227 105.199c-1.933 0-3.5-1.567-3.5-3.5v-63.526c0-1.933 1.567-3.5 3.5-3.5s3.5 1.567 3.5 3.5v63.526c0 1.933-1.568 3.5-3.5 3.5z" fill="#8c3f0a"/></g></g><g><path d="m105.287 68.794-.015.004c-6.808 1.849-13.986 1.849-20.794 0-10.801-2.934-22.351-1.185-31.775 4.854-22.387 14.346-36.987 39.775-36.042 68.551 1.362 41.465 35.531 74.992 77.014 75.614 43.77.656 79.458-34.629 79.458-78.248 0-27.982-14.691-52.525-36.778-66.355-9.242-5.787-20.545-7.278-31.068-4.42z" fill="#e63950"/></g><g><g><path d="m44.319 193.05c-.52 0-1.02-.21-1.399-.58 0 0 0 0 0-.01-.38-.37-.59-.87-.59-1.4-.011-.53.189-1.03.569-1.41.74-.76 2.051-.78 2.82-.04 0 0 0 .01.01.01.38.37.59.87.59 1.41.011.53-.189 1.04-.569 1.42s-.891.6-1.431.6zm-5.389-5.9c-.6 0-1.17-.27-1.55-.74-5.14-6.27-9.18-13.26-12.03-20.77-2.85-7.55-4.43-15.48-4.689-23.57-.03-.81-.04-1.64-.04-2.45 0-12.31 3.05-24.48 8.83-35.2 5.989-11.11 14.77-20.58 25.409-27.4 5.73-3.67 12.37-5.61 19.2-5.61 3.16 0 6.311.42 9.37 1.25 7.47 2.03 15.41 2.03 22.91-.01 3.1-.84 6.29-1.27 9.49-1.27 1.109 0 2 .9 2 2 0 1.11-.891 2-2 2-2.84 0-5.681.38-8.45 1.13-8.15 2.22-16.86 2.22-25 .01-2.71-.74-5.51-1.11-8.32-1.11-6.06 0-11.96 1.72-17.04 4.98-10.069 6.45-18.38 15.42-24.04 25.92-5.47 10.15-8.359 21.66-8.359 33.31 0 .73.01 1.49.04 2.32.5 15.42 5.97 29.92 15.81 41.93 0 0 0 0 .01.01.69.85.57 2.11-.279 2.81-.362.29-.812.46-1.272.46z" fill="#e8566f"/></g></g><g><path d="m144.999 79.496c11.318 13.568 18.133 31.021 18.133 50.074 0 43.62-35.688 78.904-79.458 78.248-18.501-.277-35.536-7.112-48.866-18.265 14.171 16.968 35.338 27.912 58.866 28.265 43.77.656 79.458-34.629 79.458-78.248 0-24.145-10.944-45.723-28.133-60.074z" fill="#d10028"/></g></g><g><path d="m94.228 57.932c-.958 0-1.912-.391-2.604-1.16-1.293-1.438-1.175-3.65.263-4.943 9.681-8.705 19.054-15.546 35.773-11.022 1.865.504 2.969 2.426 2.465 4.292-.505 1.866-2.424 2.972-4.293 2.465-13.365-3.615-20.562 1.645-29.266 9.471-.668.6-1.504.897-2.338.897z" fill="#8c3f0a"/></g><g><path d="m196.455 83.221c.658 1.286-.232 2.828-1.675 2.901-7.202.365-26.296.23-43.214-9.537s-26.581-26.236-29.866-32.656c-.658-1.286.232-2.828 1.675-2.901 7.202-.365 26.296-.23 43.214 9.537s26.582 26.236 29.866 32.656z" fill="#76a34f"/></g><g><path d="m196.455 83.221c-2.654-5.187-9.472-16.933-20.915-26.405 5.561 6.636 9.154 12.964 10.915 16.405.658 1.286-.232 2.828-1.675 2.901-7.202.365-26.297.23-43.214-9.537-3.249-1.876-6.231-4-8.951-6.251 4.814 5.744 11.102 11.719 18.951 16.251 16.917 9.767 36.012 9.902 43.214 9.537 1.443-.074 2.333-1.615 1.675-2.901z" fill="#648940"/></g><g><g><path d="m213.446 86.505-17.191 17.191c-.764.764-1.171 1.805-1.165 2.886.096 17.164-6.403 34.358-19.499 47.454s-30.29 19.596-47.454 19.5c-1.081-.006-2.121.4-2.886 1.165l-17.191 17.191c-1.61 1.61-1.569 4.258.123 5.781 30.869 27.8 78.454 26.841 108.17-2.875s30.675-77.301 2.875-108.17c-1.525-1.693-4.172-1.734-5.782-.123z" fill="#d10028"/></g><g><path d="m207.832 92.119-11.577 11.577c-.764.764-1.171 1.805-1.165 2.886.096 17.164-6.403 34.358-19.499 47.454s-30.29 19.596-47.454 19.5c-1.081-.006-2.121.4-2.886 1.165l-11.577 11.577c26.001 26.001 68.157 26.001 94.158 0s26.001-68.158 0-94.159z" fill="#ffc91d"/></g><g><path d="m207.832 92.119-1.064 1.064c16.612 25.782 13.634 60.524-8.936 83.093-22.569 22.569-57.311 25.548-83.093 8.936l-1.064 1.064c26.001 26.001 68.157 26.001 94.158 0s26-68.156-.001-94.157z" fill="#ffa91a"/></g><g><path d="m207.832 92.119-.263.263c21.154 26.147 19.575 64.583-4.737 88.895s-62.748 25.891-88.895 4.737l-.263.263c26.001 26.001 68.157 26.001 94.158 0s26.001-68.157 0-94.158z" fill="#f79219"/></g></g></g></svg>