<svg height="512" viewBox="0 0 59 59" width="512" xmlns="http://www.w3.org/2000/svg"><g id="Page-1" fill="none" fill-rule="evenodd"><g id="039---Olives" fill-rule="nonzero"><path id="Shape" d="m54 52c-.5366615.0004512-.9779971-.4227895-1-.959-.1923641-6.5356526-1.5348913-12.9862826-3.966-19.056-.2112489-.5103111.0311889-1.0952511.5415-1.3065s1.0952511.0311889 1.3065.5415c2.5214525 6.286703 3.9154312 12.9685257 4.118 19.739.0110996.2652756-.0837518.5240758-.2636455.7193515-.1798938.1952757-.4300606.3109948-.6953545.3216485z" fill="#4c8056"/><path id="Shape" d="m35.289 11.608c-3.5931968-2.61797117-7.4902374-4.79112699-11.606-6.472-7.2081465-2.9856508-14.87194931-4.7224593-22.663-5.136-.54745032.00112165-.99698999.43303231-1.02.98-.01116055.55194563.42706093 1.0085196.979 1.02 6.64328645.37728268 13.1948497 1.73045475 19.444 4.016 7.977 10.616-2.052 22.169-2.156 22.284l.722.691-.3.954c.111643.0373524.228299.0575817.346.06.543 0 .939-.531 1.912-1.931 2.4-3.457 7-11.769 2.948-20.2 9.16 8.116 8.254 17.288 7.4 20.96-.0886536.3504484.0187277.7214608.280856.9703831.2621283.2489224.6381913.3369988.9835934.230364.3454021-.1066349.6063657-.3913784.6825506-.7447471 1.5242095-6.9903741-.3037544-14.2915031-4.942-19.739 2.0167575 1.0843643 3.95486 2.3090446 5.8 3.665.1703965.1291515.3781901.1993521.592.2.4295119-.0021405.8096828-.2783201.9444881-.6861345s-.005869-.8561623-.3494881-1.1138655z" fill="#4c8056"/><path id="Shape" d="m23.34 29.92-5 21.36c-.49344.3680277-1.0112975.7021293-1.55 1-3.52 2-7.47 2.35-10.68.54-5.5-3.09-6.76-11.3-2.8-18.34s11.62-10.25 17.12-7.16c.7974737.4521605 1.5222745 1.0218876 2.15 1.69.2746337.2848899.5286106.5889939.76.91z" fill="#4fba6f"/><path id="Shape" d="m11.94 51.22c-.400676-.0005574-.7623359-.2402211-.919-.609-.4633951-1.0578915-1.26123466-1.9344259-2.271-2.495-1.00173934-.5767296-2.16741697-.8023333-3.312-.641-.52532599.0416172-.99279837-.3315761-1.0685801-.8530706s.26613658-1.0123057.7815801-1.1219294c3.2479448-.4354381 6.3919555 1.3313092 7.709 4.332.1316255.3089053.0994321.6632504-.0857087.9433765-.1851407.280126-.498512.4486352-.8342913.4486235z" fill="#24ae5f"/><path id="Shape" d="m58.19 36.49c-.2 0-10.07-.03-14.54-5.9-2.17-2.85-2.66-6.56-2.6-9.65.01-.56.04-1.1.08-1.61l11.6-1.56c.6579565.3686997 1.2805824.7971735 1.86 1.28.6712572.5430856 1.2755053 1.1641184 1.8 1.85 4.51 5.94 1.8 15.59 1.8 15.59z" fill="#4fba6f"/><path id="Shape" d="m6.8 37.441c-.35490299-.000611-.68289354-.1892836-.86184702-.4957672-.17895347-.3064835-.18205623-.6848557-.00815298-.9942328 2.291-4.074 6.273-6.811 9.909-6.811.5522847 0 1 .4477153 1 1s-.4477153 1-1 1c-2.891 0-6.249 2.381-8.167 5.791-.17712513.3151101-.51052013.5101003-.872.51z" fill="#7ed09e"/><path id="Shape" d="m23.34 29.92-5 21.36c-.49344.3680277-1.0112975.7021293-1.55 1-1.6554123-3.4783179-2.1900218-7.3848114-1.53-11.18.6496597-4.8736106 3.3026474-9.2553896 7.32-12.09.2746337.2848899.5286106.5889939.76.91z" fill="#24ae5f"/><ellipse id="Oval" cx="29.603" cy="43.077" fill="#4fba6f" rx="16" ry="12.5" transform="matrix(.158 -.987 .987 .158 -17.618 65.486)"/><path id="Shape" d="m21.21 42.731c-.0532713.0001465-.10646-.0042023-.159-.013-.5449693-.0874816-.9160091-.599955-.829-1.145 1.116-6.959 6.367-12.144 11.438-11.332.5312711.1011735.8858399.6063944.8003535 1.1404142-.0854865.5340198-.5800481.903311-1.1163535.8335858-4.023-.645-8.204 3.785-9.144 9.674-.077776.4860802-.4977384.8432604-.99.842z" fill="#7ed09e"/><path id="Shape" d="m32.074 55c-.2753675-.0004252-.5383733-.1143823-.727-.315-1.8352443-1.8909147-4.6956393-2.349473-7.03-1.127-.4854583.263716-1.092784.0839583-1.3565-.4015s-.0839583-1.092784.4015-1.3565c3.1312537-1.6544525 6.9792325-1.0388085 9.438 1.51.2763554.2898946.3530855.7167141.1950002 1.0847089-.1580854.3679949-.5204875.6061694-.9210002.6052911z" fill="#24ae5f"/><path id="Shape" d="m54.59 19.05c-2.72 1.72-6.47 3.38-10.3 2.85-1.1215269-.1580351-2.2134091-.4815558-3.24-.96.01-.56.04-1.1.08-1.61l11.6-1.56c.6579565.3686997 1.2805824.7971735 1.86 1.28z" fill="#24ae5f"/><path id="Shape" d="m53.063 27.531 1.875.115c.2657276.020013.5282872-.0680535.728203-.2442505.1999157-.1761969.320269-.425613.333797-.6917495.0341987-.5511654-.3848398-1.0257175-.936-1.06l-3.338-.2-2.269-3.537 2.669.609c.3485126.079313.7128645-.0333281.9558078-.2954924.2429433-.2621642.3275692-.6340227.222-.9755-.1055693-.3414772-.3852952-.6006946-.7338078-.6800076l-4.656-1.061-1.533-2.389c-.3098925-.4334718-.9052466-.5478126-1.3536694-.259979-.4484229.2878336-.5923853.8767267-.3273306 1.338979l1.668 2.6-.977 4.29c-.0926617.3530979.0144488.7286319.2794377.97972.2649888.2510882.6457443.3378277.9933421.2262925.3475978-.1115353.606798-.4036204.6762202-.7620125l.541-2.376 2.25 3.5-.846 2.949c-.1057972.3455832-.0168911.7213612.232546.9828988.2494371.2615375.6205855.3681317.9707893.2788115.3502037-.0893202.6249608-.3606539.7186647-.7097103l.362-1.261 2.595 4.044c.1832942.2842073.4978161.4565172.836.458.3656754-.0003738.701987-.2003141.8770039-.5213869.175017-.3210728.1608268-.7120718-.0370039-1.0196131z" fill="#4c8056"/><path id="Shape" d="m58 13.862s-7.077 7.1-14.463 6.088-12.286-9.763-12.286-9.763 7.077-7.1 14.464-6.088 12.285 9.763 12.285 9.763z" fill="#4fba6f"/><path id="Shape" d="m53.132 12.009-4.452-.594.875-.583c.297245-.1982824.4661282-.5400812.4430331-.8966441s-.2346599-.6737195-.555-.832c-.32034-.15828049-.7007881-.1336383-.9980331.0646441l-2.769 1.847-4.27-.57 2.194-1.645c.4418278-.33137085.5313708-.9581722.2-1.4s-.9581722-.53137085-1.4-.2l-3.823 2.868-2.41-.321c-.3582422-.05585536-.7186548.08657311-.9419354.3722357-.2232806.2856625-.2744478.6698044-.1337251 1.0039518.1407226.3341473.4512881.5659493.8116605.6058125l2.66.355 2.637 3.516c.2143594.2858125.5649147.4355547.9196152.3928203.3547006-.0427344.6596589-.2714531.8-.6.1403412-.3285469.0947442-.7070078-.1196152-.9928203l-1.459-1.946 4.127.55 1.7 2.551c.1982824.297245.5400812.4661283.8966441.4430332s.6737195-.2346599.832-.555.1336383-.7007882-.0646441-.9980332l-.726-1.089 4.762.635c.5403197.0597684 1.0294166-.3230487 1.1011915-.8619049.071775-.5388561-.3000656-1.0363491-.8371915-1.1200951z" fill="#4c8056"/></g></g></svg>